# This file uses inches as units for non-parametric coordinates.

mtllib 80s Table.mtl
g default
v -251.890368 73.799069 863.978538
v -252.707026 73.799069 720.744903
v -251.890360 73.799069 863.978538
v -262.640321 109.972860 864.039830
v -223.767172 97.728343 863.818192
v -224.583829 97.728343 720.584556
v -263.456978 109.972860 720.806195
v -219.245505 53.618169 863.792411
v -219.245505 53.618165 863.792411
v -293.025259 86.756008 864.213072
v -180.537271 71.003805 863.571713
v -550.229825 114.316418 712.112474
v -128.768537 114.316418 709.709480
v -133.620139 109.972860 711.582678
v -545.357179 109.972860 713.930228
v -293.025263 86.756008 864.213072
v -293.841920 86.756008 720.979437
v -550.229825 131.400718 712.112474
v -128.768537 131.400718 709.709480
v -426.173585 73.799060 721.733936
v -385.038695 86.756008 721.499402
v -426.173593 73.799060 721.733936
v -542.905631 134.078425 716.512123
v -136.042087 134.078425 714.192368
v -385.038691 86.756008 721.499402
v -384.222033 86.756008 864.733037
v -339.440306 91.220663 721.239419
v -338.623648 91.220663 864.473055
v -425.356927 73.799060 864.967571
v -339.440306 109.972860 721.239419
v -397.241321 109.972860 721.568976
v -425.356936 73.799060 864.967571
v -486.999757 0.000003 722.080741
v -534.845796 0.000004 722.353539
v -525.281976 37.328904 722.299010
v -479.777691 28.188733 722.039564
v -384.222037 86.756008 864.733037
v -497.526674 71.003792 722.140761
v -458.818431 53.618156 721.920063
v -542.044187 134.078425 867.600792
v -135.180643 134.078425 865.281029
v -454.296773 97.728343 721.894282
v -415.423624 109.972860 721.672644
v -478.961033 28.188733 865.273199
v -486.183099 0.000003 865.314376
v -458.001774 53.618156 865.153698
v -127.856449 114.316418 869.680695
v -549.317737 114.316418 872.083689
v -544.466135 109.972860 870.210483
v -132.729095 109.972860 867.862932
v -280.822632 109.972860 864.143498
v -453.480116 97.728343 865.127917
v -414.606967 109.972860 864.906279
v -127.856449 131.400718 869.680695
v -549.317737 131.400718 872.083689
v -534.029138 0.000004 865.587174
v -524.465319 37.328904 865.532645
v -338.623648 109.972860 864.473055
v -496.710016 71.003792 865.374396
v -396.424664 109.972860 864.802611
v -281.639289 109.972860 720.909862
v -293.841916 86.756008 720.979437
v -220.062163 53.618169 720.558776
v -152.781934 37.328913 863.413464
v -198.286211 28.188742 863.672910
v -220.062163 53.618165 720.558776
v -181.353928 71.003805 720.338078
v -252.707017 73.799069 720.744903
v -191.064137 0.000000 863.631733
v -143.218098 0.000000 863.358935
v -199.102869 28.188742 720.439275
v -153.598592 37.328913 720.179829
v -191.880794 0.000000 720.398097
v -144.034755 0.000000 720.125300
vt 0.567450 0.785631
vt 0.578086 0.790109
vt 0.566504 0.797653
vt 0.558703 0.791328
vt 0.585416 0.780774
vt 0.567450 0.785631
vt 0.572985 0.778582
vt 0.551070 0.801350
vt 0.547602 0.795116
vt 0.558703 0.791328
vt 0.556014 0.801233
vt 0.574767 0.770871
vt 0.587776 0.770562
vt 0.535354 0.801722
vt 0.535233 0.796624
vt 0.547602 0.795116
vt 0.519638 0.802095
vt 0.522806 0.795704
vt 0.522806 0.795704
vt 0.514694 0.802212
vt 0.504045 0.799133
vt 0.511538 0.792446
vt 0.492119 0.792145
vt 0.502532 0.787169
vt 0.511538 0.792446
vt 0.484355 0.783168
vt 0.496669 0.780390
vt 0.481514 0.773080
vt 0.494524 0.772772
vt 0.297613 0.457027
vt 0.038945 0.458799
vt 0.041896 0.457312
vt 0.294596 0.455582
vt 0.297744 0.462793
vt 0.039076 0.464565
vt 0.293285 0.463728
vt 0.043576 0.465438
vt 0.536093 0.832937
vt 0.535972 0.827839
vt 0.548342 0.826331
vt 0.548342 0.826331
vt 0.551809 0.832565
vt 0.520377 0.833310
vt 0.523545 0.826918
vt 0.523545 0.826918
vt 0.559443 0.822543
vt 0.567244 0.828868
vt 0.556753 0.832448
vt 0.515433 0.833427
vt 0.504785 0.830348
vt 0.512277 0.823660
vt 0.512277 0.823660
vt 0.578826 0.821323
vt 0.559443 0.822543
vt 0.568189 0.816846
vt 0.492858 0.823360
vt 0.503271 0.818384
vt 0.573724 0.809796
vt 0.586156 0.811988
vt 0.485095 0.814383
vt 0.497409 0.811604
vt 0.503271 0.818384
vt 0.575506 0.802086
vt 0.588516 0.801777
vt 0.482254 0.804295
vt 0.495263 0.803987
vt 0.299097 0.522543
vt 0.040429 0.524315
vt 0.043380 0.522828
vt 0.296080 0.521097
vt 0.299228 0.528309
vt 0.040560 0.530081
vt 0.294769 0.529244
vt 0.045060 0.530954
vt 0.571636 0.893429
vt 0.592790 0.893429
vt 0.592790 0.971374
vt 0.571636 0.971374
vt 0.616315 0.971374
vt 0.616315 0.893429
vt 0.631419 0.971374
vt 0.631419 0.893429
vt 0.463714 0.891926
vt 0.467836 0.838541
vt 0.499999 0.839106
vt 0.499999 0.839106
vt 0.495876 0.892490
vt 0.495876 0.892490
vt 0.438189 0.891478
vt 0.438189 0.891478
vt 0.442312 0.838093
vt 0.442312 0.838093
vt 0.467836 0.838541
vt 0.463714 0.891926
vt 0.531528 0.893116
vt 0.535651 0.839731
vt 0.421802 0.891190
vt 0.425924 0.837806
vt 0.567181 0.893741
vt 0.571303 0.840357
vt 0.603465 0.840921
vt 0.603465 0.840921
vt 0.599343 0.894306
vt 0.599343 0.894306
vt 0.567181 0.893741
vt 0.571303 0.840357
vt 0.624867 0.894754
vt 0.628990 0.841369
vt 0.641255 0.895041
vt 0.645377 0.841657
vt 0.293357 0.466934
vt 0.294512 0.517930
vt 0.044803 0.519640
vt 0.043648 0.468644
vt 0.297803 0.465404
vt 0.299026 0.519398
vt 0.040358 0.521170
vt 0.039135 0.467176
vt 0.551775 0.971374
vt 0.530621 0.971374
vt 0.530621 0.893429
vt 0.551775 0.893429
vt 0.507096 0.971374
vt 0.507096 0.893429
vt 0.491992 0.971374
vt 0.491992 0.893429
vt 0.296316 0.531519
vt 0.216665 0.534928
vt 0.205506 0.535004
vt 0.170031 0.535247
vt 0.134556 0.535490
vt 0.123397 0.535567
vt 0.043616 0.533249
vt 0.297510 0.584267
vt 0.217760 0.583272
vt 0.124491 0.583911
vt 0.044810 0.585997
vt 0.135651 0.583835
vt 0.171126 0.583592
vt 0.206600 0.583349
vt 0.299286 0.530875
vt 0.300509 0.584869
vt 0.041840 0.586641
vt 0.040618 0.532647
vt 0.569375 0.971374
vt 0.554036 0.971374
vt 0.554036 0.893429
vt 0.569375 0.893429
vt 0.489731 0.971374
vt 0.469418 0.971374
vt 0.469418 0.893429
vt 0.489731 0.893429
vt 0.323082 0.596569
vt 0.323082 0.509515
vt 0.332379 0.509515
vt 0.332379 0.596569
vt 0.306177 0.595232
vt 0.306177 0.508178
vt 0.315474 0.508178
vt 0.315474 0.595232
vt 0.467157 0.971374
vt 0.451818 0.971374
vt 0.451818 0.893429
vt 0.467157 0.893429
vt 0.449557 0.971374
vt 0.429244 0.971374
vt 0.429244 0.893429
vt 0.449557 0.893429
vn 0.300426 0.953804 -0.001713
vn 0.428776 0.903408 -0.002445
vn 0.428776 0.903408 -0.002445
vn 0.300426 0.953804 -0.001713
vn -0.525816 -0.850593 0.002998
vn -0.648018 -0.761616 0.003695
vn -0.648018 -0.761616 0.003695
vn -0.525816 -0.850593 0.002998
vn -0.525816 -0.850593 0.002998
vn -0.409704 -0.912215 0.002336
vn -0.409704 -0.912215 0.002336
vn -0.525816 -0.850593 0.002998
vn 0.005701 0.000000 0.999984
vn 0.005701 0.000000 0.999984
vn 0.005701 0.000000 0.999984
vn 0.005701 0.000000 0.999984
vn -0.005695 -0.046577 -0.998899
vn -0.005695 -0.046577 -0.998899
vn -0.005247 -0.391050 -0.920355
vn -0.005247 -0.391050 -0.920355
vn -0.409704 -0.912215 0.002336
vn -0.409704 -0.912215 0.002336
vn -0.300425 -0.953804 0.001713
vn -0.196924 -0.980418 0.001123
vn -0.196924 -0.980418 0.001123
vn -0.300425 -0.953804 0.001713
vn -0.005695 -0.046577 -0.998899
vn -0.005695 -0.046577 -0.998899
vn -0.005676 0.094307 -0.995527
vn -0.005676 0.094307 -0.995527
vn 0.300426 -0.953804 -0.001713
vn 0.409704 -0.912215 -0.002336
vn 0.409704 -0.912215 -0.002336
vn 0.300426 -0.953804 -0.001713
vn 0.300426 -0.953804 -0.001713
vn 0.196924 -0.980418 -0.001123
vn 0.196924 -0.980418 -0.001123
vn 0.300426 -0.953804 -0.001713
vn -0.005676 0.094307 -0.995527
vn -0.005676 0.094307 -0.995527
vn -0.002944 0.856394 -0.516315
vn -0.002944 0.856394 -0.516315
vn 0.000000 -1.000000 0.000000
vn -0.196924 -0.980418 0.001123
vn -0.196924 -0.980418 0.001123
vn 0.000000 -1.000000 0.000000
vn -0.005701 0.000000 -0.999984
vn -0.005701 0.000000 -0.999984
vn -0.005701 0.000000 -0.999984
vn -0.005701 0.000000 -0.999984
vn -0.005701 0.000000 -0.999984
vn 0.196924 -0.980418 -0.001123
vn 0.000000 -1.000000 0.000000
vn 0.000000 -1.000000 0.000000
vn 0.196924 -0.980418 -0.001123
vn -0.005701 0.000000 -0.999984
vn -0.005701 0.000000 -0.999984
vn -0.005701 0.000000 -0.999984
vn -0.005701 0.000000 -0.999984
vn -0.005701 0.000000 -0.999984
vn -0.005701 0.000000 -0.999984
vn -0.005701 0.000000 -0.999984
vn -0.005701 0.000000 -0.999984
vn 0.000000 1.000000 -0.000000
vn 0.000000 1.000000 -0.000000
vn 0.000000 1.000000 -0.000000
vn 0.000000 1.000000 -0.000000
vn -0.005701 0.000000 -0.999984
vn -0.005701 0.000000 -0.999984
vn -0.005701 0.000000 -0.999984
vn -0.005701 0.000000 -0.999984
vn -0.005701 0.000000 -0.999984
vn 0.968695 -0.248192 -0.005523
vn 0.885164 -0.465251 -0.005047
vn 0.885164 -0.465251 -0.005047
vn 0.968695 -0.248192 -0.005523
vn 0.648018 -0.761616 -0.003695
vn 0.409704 -0.912215 -0.002336
vn 0.409704 -0.912215 -0.002336
vn 0.648018 -0.761616 -0.003695
vn 0.885164 -0.465251 -0.005047
vn 0.648018 -0.761616 -0.003695
vn 0.648018 -0.761616 -0.003695
vn 0.885164 -0.465251 -0.005047
vn -0.005701 0.000000 -0.999984
vn -0.005701 0.000000 -0.999984
vn -0.005701 0.000000 -0.999984
vn -0.005701 0.000000 -0.999984
vn -0.005701 0.000000 -0.999984
vn 0.005695 -0.046577 0.998899
vn 0.005695 -0.046577 0.998899
vn 0.005247 -0.391051 0.920354
vn 0.005247 -0.391051 0.920354
vn 0.005701 0.000000 0.999984
vn 0.005701 0.000000 0.999984
vn 0.005701 0.000000 0.999984
vn 0.005701 0.000000 0.999984
vn 0.005701 0.000000 0.999984
vn 0.005701 0.000000 0.999984
vn -0.300426 0.953804 0.001713
vn -0.428776 0.903408 0.002445
vn -0.428776 0.903408 0.002445
vn -0.300426 0.953804 0.001713
vn 0.005695 -0.046577 0.998899
vn 0.005695 -0.046577 0.998899
vn 0.005676 0.094308 0.995527
vn 0.005676 0.094308 0.995527
vn 0.005676 0.094308 0.995527
vn 0.005676 0.094308 0.995527
vn 0.002944 0.856394 0.516314
vn 0.002944 0.856394 0.516314
vn -0.885164 0.465252 0.005047
vn -0.968695 0.248192 0.005523
vn -0.968695 0.248192 0.005523
vn -0.885164 0.465252 0.005047
vn 0.005701 0.000000 0.999984
vn 0.005701 0.000000 0.999984
vn 0.005701 0.000000 0.999984
vn 0.005701 0.000000 0.999984
vn 0.005701 0.000000 0.999984
vn -0.428776 0.903408 0.002445
vn -0.648018 0.761616 0.003695
vn -0.648018 0.761616 0.003695
vn -0.428776 0.903408 0.002445
vn -0.648018 0.761616 0.003695
vn -0.885164 0.465252 0.005047
vn -0.885164 0.465252 0.005047
vn -0.648018 0.761616 0.003695
vn 0.005701 0.000000 0.999984
vn 0.005701 0.000000 0.999984
vn 0.005701 0.000000 0.999984
vn 0.005701 0.000000 0.999984
vn 0.005701 0.000000 0.999984
vn 0.005701 0.000000 0.999984
vn 0.005701 0.000000 0.999984
vn 0.005701 0.000000 0.999984
vn 0.005701 0.000000 0.999984
vn 0.005701 0.000000 0.999984
vn 0.005701 0.000000 0.999984
vn 0.005701 0.000000 0.999984
vn 0.005701 0.000000 0.999984
vn -0.982026 -0.188664 0.005599
vn -0.982026 -0.188664 0.005599
vn -0.666201 -0.745763 0.003798
vn -0.666201 -0.745763 0.003798
vn -0.982026 -0.188664 0.005599
vn -0.982026 -0.188664 0.005599
vn -0.969582 0.244703 0.005528
vn -0.969582 0.244703 0.005528
vn -0.969582 0.244703 0.005528
vn -0.969582 0.244703 0.005528
vn -0.344410 0.938817 0.001964
vn -0.344410 0.938817 0.001964
vn 0.005701 0.000000 0.999984
vn 0.005701 0.000000 0.999984
vn 0.005701 0.000000 0.999984
vn 0.005701 0.000000 0.999984
vn 0.005701 0.000000 0.999984
vn 0.005701 0.000000 0.999984
vn 0.005701 0.000000 0.999984
vn 0.005701 0.000000 0.999984
vn 0.005701 0.000000 0.999984
vn 0.005701 0.000000 0.999984
vn 0.000000 -1.000000 -0.000000
vn 0.000000 -1.000000 -0.000000
vn 0.000000 -1.000000 0.000000
vn 0.000000 -1.000000 0.000000
vn 0.000000 -1.000000 0.000000
vn -0.000000 -1.000000 0.000000
vn -0.000000 -1.000000 0.000000
vn -0.000000 -1.000000 0.000000
vn 0.000000 -1.000000 0.000000
vn 0.000000 -1.000000 0.000000
vn 0.000000 -1.000000 0.000000
vn 0.000000 -1.000000 -0.000000
vn 0.000000 -1.000000 -0.000000
vn -0.000000 -1.000000 0.000000
vn -0.005701 0.000000 -0.999984
vn -0.005701 0.000000 -0.999984
vn -0.005701 0.000000 -0.999984
vn -0.005701 0.000000 -0.999984
vn -0.005701 0.000000 -0.999984
vn 0.005701 0.000000 0.999984
vn 0.005701 0.000000 0.999984
vn 0.005701 0.000000 0.999984
vn 0.005701 0.000000 0.999984
vn 0.005701 0.000000 0.999984
vn 0.648018 0.761616 -0.003695
vn 0.428776 0.903408 -0.002445
vn 0.428776 0.903408 -0.002445
vn 0.648018 0.761616 -0.003695
vn 0.969582 0.244703 -0.005528
vn 0.969582 0.244703 -0.005528
vn 0.344409 0.938818 -0.001964
vn 0.344409 0.938818 -0.001964
vn 0.005701 0.000000 0.999984
vn 0.005701 0.000000 0.999984
vn 0.005701 0.000000 0.999984
vn 0.005701 0.000000 0.999984
vn -0.648018 -0.761616 0.003695
vn -0.885164 -0.465252 0.005047
vn -0.885164 -0.465252 0.005047
vn -0.648018 -0.761616 0.003695
vn 0.969582 0.244703 -0.005528
vn 0.969582 0.244703 -0.005528
vn 0.982026 -0.188664 -0.005599
vn 0.982026 -0.188664 -0.005599
vn 0.982026 -0.188664 -0.005599
vn 0.982026 -0.188664 -0.005599
vn 0.666200 -0.745763 -0.003798
vn 0.666200 -0.745763 -0.003798
vn -0.005701 0.000000 -0.999984
vn -0.005701 0.000000 -0.999984
vn -0.005701 0.000000 -0.999984
vn -0.005701 0.000000 -0.999984
vn 0.885164 0.465252 -0.005047
vn 0.648018 0.761616 -0.003695
vn 0.648018 0.761616 -0.003695
vn 0.885164 0.465252 -0.005047
vn -0.005701 0.000000 -0.999984
vn -0.005701 0.000000 -0.999984
vn -0.005701 0.000000 -0.999984
vn -0.005701 0.000000 -0.999984
vn -0.005701 0.000000 -0.999984
vn -0.005701 0.000000 -0.999984
vn -0.885164 -0.465252 0.005047
vn -0.968695 -0.248192 0.005523
vn -0.968695 -0.248192 0.005523
vn -0.885164 -0.465252 0.005047
vn 0.968695 0.248192 -0.005523
vn 0.885164 0.465252 -0.005047
vn 0.885164 0.465252 -0.005047
vn 0.968695 0.248192 -0.005523
vn -0.005701 0.000000 -0.999984
vn -0.005701 0.000000 -0.999984
vn -0.005701 0.000000 -0.999984
vn -0.005701 0.000000 -0.999984
vn -0.005701 0.000000 -0.999984
vn -0.005701 0.000000 -0.999984
vn -0.005701 0.000000 -0.999984
vn -0.005701 0.000000 -0.999984
vn -0.005701 0.000000 -0.999984
vn 0.000000 -1.000000 -0.000000
vn 0.000000 -1.000000 -0.000000
vn 0.000000 -1.000000 -0.000000
vn 0.000000 -1.000000 -0.000000
vn -0.000000 -1.000000 0.000000
vn -0.000000 -1.000000 0.000000
vn -0.000000 -1.000000 0.000000
vn -0.000000 -1.000000 0.000000
s off
g s_Table:pCylinder4
usemtl s_Table:lambert2SG
f 4/75/1 5/76/2 6/77/3 7/78/4
f 63/89/5 66/90/6 9/91/7 8/92/8 3/93/9 1/84/10 2/83/11 68/94/12
f 8/1/13 11/2/14 5/3/15 3/4/16
f 12/30/17 13/31/18 14/32/19 15/33/20
f 2/83/21 1/84/22 10/85/23 16/86/24 17/87/25 62/88/26
f 13/31/27 12/30/28 18/34/29 19/35/30
f 29/101/31 32/102/32 22/103/33 20/104/34 21/105/35 25/99/36 26/100/37 37/106/38
f 19/35/39 18/34/40 23/36/41 24/37/42
f 27/95/43 17/87/44 16/86/45 28/96/46
f 30/38/47 27/39/48 25/40/49 21/41/50 31/42/51
f 25/99/52 27/95/53 28/96/54 26/100/55
f 33/63/56 34/64/57 35/59/58 36/58/59
f 36/58/60 35/59/61 38/53/62 39/55/63
f 23/111/64 40/112/65 41/113/66 24/114/67
f 31/42/68 21/41/69 20/46/70 42/47/71 43/48/72
f 33/145/73 36/146/74 44/147/75 45/148/76
f 39/107/77 22/103/78 32/102/79 46/108/80
f 36/109/81 39/107/82 46/108/83 44/110/84
f 38/53/85 42/47/86 20/46/87 22/54/88 39/55/89
f 47/67/90 48/68/91 49/69/92 50/70/93
f 51/8/94 10/9/95 1/10/96 3/4/97 5/3/98 4/11/99
f 43/119/100 42/120/101 52/121/102 53/122/103
f 48/68/104 47/67/105 54/71/106 55/72/107
f 55/72/108 54/71/109 41/73/110 40/74/111
f 35/149/112 34/150/113 56/151/114 57/152/115
f 58/14/116 28/15/117 16/16/118 10/9/119 51/8/120
f 42/120/121 38/123/122 59/124/123 52/121/124
f 38/123/125 35/125/126 57/126/127 59/124/128
f 44/27/129 57/26/130 56/28/131 45/29/132
f 46/24/133 59/23/134 57/26/135 44/27/136
f 60/17/137 37/18/138 26/19/139 28/15/140 58/14/141
f 48/143/142 12/144/143 15/133/144 49/137/145
f 12/153/146 48/154/147 55/155/148 18/156/149
f 18/115/150 55/116/151 40/112/152 23/111/153
f 53/20/154 52/21/155 29/22/156 37/18/157 60/17/158
f 52/21/159 59/23/160 46/24/161 32/25/162 29/22/163
f 14/127/164 7/128/165 61/129/166 30/130/167 31/131/168 43/132/169 15/133/170
f 53/136/171 60/138/172 58/139/173 51/140/174 4/135/175 50/134/176 49/137/177
f 61/43/178 62/44/179 17/45/180 27/39/181 30/38/182
f 64/5/183 11/2/184 8/1/185 9/6/186 65/7/187
f 67/79/188 6/77/189 5/76/190 11/80/191
f 54/117/192 19/118/193 24/114/194 41/113/195
f 69/12/196 70/13/197 64/5/198 65/7/199
f 66/90/200 71/97/201 65/98/202 9/91/203
f 19/157/204 54/158/205 47/159/206 13/160/207
f 13/141/208 47/142/209 50/134/210 14/127/211
f 68/51/212 6/50/213 67/56/214 63/57/215
f 72/81/216 67/79/217 11/80/218 64/82/219
f 7/49/220 6/50/221 68/51/222 2/52/223 62/44/224 61/43/225
f 71/161/226 73/162/227 69/163/228 65/164/229
f 74/165/230 72/166/231 64/167/232 70/168/233
f 71/61/234 72/60/235 74/65/236 73/66/237
f 67/56/238 72/60/239 71/61/240 66/62/241 63/57/242
f 50/134/243 4/135/244 7/128/245 14/127/246
f 15/133/247 43/132/248 53/136/249 49/137/250
