# This file uses centimeters as units for non-parametric coordinates.

mtllib Cinder Block.mtl
g default
v -1.024825 0.052819 1.683365
v 0.000000 0.052819 1.576915
v 1.024825 0.052819 1.683365
v -1.024825 0.603162 1.683365
v 0.000000 0.603162 1.576915
v 1.024825 0.603162 1.683365
v -1.024825 1.153504 1.683365
v 0.000000 1.153504 1.576915
v 1.024825 1.153504 1.683365
v -1.024825 1.153504 -1.683365
v 0.000000 1.153504 -1.576915
v 1.024825 1.153504 -1.683365
v -1.024825 0.603162 -1.683365
v 0.000000 0.603162 -1.576915
v 1.024825 0.603162 -1.683365
v -1.024825 0.052819 -1.683365
v 0.000000 0.052819 -1.576915
v 1.024825 0.052819 -1.683365
v -0.703374 0.052819 1.576915
v -0.703374 0.052819 -1.576915
v -0.703374 0.603162 -1.576915
v -0.703374 1.153504 -1.576915
v -0.703374 1.153504 1.576915
v -0.703374 0.603162 1.576915
v 0.703374 0.052819 1.576915
v 0.703374 0.052819 -1.576915
v 0.703374 0.603162 -1.576915
v 0.703374 1.153504 -1.576915
v 0.703374 1.153504 1.576915
v 0.703374 0.603162 1.576915
v -1.024825 1.153504 1.381461
v -0.703374 1.153504 1.381461
v 0.000000 1.153504 1.381461
v 0.703374 1.153504 1.381461
v 1.024825 1.153504 1.381461
v 1.024825 0.603162 1.381461
v 1.024825 0.052819 1.381461
v 0.703374 0.052819 1.294102
v 0.000000 0.052819 1.294102
v -0.703374 0.052819 1.294102
v -1.024825 0.052819 1.381461
v -1.024825 0.603162 1.381461
v -1.024825 1.153504 -1.381461
v -0.703374 1.153504 -1.381461
v 0.000000 1.153504 -1.381461
v 0.703374 1.153504 -1.381461
v 1.024825 1.153504 -1.381461
v 1.024825 0.603162 -1.381461
v 1.024825 0.052819 -1.381461
v 0.703374 0.052819 -1.381461
v 0.000000 0.052819 -1.381461
v -0.703374 0.052819 -1.381461
v -1.024825 0.052819 -1.381461
v -1.024825 0.603162 -1.381461
v -1.024825 0.052819 0.210741
v -0.703374 0.052819 0.210741
v 0.000000 0.052819 0.210741
v 0.703374 0.052819 0.210741
v 1.024825 0.052819 0.210741
v 1.024825 0.603162 0.210741
v 1.024825 1.153504 0.210741
v 0.703374 1.153504 0.210741
v 0.000000 1.153504 0.210741
v -0.703374 1.153504 0.210741
v -1.024825 1.153504 0.210741
v -1.024825 0.603162 0.210741
v -1.024825 0.052819 -0.210741
v -0.703374 0.052819 -0.210741
v 0.000000 0.052819 -0.210741
v 0.703374 0.052819 -0.210741
v 1.024825 0.052819 -0.210741
v 1.024825 0.603162 -0.210741
v 1.024825 1.153504 -0.210741
v 0.703374 1.153504 -0.210741
v 0.000000 1.153504 -0.210741
v -0.703374 1.153504 -0.210741
v -1.024825 1.153504 -0.210741
v -1.024825 0.603162 -0.210741
v 0.864977 0.052819 1.680636
v 0.864977 0.052819 1.338020
v 0.864977 0.052819 0.210741
v 0.864977 0.052819 -0.210741
v 0.864977 0.052819 -1.381461
v 0.864977 0.052819 -1.680636
v 0.864977 0.603162 -1.680636
v 0.864977 1.153504 -1.680636
v 0.864977 1.153504 -1.381461
v 0.864977 1.153504 -0.210741
v 0.864977 1.153504 0.210741
v 0.864977 1.153504 1.381461
v 0.864977 1.153504 1.680636
v 0.864977 0.603162 1.680636
v -0.864977 0.052819 1.680636
v -0.864977 0.052819 1.338020
v -0.864977 0.052819 0.210741
v -0.864977 0.052819 -0.210741
v -0.864977 0.052819 -1.381461
v -0.864977 0.052819 -1.680636
v -0.864977 0.603162 -1.680636
v -0.864977 1.153504 -1.680636
v -0.864977 1.153504 -1.381461
v -0.864977 1.153504 -0.210741
v -0.864977 1.153504 0.210741
v -0.864977 1.153504 1.381461
v -0.864977 1.153504 1.680636
v -0.864977 0.603162 1.680636
vt 0.156949 0.517277
vt 0.171637 0.517438
vt 0.186325 0.517598
vt 0.156895 0.560020
vt 0.171583 0.560181
vt 0.186271 0.560341
vt 0.133591 0.623768
vt 0.153898 0.628759
vt 0.174212 0.624210
vt 0.127803 0.602447
vt 0.153786 0.770077
vt 0.098428 0.602126
vt 0.127857 0.559703
vt 0.113169 0.559543
vt 0.098481 0.559382
vt 0.084270 0.622695
vt 0.104572 0.627925
vt 0.124890 0.623615
vt 0.084022 0.773550
vt 0.104340 0.769241
vt 0.124642 0.774471
vt 0.215363 0.517915
vt 0.215309 0.560658
vt 0.215255 0.603402
vt 0.127911 0.516960
vt 0.161672 0.517329
vt 0.090400 0.768925
vt 0.090632 0.627609
vt 0.123134 0.559652
vt 0.123080 0.602395
vt 0.139958 0.628607
vt 0.161618 0.560072
vt 0.181602 0.517546
vt 0.118279 0.769556
vt 0.118511 0.628240
vt 0.103204 0.559434
vt 0.167726 0.770229
vt 0.167838 0.628911
vt 0.181548 0.560290
vt 0.154238 0.602735
vt 0.133581 0.637296
vt 0.206638 0.640810
vt 0.213103 0.640797
vt 0.180617 0.642202
vt 0.174201 0.637738
vt 0.188821 0.603113
vt 0.188875 0.560370
vt 0.124664 0.760943
vt 0.188929 0.517626
vt 0.219587 0.678130
vt 0.213122 0.678143
vt 0.206658 0.678157
vt 0.154345 0.517249
vt 0.084044 0.760023
vt 0.154291 0.559992
vt 0.130407 0.602475
vt 0.133483 0.761098
vt 0.201460 0.685495
vt 0.194582 0.685900
vt 0.187703 0.686305
vt 0.174104 0.761540
vt 0.212652 0.603373
vt 0.212705 0.560630
vt 0.124868 0.637143
vt 0.212759 0.517887
vt 0.188298 0.726028
vt 0.195176 0.725623
vt 0.202055 0.725219
vt 0.130515 0.516988
vt 0.084248 0.636222
vt 0.130461 0.559732
vt 0.144248 0.517138
vt 0.084130 0.707565
vt 0.200598 0.678481
vt 0.194136 0.678826
vt 0.187674 0.679172
vt 0.124750 0.708486
vt 0.199026 0.517737
vt 0.198973 0.560480
vt 0.174160 0.690196
vt 0.198919 0.603223
vt 0.187165 0.641852
vt 0.193628 0.641506
vt 0.200090 0.641160
vt 0.144140 0.602625
vt 0.133539 0.689754
vt 0.144194 0.559882
vt 0.140612 0.517099
vt 0.084161 0.688680
vt 0.209025 0.724809
vt 0.215903 0.724404
vt 0.222782 0.724000
vt 0.124781 0.689600
vt 0.202662 0.517776
vt 0.202608 0.560520
vt 0.174145 0.709082
vt 0.202554 0.603263
vt 0.180733 0.686714
vt 0.215308 0.684681
vt 0.208430 0.685085
vt 0.140505 0.602585
vt 0.133524 0.708640
vt 0.140559 0.559842
vt 0.184060 0.517573
vt 0.121474 0.774276
vt 0.121500 0.758925
vt 0.121583 0.708414
vt 0.121614 0.689528
vt 0.121700 0.637071
vt 0.100800 0.516664
vt 0.100746 0.559407
vt 0.170925 0.774911
vt 0.170936 0.761505
vt 0.170977 0.709047
vt 0.170992 0.690162
vt 0.171033 0.637704
vt 0.183952 0.603060
vt 0.184006 0.560317
vt 0.159214 0.517302
vt 0.087190 0.773500
vt 0.087215 0.758148
vt 0.087298 0.707637
vt 0.087329 0.688752
vt 0.087415 0.636294
vt 0.125646 0.516935
vt 0.125592 0.559679
vt 0.136640 0.774538
vt 0.136651 0.761132
vt 0.136692 0.708674
vt 0.136707 0.689788
vt 0.136749 0.637330
vt 0.159106 0.602789
vt 0.159160 0.560045
vt 0.136759 0.623925
vt 0.161564 0.602815
vt 0.125538 0.602422
vt 0.139847 0.769925
vt 0.171044 0.624298
vt 0.186217 0.603085
vt 0.100692 0.602151
vt 0.174093 0.775068
vt 0.153835 0.708861
vt 0.139895 0.708709
vt 0.167774 0.709013
vt 0.153850 0.689975
vt 0.139910 0.689823
vt 0.167789 0.690127
vt 0.139951 0.637365
vt 0.167831 0.637669
vt 0.153793 0.761319
vt 0.167733 0.761471
vt 0.139854 0.761167
vt 0.153891 0.637517
vt 0.181494 0.603033
vt 0.103150 0.602177
vt 0.171529 0.602924
vt 0.113115 0.602286
vt 0.133472 0.774626
vt 0.156842 0.602764
vt 0.104471 0.689140
vt 0.118411 0.689456
vt 0.090532 0.688824
vt 0.118497 0.636998
vt 0.090618 0.636367
vt 0.104440 0.708025
vt 0.118380 0.708341
vt 0.090501 0.707710
vt 0.104558 0.636683
vt 0.104361 0.756568
vt 0.090421 0.756253
vt 0.118300 0.756884
vt 0.087438 0.622889
vt 0.123188 0.516908
vt 0.121722 0.623666
vt 0.098535 0.516639
vt 0.103258 0.516691
vt 0.113223 0.516800
vt 0.181328 0.726438
vt 0.222187 0.684276
vt 0.219568 0.640783
vt 0.181614 0.679496
vn 0.119058 0.000000 0.992887
vn 0.119058 0.000000 0.992887
vn 0.000000 0.000000 1.000000
vn 0.000000 0.000000 1.000000
vn -0.314365 0.000000 0.949302
vn -0.314365 0.000000 0.949302
vn -0.017071 0.000000 0.999854
vn -0.017071 0.000000 0.999854
vn 0.119058 0.000000 0.992887
vn 0.119058 0.000000 0.992887
vn 0.000000 0.000000 1.000000
vn 0.000000 0.000000 1.000000
vn -0.314365 0.000000 0.949302
vn -0.314365 0.000000 0.949302
vn -0.017071 0.000000 0.999854
vn -0.017071 0.000000 0.999854
vn 0.000000 1.000000 0.000000
vn 0.000000 1.000000 0.000000
vn 0.000000 1.000000 0.000000
vn 0.000000 1.000000 0.000000
vn 0.000000 1.000000 0.000000
vn 0.000000 1.000000 0.000000
vn 0.000000 1.000000 0.000000
vn 0.000000 1.000000 0.000000
vn 0.000000 1.000000 0.000000
vn 0.000000 1.000000 0.000000
vn 0.000000 1.000000 0.000000
vn 0.000000 1.000000 0.000000
vn 0.119058 0.000000 -0.992887
vn 0.119058 0.000000 -0.992887
vn 0.000000 0.000000 -1.000000
vn 0.000000 0.000000 -1.000000
vn -0.314365 0.000000 -0.949302
vn -0.314365 0.000000 -0.949302
vn -0.017071 0.000000 -0.999854
vn -0.017071 0.000000 -0.999854
vn 0.119058 0.000000 -0.992887
vn 0.119058 0.000000 -0.992887
vn 0.000000 0.000000 -1.000000
vn 0.000000 0.000000 -1.000000
vn -0.314365 0.000000 -0.949302
vn -0.314365 0.000000 -0.949302
vn -0.017071 0.000000 -0.999854
vn -0.017071 0.000000 -0.999854
vn 0.000000 -1.000000 0.000000
vn 0.000000 -1.000000 0.000000
vn 0.000000 -1.000000 0.000000
vn 0.000000 -1.000000 0.000000
vn 0.000000 -1.000000 0.000000
vn 0.000000 -1.000000 0.000000
vn 0.000000 -1.000000 0.000000
vn 0.000000 -1.000000 0.000000
vn 0.000000 -1.000000 0.000000
vn 0.000000 -1.000000 0.000000
vn 0.000000 -1.000000 0.000000
vn 0.000000 -1.000000 0.000000
vn 1.000000 0.000000 0.000000
vn 1.000000 0.000000 0.000000
vn 1.000000 0.000000 0.000000
vn 1.000000 0.000000 0.000000
vn 1.000000 0.000000 0.000000
vn 1.000000 0.000000 0.000000
vn 1.000000 0.000000 0.000000
vn 1.000000 -0.000000 0.000000
vn 1.000000 0.000000 0.000000
vn 1.000000 0.000000 0.000000
vn 1.000000 0.000000 0.000000
vn 1.000000 0.000000 0.000000
vn 1.000000 0.000000 0.000000
vn 1.000000 0.000000 0.000000
vn 1.000000 -0.000000 0.000000
vn 1.000000 -0.000000 0.000000
vn -1.000000 0.000000 0.000000
vn -1.000000 0.000000 0.000000
vn -1.000000 0.000000 0.000000
vn -1.000000 0.000000 0.000000
vn -1.000000 0.000000 0.000000
vn -1.000000 0.000000 0.000000
vn -1.000000 0.000000 0.000000
vn -1.000000 0.000000 0.000000
vn -1.000000 0.000000 0.000000
vn -1.000000 0.000000 0.000000
vn -1.000000 0.000000 0.000000
vn -1.000000 0.000000 0.000000
vn -1.000000 0.000000 0.000000
vn -1.000000 0.000000 0.000000
vn -1.000000 0.000000 0.000000
vn -1.000000 0.000000 0.000000
vn 0.000000 -1.000000 0.000000
vn 0.000000 -1.000000 0.000000
vn 0.000000 -1.000000 0.000000
vn 0.000000 -1.000000 0.000000
vn 0.000000 -1.000000 0.000000
vn 0.000000 -1.000000 0.000000
vn 0.000000 -1.000000 0.000000
vn 0.000000 -1.000000 0.000000
vn 0.314365 0.000000 -0.949302
vn 0.314365 0.000000 -0.949302
vn 0.119058 0.000000 -0.992887
vn 0.119058 0.000000 -0.992887
vn 0.314365 0.000000 -0.949302
vn 0.314365 0.000000 -0.949302
vn 0.119058 0.000000 -0.992887
vn 0.119058 0.000000 -0.992887
vn 0.000000 1.000000 0.000000
vn 0.000000 1.000000 0.000000
vn 0.000000 1.000000 0.000000
vn 0.000000 1.000000 0.000000
vn 0.000000 1.000000 0.000000
vn 0.000000 1.000000 0.000000
vn 0.000000 1.000000 0.000000
vn 0.000000 1.000000 0.000000
vn 0.314365 0.000000 0.949302
vn 0.314365 0.000000 0.949302
vn 0.119058 0.000000 0.992887
vn 0.119058 0.000000 0.992887
vn 0.314365 0.000000 0.949302
vn 0.314365 0.000000 0.949302
vn 0.119058 0.000000 0.992887
vn 0.119058 0.000000 0.992887
vn 0.000000 -1.000000 0.000000
vn 0.000000 -1.000000 0.000000
vn 0.000000 -1.000000 0.000000
vn 0.000000 -1.000000 0.000000
vn 0.000000 0.000000 -1.000000
vn -0.119058 0.000000 -0.992887
vn -0.119058 0.000000 -0.992887
vn 0.000000 0.000000 -1.000000
vn 0.000000 0.000000 -1.000000
vn -0.119058 0.000000 -0.992887
vn -0.119058 0.000000 -0.992887
vn 0.000000 0.000000 -1.000000
vn 0.000000 1.000000 0.000000
vn 0.000000 1.000000 0.000000
vn 0.000000 1.000000 0.000000
vn 0.000000 1.000000 0.000000
vn 0.000000 0.000000 1.000000
vn -0.119058 0.000000 0.992887
vn -0.119058 0.000000 0.992887
vn 0.000000 0.000000 1.000000
vn 0.000000 0.000000 1.000000
vn -0.119058 0.000000 0.992887
vn -0.119058 0.000000 0.992887
vn 0.000000 0.000000 1.000000
vn 0.000000 1.000000 0.000000
vn 0.000000 1.000000 0.000000
vn 0.000000 1.000000 0.000000
vn 0.000000 1.000000 0.000000
vn 0.000000 1.000000 0.000000
vn 0.000000 1.000000 0.000000
vn 0.000000 1.000000 0.000000
vn 0.000000 1.000000 0.000000
vn 0.000000 1.000000 0.000000
vn 0.000000 1.000000 0.000000
vn 0.000000 1.000000 0.000000
vn 0.000000 1.000000 0.000000
vn 0.000000 1.000000 0.000000
vn 0.000000 1.000000 0.000000
vn 0.000000 1.000000 0.000000
vn 0.000000 1.000000 0.000000
vn 1.000000 0.000000 0.000000
vn 1.000000 0.000000 0.000000
vn 1.000000 0.000000 0.000000
vn 1.000000 0.000000 0.000000
vn 1.000000 0.000000 0.000000
vn 1.000000 0.000000 0.000000
vn 1.000000 0.000000 0.000000
vn 1.000000 0.000000 0.000000
vn 0.000000 -1.000000 0.000000
vn 0.000000 -1.000000 0.000000
vn 0.000000 -1.000000 0.000000
vn 0.000000 -1.000000 0.000000
vn 0.000000 -1.000000 0.000000
vn 0.000000 -1.000000 0.000000
vn 0.000000 -1.000000 0.000000
vn 0.000000 -1.000000 0.000000
vn 0.000000 -1.000000 0.000000
vn 0.000000 -1.000000 0.000000
vn 0.000000 -1.000000 0.000000
vn 0.000000 -1.000000 0.000000
vn 0.000000 -1.000000 0.000000
vn 0.000000 -1.000000 0.000000
vn 0.000000 -1.000000 0.000000
vn 0.000000 -1.000000 0.000000
vn -1.000000 0.000000 0.000000
vn -1.000000 0.000000 0.000000
vn -1.000000 0.000000 0.000000
vn -1.000000 0.000000 0.000000
vn -1.000000 0.000000 0.000000
vn -1.000000 0.000000 0.000000
vn -1.000000 0.000000 0.000000
vn -1.000000 0.000000 0.000000
vn 0.000000 1.000000 0.000000
vn 0.000000 1.000000 0.000000
vn 0.000000 1.000000 0.000000
vn 0.000000 1.000000 0.000000
vn 0.000000 1.000000 0.000000
vn 0.000000 1.000000 0.000000
vn 0.000000 1.000000 0.000000
vn 0.000000 1.000000 0.000000
vn 0.000000 1.000000 0.000000
vn 0.000000 1.000000 0.000000
vn 0.000000 1.000000 0.000000
vn 0.000000 1.000000 0.000000
vn 0.000000 1.000000 0.000000
vn 0.000000 1.000000 0.000000
vn 0.000000 1.000000 0.000000
vn 0.000000 1.000000 0.000000
vn -1.000000 0.000000 0.000000
vn -1.000000 0.000000 0.000000
vn -1.000000 0.000000 0.000000
vn -1.000000 0.000000 0.000000
vn -1.000000 0.000000 0.000000
vn -1.000000 0.000000 0.000000
vn -1.000000 0.000000 0.000000
vn -1.000000 0.000000 0.000000
vn 0.000000 -1.000000 0.000000
vn 0.000000 -1.000000 0.000000
vn 0.000000 -1.000000 0.000000
vn 0.000000 -1.000000 0.000000
vn 0.000000 -1.000000 0.000000
vn 0.000000 -1.000000 0.000000
vn 0.000000 -1.000000 0.000000
vn 0.000000 -1.000000 0.000000
vn 0.000000 -1.000000 0.000000
vn 0.000000 -1.000000 0.000000
vn 0.000000 -1.000000 0.000000
vn 0.000000 -1.000000 0.000000
vn 0.000000 -1.000000 0.000000
vn 0.000000 -1.000000 0.000000
vn 0.000000 -1.000000 0.000000
vn 0.000000 -1.000000 0.000000
vn 1.000000 -0.000000 0.000000
vn 1.000000 0.000000 0.000000
vn 1.000000 0.000000 0.000000
vn 1.000000 -0.000000 0.000000
vn 1.000000 -0.000000 0.000000
vn 1.000000 -0.000000 0.000000
vn 1.000000 -0.000000 0.000000
vn 1.000000 -0.000000 0.000000
vn 0.000000 -1.000000 0.000000
vn 0.000000 -1.000000 0.000000
vn 0.000000 -1.000000 0.000000
vn 0.000000 -1.000000 0.000000
vn 0.000000 -1.000000 0.000000
vn 0.000000 -1.000000 0.000000
vn 0.000000 -1.000000 0.000000
vn 0.000000 -1.000000 0.000000
vn 1.000000 -0.000000 0.000000
vn 1.000000 0.000000 0.000000
vn 1.000000 0.000000 0.000000
vn 1.000000 0.000000 0.000000
vn 1.000000 -0.000000 0.000000
vn 1.000000 -0.000000 0.000000
vn 1.000000 0.000000 0.000000
vn 1.000000 0.000000 0.000000
vn 0.000000 1.000000 0.000000
vn 0.000000 1.000000 0.000000
vn 0.000000 1.000000 0.000000
vn 0.000000 1.000000 0.000000
vn 0.000000 1.000000 0.000000
vn 0.000000 1.000000 0.000000
vn 0.000000 1.000000 0.000000
vn 0.000000 1.000000 0.000000
vn -1.000000 0.000000 0.000000
vn -1.000000 0.000000 0.000000
vn -1.000000 0.000000 0.000000
vn -1.000000 0.000000 0.000000
vn -1.000000 0.000000 0.000000
vn -1.000000 0.000000 0.000000
vn -1.000000 0.000000 0.000000
vn -1.000000 0.000000 0.000000
vn 0.000000 -1.000000 0.000000
vn 0.000000 -1.000000 0.000000
vn 0.000000 -1.000000 0.000000
vn 0.000000 -1.000000 0.000000
vn 0.000000 -1.000000 0.000000
vn 0.000000 -1.000000 0.000000
vn 0.000000 -1.000000 0.000000
vn 0.000000 -1.000000 0.000000
vn 0.000000 -1.000000 0.000000
vn 0.000000 -1.000000 0.000000
vn 0.000000 -1.000000 0.000000
vn 0.000000 -1.000000 0.000000
vn 0.000000 -1.000000 0.000000
vn 0.000000 -1.000000 0.000000
vn 0.000000 -1.000000 0.000000
vn 0.000000 -1.000000 0.000000
vn 0.000000 -1.000000 0.000000
vn 0.000000 -1.000000 0.000000
vn 0.000000 -1.000000 0.000000
vn 0.000000 -1.000000 0.000000
vn -0.119058 0.000000 -0.992887
vn -0.119058 0.000000 -0.992887
vn -0.314365 0.000000 -0.949302
vn -0.314365 0.000000 -0.949302
vn -0.119058 0.000000 -0.992887
vn -0.119058 0.000000 -0.992887
vn -0.314365 0.000000 -0.949302
vn -0.314365 0.000000 -0.949302
vn 0.000000 1.000000 0.000000
vn 0.000000 1.000000 0.000000
vn 0.000000 1.000000 0.000000
vn 0.000000 1.000000 0.000000
vn 0.000000 1.000000 0.000000
vn 0.000000 1.000000 0.000000
vn 0.000000 1.000000 0.000000
vn 0.000000 1.000000 0.000000
vn 0.000000 1.000000 0.000000
vn 0.000000 1.000000 0.000000
vn 0.000000 1.000000 0.000000
vn 0.000000 1.000000 0.000000
vn 0.000000 1.000000 0.000000
vn 0.000000 1.000000 0.000000
vn 0.000000 1.000000 0.000000
vn 0.000000 1.000000 0.000000
vn 0.000000 1.000000 0.000000
vn 0.000000 1.000000 0.000000
vn 0.000000 1.000000 0.000000
vn 0.000000 1.000000 0.000000
vn -0.119058 0.000000 0.992887
vn -0.119058 0.000000 0.992887
vn -0.314365 0.000000 0.949302
vn -0.314365 0.000000 0.949302
vn -0.119058 0.000000 0.992887
vn -0.119058 0.000000 0.992887
vn -0.314365 0.000000 0.949302
vn -0.314365 0.000000 0.949302
vn 0.000000 -1.000000 0.000000
vn 0.000000 -1.000000 0.000000
vn 0.000000 -1.000000 0.000000
vn 0.000000 -1.000000 0.000000
vn 0.000000 -1.000000 0.000000
vn 0.000000 -1.000000 0.000000
vn 0.000000 -1.000000 0.000000
vn 0.000000 -1.000000 0.000000
vn 0.000000 -1.000000 0.000000
vn 0.000000 -1.000000 0.000000
vn 0.000000 -1.000000 0.000000
vn 0.000000 -1.000000 0.000000
vn 0.000000 -1.000000 0.000000
vn 0.000000 -1.000000 0.000000
vn 0.000000 -1.000000 0.000000
vn 0.000000 -1.000000 0.000000
vn 0.000000 -1.000000 0.000000
vn 0.000000 -1.000000 0.000000
vn 0.000000 -1.000000 0.000000
vn 0.000000 -1.000000 0.000000
vn 0.017071 0.000000 -0.999854
vn 0.314365 0.000000 -0.949302
vn 0.314365 0.000000 -0.949302
vn 0.017071 0.000000 -0.999854
vn 0.017071 0.000000 -0.999854
vn 0.314365 0.000000 -0.949302
vn 0.314365 0.000000 -0.949302
vn 0.017071 0.000000 -0.999854
vn 0.000000 1.000000 0.000000
vn 0.000000 1.000000 0.000000
vn 0.000000 1.000000 0.000000
vn 0.000000 1.000000 0.000000
vn 0.000000 1.000000 0.000000
vn 0.000000 1.000000 0.000000
vn 0.000000 1.000000 0.000000
vn 0.000000 1.000000 0.000000
vn 0.000000 1.000000 0.000000
vn 0.000000 1.000000 0.000000
vn 0.000000 1.000000 0.000000
vn 0.000000 1.000000 0.000000
vn 0.000000 1.000000 0.000000
vn 0.000000 1.000000 0.000000
vn 0.000000 1.000000 0.000000
vn 0.000000 1.000000 0.000000
vn 0.000000 1.000000 0.000000
vn 0.000000 1.000000 0.000000
vn 0.000000 1.000000 0.000000
vn 0.000000 1.000000 0.000000
vn 0.017071 0.000000 0.999854
vn 0.314365 0.000000 0.949302
vn 0.314365 0.000000 0.949302
vn 0.017071 0.000000 0.999854
vn 0.017071 0.000000 0.999854
vn 0.314365 0.000000 0.949302
vn 0.314365 0.000000 0.949302
vn 0.017071 0.000000 0.999854
vn 1.000000 0.000000 0.000000
vn 1.000000 0.000000 0.000000
vn 1.000000 0.000000 0.000000
vn 1.000000 0.000000 0.000000
vn 0.000000 0.079119 -0.996865
vn 0.000000 0.079119 -0.996865
vn 0.000000 0.079119 -0.996865
vn 0.000000 0.079119 -0.996865
vn -0.000000 0.079119 -0.996865
vn -0.000000 0.079119 -0.996865
vn -0.000000 0.079119 -0.996865
vn -0.000000 0.079119 -0.996865
vn -1.000000 -0.000000 0.000000
vn -1.000000 -0.000000 0.000000
vn -1.000000 -0.000000 0.000000
vn -1.000000 -0.000000 0.000000
vn 0.000000 0.000000 1.000000
vn 0.000000 0.000000 1.000000
vn 0.000000 0.000000 1.000000
vn 0.000000 0.000000 1.000000
vn 0.000000 -0.000000 1.000000
vn 0.000000 -0.000000 1.000000
vn 0.000000 -0.000000 1.000000
vn 0.000000 -0.000000 1.000000
vn 0.000000 0.000000 -1.000000
vn 0.000000 0.000000 -1.000000
vn 0.000000 0.000000 -1.000000
vn 0.000000 0.000000 -1.000000
vn 0.000000 0.000000 -1.000000
vn 0.000000 0.000000 -1.000000
vn 0.000000 0.000000 -1.000000
vn 0.000000 0.000000 -1.000000
vn 1.000000 -0.000000 -0.000000
vn 1.000000 -0.000000 -0.000000
vn 1.000000 -0.000000 -0.000000
vn 1.000000 -0.000000 -0.000000
vn 0.000000 0.000000 1.000000
vn 0.000000 0.000000 1.000000
vn 0.000000 0.000000 1.000000
vn 0.000000 0.000000 1.000000
vn 0.000000 -0.000000 1.000000
vn 0.000000 -0.000000 1.000000
vn 0.000000 -0.000000 1.000000
vn 0.000000 -0.000000 1.000000
vn -1.000000 0.000000 -0.000000
vn -1.000000 0.000000 -0.000000
vn -1.000000 0.000000 -0.000000
vn -1.000000 0.000000 -0.000000
s off
g CB
usemtl lambert4SG
f 24/32/1 19/26/2 2/2/3 5/5/4
f 92/118/5 79/104/6 3/3/7 6/6/8
f 23/135/9 24/32/10 5/5/11 8/156/12
f 91/117/13 92/118/14 6/6/15 9/139/16
f 61/80/17 89/115/18 90/116/19 35/45/20
f 22/137/21 44/152/22 45/150/23 11/11/24
f 86/112/25 87/113/26 47/61/27 12/141/28
f 21/29/29 22/30/30 11/157/31 14/14/32
f 85/111/33 86/140/34 12/12/35 15/15/36
f 20/173/37 21/29/38 14/14/39 17/177/40
f 84/110/41 85/111/42 15/15/43 18/175/44
f 51/168/45 52/164/46 20/28/47 17/17/48
f 49/64/49 83/109/50 84/174/51 18/18/52
f 37/48/53 80/106/54 81/107/55 59/77/56
f 48/63/57 49/65/58 18/22/59 15/23/60
f 36/47/61 37/49/62 59/78/63 60/79/64
f 47/62/65 48/63/66 15/23/67 12/24/68
f 35/46/69 36/47/70 60/79/71 61/81/72
f 16/25/73 53/69/74 54/71/75 13/13/76
f 66/87/77 55/72/78 41/53/79 42/55/80
f 13/13/81 54/71/82 43/56/83 10/10/84
f 65/85/85 66/87/86 42/55/87 31/40/88
f 94/121/89 95/122/90 56/167/91 40/170/92
f 97/124/93 98/172/94 20/28/95 52/164/96
f 98/125/97 99/126/98 21/29/99 20/173/100
f 99/126/101 100/136/102 22/30/103 21/29/104
f 100/127/105 101/128/106 44/152/107 22/137/108
f 103/130/109 104/131/110 32/148/111 64/146/112
f 105/132/113 106/133/114 24/32/115 23/135/116
f 106/133/117 93/119/118 19/26/119 24/32/120
f 17/17/121 26/35/122 50/163/123 51/168/124
f 14/14/125 27/36/126 26/176/127 17/177/128
f 11/157/129 28/155/130 27/36/131 14/14/132
f 45/150/133 46/151/134 28/37/135 11/11/136
f 5/5/137 30/39/138 29/154/139 8/156/140
f 2/2/141 25/33/142 30/39/143 5/5/144
f 104/131/145 105/134/146 23/31/147 32/148/148
f 33/153/149 32/148/150 23/31/151 8/8/152
f 8/8/153 29/38/154 34/149/155 33/153/156
f 35/45/157 90/116/158 91/138/159 9/9/160
f 6/6/161 36/47/162 35/46/163 9/139/164
f 3/3/165 37/49/166 36/47/167 6/6/168
f 79/105/169 80/106/170 37/48/171 3/21/172
f 39/169/173 38/171/174 25/34/175 2/20/176
f 19/27/177 40/170/178 39/169/179 2/20/180
f 93/120/181 94/121/182 40/170/183 19/27/184
f 42/55/185 41/53/186 1/1/187 4/4/188
f 31/40/189 42/55/190 4/4/191 7/159/192
f 64/146/193 76/143/194 102/129/195 103/130/196
f 75/142/197 76/143/198 64/146/199 63/145/200
f 62/147/201 74/144/202 75/142/203 63/145/204
f 73/96/205 88/114/206 89/115/207 61/80/208
f 66/87/209 78/103/210 67/88/211 55/72/212
f 77/101/213 78/103/214 66/87/215 65/85/216
f 68/162/217 56/167/218 95/122/219 96/123/220
f 57/165/221 56/167/222 68/162/223 69/160/224
f 70/161/225 58/166/226 57/165/227 69/160/228
f 59/77/229 81/107/230 82/108/231 71/93/232
f 60/79/233 59/78/234 71/94/235 72/95/236
f 73/97/237 61/81/238 60/79/239 72/95/240
f 96/123/241 97/124/242 52/164/243 68/162/244
f 71/93/245 82/108/246 83/109/247 49/64/248
f 72/95/249 71/94/250 49/65/251 48/63/252
f 73/97/253 72/95/254 48/63/255 47/62/256
f 47/61/257 87/113/258 88/114/259 73/96/260
f 101/128/261 102/129/262 76/143/263 44/152/264
f 43/56/265 54/71/266 78/103/267 77/101/268
f 54/71/269 53/69/270 67/88/271 78/103/272
f 25/34/273 38/171/274 80/106/275 79/105/276
f 81/107/277 80/106/278 38/171/279 58/166/280
f 81/107/281 58/166/282 70/161/283 82/108/284
f 83/109/285 82/108/286 70/161/287 50/163/288
f 84/174/289 83/109/290 50/163/291 26/35/292
f 26/176/293 27/36/294 85/111/295 84/110/296
f 27/36/297 28/155/298 86/140/299 85/111/300
f 28/37/301 46/151/302 87/113/303 86/112/304
f 88/114/305 87/113/306 46/151/307 74/144/308
f 88/114/309 74/144/310 62/147/311 89/115/312
f 90/116/313 89/115/314 62/147/315 34/149/316
f 91/138/317 90/116/318 34/149/319 29/38/320
f 29/154/321 30/39/322 92/118/323 91/117/324
f 30/39/325 25/33/326 79/104/327 92/118/328
f 41/54/329 94/121/330 93/120/331 1/19/332
f 55/73/333 95/122/334 94/121/335 41/54/336
f 95/122/337 55/73/338 67/89/339 96/123/340
f 53/70/341 97/124/342 96/123/343 67/89/344
f 16/16/345 98/172/346 97/124/347 53/70/348
f 13/13/349 99/126/350 98/125/351 16/25/352
f 10/10/353 100/136/354 99/126/355 13/13/356
f 43/57/357 101/128/358 100/127/359 10/158/360
f 77/102/361 102/129/362 101/128/363 43/57/364
f 102/129/365 77/102/366 65/86/367 103/130/368
f 31/41/369 104/131/370 103/130/371 65/86/372
f 7/7/373 105/134/374 104/131/375 31/41/376
f 4/4/377 106/133/378 105/132/379 7/159/380
f 1/1/381 93/119/382 106/133/383 4/4/384
f 40/52/385 56/74/386 64/84/387 32/42/388
f 32/42/389 33/43/390 39/51/391 40/52/392
f 33/43/393 34/180/394 38/50/395 39/51/396
f 58/76/397 38/181/398 34/44/399 62/82/400
f 56/74/401 57/75/402 63/83/403 64/84/404
f 57/75/405 58/76/406 62/82/407 63/83/408
f 70/92/409 69/91/410 75/99/411 74/179/412
f 69/91/413 68/90/414 76/100/415 75/99/416
f 44/58/417 76/100/418 68/90/419 52/68/420
f 46/60/421 45/59/422 51/67/423 50/66/424
f 45/59/425 44/58/426 52/68/427 51/67/428
f 74/98/429 46/60/430 50/66/431 70/178/432
