# This file uses centimeters as units for non-parametric coordinates.

mtllib computertower.mtl
g default
v 0.194720 0.081451 -0.017751
v 0.000000 0.000000 0.000000
v 0.347542 0.081451 -0.618301
v -2.953742 3.183394 -1.493018
v -2.953742 3.294480 -0.614487
v 0.000000 3.183394 -1.493018
v 0.000000 3.183394 0.000000
v -2.953742 3.183394 0.000000
v -2.953742 0.000000 0.000000
v 0.000000 0.000000 -1.493018
v 0.194720 3.096993 -1.467638
v 0.194720 0.081451 -1.467638
v 0.152822 3.358445 -0.614487
v 0.112981 3.176917 -1.323955
v 0.162358 3.153187 -1.323955
v 0.177065 3.176461 -1.216685
v 0.206480 3.197964 -1.095827
v 0.221587 3.221870 -0.988557
v 0.240302 3.244862 -0.878944
v 0.171173 3.243958 -0.988557
v 0.347542 3.272044 -0.618301
v 0.189888 3.266950 -0.878944
v 0.204995 3.290856 -0.771674
v 0.255409 3.268767 -0.771674
v 0.194720 3.096993 -0.017751
v 0.227403 2.978663 -1.285994
v 0.227403 3.033081 -1.285994
v 0.194589 3.033081 -1.285994
v 0.194589 2.978663 -1.285994
v 0.085529 3.133477 -1.323955
v 0.131531 3.104407 -1.323955
v 0.085529 3.133477 -1.216685
v 0.131531 3.104407 -1.216685
v 0.246705 2.978663 -1.096710
v 0.194589 2.978663 -1.096710
v 0.194589 3.033081 -1.096710
v 0.127688 3.200190 -1.216685
v 0.246705 3.033081 -1.096710
v 0.159140 3.123054 -1.095827
v 0.113139 3.152124 -1.095827
v 0.113139 3.152124 -0.988557
v 0.159140 3.123054 -0.988557
v 0.214018 3.203269 -0.878944
v 0.168016 3.232340 -0.878944
v 0.156398 3.220578 -1.095827
v -2.953742 0.000000 -0.614487
v -2.953742 0.000000 -1.493018
vt 0.864288 0.159463
vt 0.863779 0.154003
vt 0.879944 0.162967
vt 0.876816 0.233220
vt 0.853691 0.232780
vt 0.879014 0.179193
vt 0.805355 0.073998
vt 0.805355 0.153751
vt 0.731356 0.153751
vt 0.731356 0.073998
vt 0.983881 0.153583
vt 0.983881 0.073831
vt 0.988759 0.075995
vt 0.988759 0.151543
vt 0.837368 0.232494
vt 0.838966 0.178537
vt 0.855712 0.176470
vt 0.874672 0.176965
vt 0.874785 0.175953
vt 0.878763 0.175213
vt 0.871906 0.175708
vt 0.868679 0.175183
vt 0.865796 0.174939
vt 0.862859 0.174624
vt 0.865734 0.175939
vt 0.855911 0.172639
vt 0.862807 0.175620
vt 0.859943 0.175373
vt 0.859987 0.174379
vt 0.674653 0.075555
vt 0.693769 0.075137
vt 0.694875 0.163513
vt 0.675696 0.159081
vt 0.810234 0.076039
vt 0.810234 0.151587
vt 0.839170 0.174555
vt 0.493528 0.363144
vt 0.481632 0.363226
vt 0.481583 0.356052
vt 0.493479 0.355971
vt 0.501064 0.429864
vt 0.506845 0.452411
vt 0.486461 0.460237
vt 0.478174 0.438651
vt 0.468534 0.540709
vt 0.460247 0.519123
vt 0.502797 0.502788
vt 0.511084 0.524373
vt 0.534937 0.367080
vt 0.534859 0.355687
vt 0.897647 0.756708
vt 0.881829 0.763096
vt 0.440203 0.356336
vt 0.875425 0.701687
vt 0.534101 0.490769
vt 0.495648 0.383120
vt 0.461838 0.396101
vt 0.440281 0.367729
vt 0.428385 0.367810
vt 0.544895 0.511393
vt 0.377193 0.359416
vt 0.377023 0.376701
vt 0.342949 0.376366
vt 0.343120 0.359080
vt 0.304978 0.461432
vt 0.314296 0.427447
vt 0.342444 0.427724
vt 0.342108 0.461798
vt 0.308442 0.376026
vt 0.305989 0.358715
vt 0.423068 0.380341
vt 0.448024 0.380636
vt 0.392892 0.424352
vt 0.447333 0.439183
vt 0.417753 0.432568
vt 0.422156 0.441023
vt 0.709866 0.156521
vt 0.715740 0.156416
vt 0.715722 0.154901
vt 0.721459 0.158052
vt 0.342614 0.410439
vt 0.316892 0.410186
vt 0.406834 0.465612
vt 0.430859 0.471929
vt 0.415053 0.508384
vt 0.720395 0.074550
vt 0.709848 0.155015
vt 0.868599 0.176187
vt 0.871806 0.176714
vt 0.547457 0.394354
vt 0.902623 0.153804
vt 0.879409 0.077471
vt 0.863500 0.077529
vt 0.909882 0.073831
vt 0.909882 0.153583
vt 0.836157 0.158599
vt 0.836157 0.076063
vt 0.851552 0.076063
vt 0.851552 0.155816
vt 0.902154 0.077332
vt 0.814148 0.076063
vt 0.814148 0.155816
vt 0.565587 0.517975
vt 0.516970 0.390124
vt 0.462793 0.428673
vt 0.376957 0.455739
vt 0.397245 0.353540
vt 0.859607 0.708075
vt 0.428307 0.356417
vn 0.391695 -0.914680 0.099674
vn 0.032627 -0.994318 -0.101330
vn 0.029493 -0.999548 0.005867
vn -0.010419 0.987088 -0.159841
vn -0.010419 0.987088 -0.159841
vn -0.010419 0.987088 -0.159841
vn -0.010419 0.987088 -0.159841
vn 0.031909 0.000000 0.999491
vn 0.000000 0.000000 1.000000
vn 0.000000 0.000000 1.000000
vn 0.000000 0.000000 1.000000
vn 0.129246 0.000000 -0.991613
vn 0.129246 0.000000 -0.991613
vn 0.129246 0.000000 -0.991613
vn 0.129246 0.000000 -0.991613
vn -0.010282 0.974181 0.225536
vn -0.010282 0.974181 0.225536
vn -0.010282 0.974181 0.225536
vn -0.010282 0.974181 0.225536
vn 0.404253 0.879878 -0.249790
vn 0.404253 0.879878 -0.249790
vn 0.404253 0.879878 -0.249790
vn 0.404253 0.879878 -0.249790
vn 0.404253 0.879878 -0.249790
vn 0.404253 0.879878 -0.249790
vn 0.404253 0.879878 -0.249790
vn 0.404253 0.879878 -0.249790
vn 0.404253 0.879878 -0.249790
vn 0.404253 0.879878 -0.249790
vn 0.404253 0.879878 -0.249790
vn 0.404253 0.879878 -0.249790
vn 0.404253 0.879878 -0.249790
vn 0.404253 0.879878 -0.249790
vn 0.404253 0.879878 -0.249790
vn 0.969115 0.000000 0.246610
vn 0.969115 0.000000 0.246610
vn 0.969115 0.000000 0.246610
vn 0.969115 0.000000 0.246610
vn 0.047927 0.000000 0.998851
vn 0.031909 0.000000 0.999491
vn 0.090789 0.000000 0.995870
vn 0.090789 0.000000 0.995870
vn 0.396592 0.850742 0.344896
vn 0.396592 0.850742 0.344896
vn 0.396592 0.850742 0.344896
vn 0.396592 0.850742 0.344896
vn 0.000000 0.000000 1.000000
vn 0.000000 0.000000 1.000000
vn 0.000000 0.000000 1.000000
vn 0.000000 0.000000 1.000000
vn 0.000000 0.000000 1.000000
vn 0.000000 0.000000 1.000000
vn 0.000000 0.000000 1.000000
vn 0.000000 0.000000 1.000000
vn 0.534218 0.845347 0.000000
vn 0.534218 0.845347 0.000000
vn 0.534218 0.845347 0.000000
vn 0.534218 0.845347 0.000000
vn 0.000000 1.000000 0.000000
vn 0.000000 1.000000 0.000000
vn 0.000000 1.000000 0.000000
vn 0.000000 1.000000 0.000000
vn 1.000000 0.000000 0.000000
vn 1.000000 0.000000 0.000000
vn 1.000000 0.000000 0.000000
vn 1.000000 0.000000 0.000000
vn 0.845349 -0.534215 0.000001
vn 0.845349 -0.534215 0.000001
vn 0.845349 -0.534215 0.000001
vn 0.845349 -0.534215 0.000001
vn -0.845348 0.534216 0.000000
vn -0.845348 0.534216 0.000000
vn -0.845348 0.534216 0.000000
vn -0.845348 0.534216 0.000000
vn 0.000000 -1.000000 0.000001
vn 0.000000 -1.000000 0.000001
vn 0.000000 -1.000000 0.000001
vn 0.000000 -1.000000 0.000001
vn 0.000000 0.000000 -1.000000
vn 0.000000 0.000000 -1.000000
vn 0.000000 0.000000 -1.000000
vn 0.000000 0.000000 -1.000000
vn -0.000002 0.000000 -1.000000
vn -0.000002 0.000000 -1.000000
vn -0.000002 0.000000 -1.000000
vn -0.000002 0.000000 -1.000000
vn 0.534218 0.845347 0.000000
vn 0.534218 0.845347 0.000000
vn 0.534218 0.845347 0.000000
vn 0.534218 0.845347 0.000000
vn -0.845349 0.534215 0.000000
vn -0.845349 0.534215 0.000000
vn -0.845349 0.534215 0.000000
vn -0.845349 0.534215 0.000000
vn 0.000000 0.000000 -1.000000
vn 0.000000 0.000000 -1.000000
vn 0.000000 0.000000 -1.000000
vn 0.000000 0.000000 -1.000000
vn 0.387263 0.729839 -0.563349
vn 0.387263 0.729839 -0.563349
vn 0.387263 0.729839 -0.563349
vn 0.387263 0.729839 -0.563349
vn 0.845348 -0.534216 0.000000
vn 0.845348 -0.534216 0.000000
vn 0.845348 -0.534216 0.000000
vn 0.984195 0.000000 -0.177086
vn 0.984195 0.000000 -0.177086
vn 0.984195 0.000000 -0.177086
vn 0.984195 0.000000 -0.177086
vn 0.984195 0.000000 -0.177086
vn 0.000000 0.000000 1.000000
vn 0.000000 0.000000 1.000000
vn 0.000000 0.000000 1.000000
vn 0.000000 0.000000 1.000000
vn 0.845348 -0.534216 0.000000
vn 0.845348 -0.534216 0.000000
vn 0.845348 -0.534216 0.000000
vn 0.845348 -0.534216 0.000000
vn 0.000000 0.000000 1.000000
vn 0.000001 0.000000 1.000000
vn 0.000001 0.000000 1.000000
vn 0.000001 0.000000 1.000000
vn -0.845348 0.534217 0.000000
vn -0.845348 0.534217 0.000000
vn -0.845348 0.534217 0.000000
vn 0.984195 0.000000 -0.177086
vn 0.984195 0.000000 -0.177086
vn 0.984195 0.000000 -0.177086
vn 0.392758 -0.916923 -0.070669
vn 0.033616 -0.997165 0.067313
vn 0.004399 -0.999987 0.002768
vn 0.000000 -1.000000 0.000000
vn 0.000000 0.000000 -1.000000
vn 0.000000 0.000000 -1.000000
vn 0.000000 0.000000 -1.000000
vn 0.000000 0.000000 -1.000000
vn -1.000000 0.000000 0.000000
vn -1.000000 0.000000 0.000000
vn -1.000000 0.000000 0.000000
vn -1.000000 0.000000 0.000000
vn 0.000000 -1.000000 0.000000
vn -1.000000 0.000000 0.000000
vn -1.000000 0.000000 0.000000
vn -1.000000 0.000000 0.000000
vn -1.000000 0.000000 0.000000
vn 0.404253 0.879878 -0.249790
s 1
g pCube37
usemtl lambert2SG
f 1/1/1 2/2/2 3/3/3
s off
f 6/6/4 4/4/5 5/5/6 13/17/7
f 2/7/8 7/8/9 8/9/10 9/10/11
f 10/11/12 6/12/13 11/13/14 12/14/15
f 5/5/16 8/15/17 7/16/18 13/17/19
s 2
f 6/6/20 13/17/21 14/18/22
f 24/29/23 21/26/24 18/23/25 19/24/26
f 6/6/20 14/18/22 11/20/27
f 14/18/22 15/19/28 11/20/27
f 17/22/29 11/20/27 15/19/28 16/21/30
f 16/21/30 37/89/31 45/88/32 17/22/29
f 22/27/33 19/24/26 18/23/25 20/25/34
s off
f 1/30/35 3/31/36 21/32/37 25/33/38
f 7/8/39 2/7/40 1/34/41 25/35/42
f 25/36/43 21/26/44 13/17/45 7/16/46
f 26/37/47 27/38/48 28/39/49 29/40/50
f 15/41/51 14/42/52 30/43/53 31/44/54
f 31/45/55 30/46/56 32/47/57 33/48/58
f 34/49/59 26/37/60 29/40/61 35/50/62
f 29/51/63 28/52/64 36/108/65 35/54/66
f 14/42/67 37/55/68 32/47/69 30/43/70
f 16/56/71 15/41/72 31/44/73 33/57/74
f 27/38/75 38/58/76 36/53/77 28/39/78
f 38/58/79 34/59/80 35/109/81 36/53/82
f 37/55/83 16/60/84 33/48/85 32/47/86
f 39/61/87 40/62/88 41/63/89 42/64/90
f 18/65/91 17/66/92 39/67/93 42/68/94
f 20/69/95 18/70/96 42/64/97 41/63/98
f 24/76/99 43/71/100 44/72/101 23/74/102
f 22/73/103 23/107/104 44/75/105
s 4
f 21/32/106 38/77/107 27/78/108 26/79/109 11/80/110
s off
f 40/81/111 39/67/112 17/66/113 45/82/114
f 41/63/115 40/81/116 45/82/117 20/69/118
s 5
f 44/75/119 43/83/120 22/73/121
f 22/73/121 43/83/120 19/106/122
s off
f 43/105/123 24/85/124 19/84/125
s 4
f 21/32/106 3/31/126 12/86/127 11/80/110 26/79/109 34/87/128 38/77/107
s 1
f 12/90/129 3/103/3 10/104/130
f 46/92/131 3/3/3 2/2/2
f 10/91/130 3/3/3 46/92/131
f 9/93/132 46/92/131 2/2/2
s off
f 4/94/133 6/12/134 10/11/135 47/95/136
f 5/96/137 46/97/138 9/98/139 8/99/140
s 1
f 47/100/141 10/91/130 46/92/131
s off
f 47/101/142 46/97/143 5/96/144 4/102/145
s 2
f 20/25/34 13/17/21 23/28/146 22/27/33
f 23/28/146 13/17/21 21/26/24 24/29/23
f 21/26/24 11/20/27 17/22/29 18/23/25
f 37/89/31 14/18/22 13/17/21 20/25/34 45/88/32
