# This file uses centimeters as units for non-parametric coordinates.

mtllib Cushion.mtl
g default
v 150.117860 -4.420668 -66.563200
v 162.038151 -4.420668 -67.026279
v 173.958442 -4.420668 -66.563200
v 147.406678 0.000000 -63.119103
v 162.038151 0.000000 -63.687504
v 176.669623 0.000000 -63.119103
v 150.117860 4.420668 -66.563200
v 162.038151 4.420668 -67.026279
v 173.958442 4.420668 -66.563200
v 151.372195 4.420668 -81.705917
v 162.038151 4.420669 -81.705917
v 172.704106 4.420668 -81.705917
v 150.117860 4.420668 -96.848635
v 162.038151 4.420668 -96.385556
v 173.958442 4.420668 -96.848635
v 147.406678 0.000000 -100.292732
v 162.038151 0.000000 -99.724331
v 176.669623 0.000000 -100.292732
v 150.117860 -4.420668 -96.848635
v 162.038151 -4.420668 -96.385556
v 173.958442 -4.420668 -96.848635
v 151.372193 -4.420668 -81.705917
v 162.038151 -4.420669 -81.705917
v 172.704108 -4.420668 -81.705917
v 175.415288 0.000000 -81.705917
v 148.661012 0.000000 -81.705917
v 148.934940 3.468478 -65.060503
v 162.038151 3.468478 -65.569534
v 175.141361 3.468478 -65.060503
v 173.887026 3.468478 -81.705917
v 175.141361 3.468478 -98.351332
v 162.038151 3.468478 -97.842300
v 148.934940 3.468478 -98.351332
v 150.189276 3.468478 -81.705917
v 148.934940 -3.468478 -65.060503
v 162.038151 -3.468478 -65.569534
v 175.141361 -3.468478 -65.060503
v 173.887026 -3.468478 -81.705917
v 175.141361 -3.468478 -98.351332
v 162.038151 -3.468478 -97.842300
v 148.934940 -3.468478 -98.351332
v 150.189276 -3.468478 -81.705917
v 173.958442 4.420668 -95.334362
v 175.141361 3.468478 -96.686791
v 176.669621 0.000000 -98.434050
v 175.141361 -3.468478 -96.686791
v 173.958442 -4.420668 -95.334362
v 150.117860 4.420668 -95.334362
v 148.934940 3.468478 -96.686791
v 147.406678 0.000000 -98.434050
v 148.934940 -3.468478 -96.686791
v 150.117860 -4.420668 -95.334362
v 173.958442 4.420668 -68.077473
v 175.141361 3.468478 -66.725044
v 176.669623 0.000000 -64.977785
v 175.141361 -3.468478 -66.725044
v 173.958442 -4.420668 -68.077473
v 150.117860 4.420668 -68.077473
v 148.934940 3.468478 -66.725044
v 147.406678 0.000000 -64.977785
v 148.934940 -3.468478 -66.725044
v 150.117860 -4.420668 -68.077473
v 172.766413 4.420668 -96.848635
v 173.831039 3.468478 -98.351332
v 175.206475 0.000000 -100.292732
v 173.831039 -3.468478 -98.351332
v 172.766413 -4.420668 -96.848635
v 151.309889 4.420668 -96.848635
v 150.245262 3.468478 -98.351332
v 148.869826 0.000000 -100.292730
v 150.245262 -3.468478 -98.351332
v 151.309889 -4.420668 -96.848635
v 172.766413 4.420668 -66.563200
v 173.831039 3.468478 -65.060503
v 175.206475 0.000000 -63.119103
v 173.831039 -3.468478 -65.060503
v 172.766413 -4.420668 -66.563200
v 151.309889 4.420668 -66.563200
v 150.245262 3.468478 -65.060503
v 148.869826 0.000000 -63.119104
v 150.245262 -3.468478 -65.060503
v 151.309889 -4.420668 -66.563200
vt 0.481810 0.949215
vt 0.453074 0.949020
vt 0.451090 0.938940
vt 0.482085 0.939072
vt 0.482359 0.928961
vt 0.453281 0.928880
vt 0.454140 0.927809
vt 0.482388 0.927905
vt 0.519451 0.948932
vt 0.510552 0.949187
vt 0.513082 0.939120
vt 0.521894 0.939131
vt 0.520319 0.929302
vt 0.511437 0.929049
vt 0.510637 0.927973
vt 0.519364 0.927985
vt 0.575590 0.970869
vt 0.575600 0.968482
vt 0.576734 0.946998
vt 0.610018 0.946999
vt 0.609934 0.968359
vt 0.579024 0.970869
vt 0.575769 0.925514
vt 0.575779 0.923127
vt 0.579212 0.923127
vt 0.610102 0.925640
vt 0.643302 0.947001
vt 0.644267 0.968485
vt 0.644257 0.970872
vt 0.640824 0.970872
vt 0.641012 0.923130
vt 0.644446 0.923130
vt 0.644436 0.925517
vt 0.523860 0.884790
vt 0.523703 0.885797
vt 0.514854 0.884717
vt 0.514972 0.883620
vt 0.522911 0.895017
vt 0.520494 0.904467
vt 0.511680 0.904559
vt 0.514112 0.894721
vt 0.483634 0.881964
vt 0.483601 0.883186
vt 0.452271 0.884535
vt 0.452212 0.883438
vt 0.483311 0.893896
vt 0.483027 0.904333
vt 0.454367 0.904392
vt 0.452469 0.894542
vt 0.540785 0.921102
vt 0.540825 0.919311
vt 0.541970 0.903199
vt 0.566942 0.903420
vt 0.566586 0.919445
vt 0.543361 0.921124
vt 0.541541 0.887073
vt 0.541580 0.885282
vt 0.544156 0.885305
vt 0.567297 0.887395
vt 0.591913 0.903642
vt 0.592342 0.919768
vt 0.592303 0.921558
vt 0.589727 0.921536
vt 0.590522 0.885716
vt 0.593098 0.885739
vt 0.593058 0.887530
vt 0.482969 0.906475
vt 0.454256 0.906535
vt 0.455114 0.905460
vt 0.482998 0.905403
vt 0.482416 0.926848
vt 0.453376 0.926731
vt 0.451413 0.916631
vt 0.482692 0.916680
vt 0.520501 0.907035
vt 0.511675 0.906702
vt 0.510875 0.905622
vt 0.519556 0.905734
vt 0.520293 0.926669
vt 0.511459 0.926900
vt 0.513970 0.916812
vt 0.522852 0.916852
vt 0.481175 0.972630
vt 0.450078 0.971072
vt 0.450426 0.961019
vt 0.481467 0.961847
vt 0.481752 0.951358
vt 0.453145 0.951164
vt 0.453912 0.950098
vt 0.481781 0.950287
vt 0.521195 0.970204
vt 0.512351 0.971253
vt 0.512549 0.961199
vt 0.521426 0.960954
vt 0.519105 0.951501
vt 0.510365 0.951330
vt 0.509655 0.950260
vt 0.518337 0.950225
vt 0.444190 0.948714
vt 0.442279 0.938900
vt 0.444387 0.929082
vt 0.445413 0.927770
vt 0.444556 0.926449
vt 0.442530 0.916619
vt 0.445413 0.906817
vt 0.446429 0.905521
vt 0.445560 0.904249
vt 0.443656 0.894787
vt 0.443364 0.885564
vt 0.443262 0.884557
vt 0.441293 0.969973
vt 0.441563 0.960723
vt 0.444397 0.951284
vt 0.445234 0.950013
vt 0.512433 0.972350
vt 0.521334 0.971211
vt 0.481142 0.973852
vt 0.449937 0.972168
vt 0.441100 0.970978
vn 0.038108 -0.000000 0.999274
vn 0.031924 -0.574729 0.817721
vn 0.000000 -0.595034 0.803701
vn 0.000000 0.000000 1.000000
vn -0.038108 0.000000 0.999274
vn -0.031924 -0.574729 0.817721
vn 0.000000 -0.579048 0.815293
vn 0.000000 0.000000 1.000000
vn 0.022001 0.837372 0.546191
vn 0.031924 0.574729 0.817721
vn 0.000000 0.595034 0.803701
vn 0.000000 0.837048 0.547130
vn -0.022001 0.837372 0.546191
vn -0.031924 0.574729 0.817721
vn 0.000000 0.579048 0.815293
vn 0.000000 0.844697 0.535245
vn 0.000000 1.000000 0.000000
vn 0.000000 1.000000 0.000000
vn 0.000000 1.000000 0.000000
vn 0.000000 1.000000 0.000000
vn -0.000000 1.000000 -0.000000
vn 0.000000 1.000000 0.000000
vn 0.000000 1.000000 0.000000
vn 0.000000 1.000000 0.000000
vn 0.000000 1.000000 0.000000
vn 0.000000 1.000000 0.000000
vn 0.000000 1.000000 0.000000
vn 0.000000 1.000000 0.000000
vn -0.000000 1.000000 -0.000000
vn 0.000000 1.000000 0.000000
vn -0.000000 1.000000 -0.000000
vn -0.000000 1.000000 -0.000000
vn -0.000000 1.000000 -0.000000
vn -0.000000 1.000000 -0.000000
vn 0.000000 1.000000 0.000000
vn 0.000000 1.000000 0.000000
vn 0.000000 1.000000 0.000000
vn 0.000000 1.000000 0.000000
vn 0.000000 1.000000 0.000000
vn -0.000000 1.000000 -0.000000
vn 0.000000 0.844697 -0.535245
vn 0.022001 0.837372 -0.546191
vn 0.031924 0.574729 -0.817721
vn 0.000001 0.579048 -0.815293
vn 0.000000 0.837048 -0.547130
vn -0.022001 0.837372 -0.546191
vn -0.031924 0.574729 -0.817721
vn -0.000000 0.595034 -0.803701
vn 0.000002 0.000000 -1.000000
vn 0.038108 0.000000 -0.999274
vn 0.031924 -0.574729 -0.817721
vn 0.000001 -0.579048 -0.815293
vn -0.000000 0.000000 -1.000000
vn -0.038107 0.000000 -0.999274
vn -0.031924 -0.574729 -0.817721
vn 0.000000 -0.595034 -0.803701
vn 0.000000 -1.000000 0.000000
vn 0.000000 -1.000000 0.000000
vn 0.000000 -1.000000 0.000000
vn 0.000000 -1.000000 0.000000
vn 0.000000 -1.000000 0.000000
vn 0.000000 -1.000000 0.000000
vn 0.000000 -1.000000 0.000000
vn 0.000000 -1.000000 0.000000
vn 0.000000 -1.000000 0.000000
vn 0.000000 -1.000000 0.000000
vn 0.000000 -1.000000 0.000000
vn 0.000000 -1.000000 0.000000
vn 0.000000 -1.000000 0.000000
vn 0.000000 -1.000000 0.000000
vn 0.000000 -1.000000 0.000000
vn 0.000000 -1.000000 0.000000
vn 0.000000 -1.000000 0.000000
vn 0.000000 -1.000000 0.000000
vn 0.000000 -1.000000 0.000000
vn 0.000000 -1.000000 0.000000
vn 0.000000 -1.000000 0.000000
vn 0.000000 -1.000000 0.000000
vn 0.000000 -1.000000 0.000000
vn 0.000000 -1.000000 0.000000
vn 0.997569 -0.000000 0.069680
vn 0.877159 -0.475946 0.063778
vn 0.872844 -0.488000 0.000000
vn 1.000000 -0.000000 0.000000
vn 0.997569 0.000000 -0.069680
vn 0.877159 -0.475946 -0.063778
vn 0.866611 -0.498984 0.000000
vn 1.000000 0.000000 0.000000
vn 0.644303 0.762947 0.052777
vn 0.877159 0.475946 0.063778
vn 0.872844 0.488000 0.000000
vn 0.627043 0.778984 0.000000
vn 0.644303 0.762947 -0.052777
vn 0.877159 0.475946 -0.063778
vn 0.866611 0.498984 0.000000
vn 0.646508 0.762907 0.000000
vn -0.997569 0.000000 0.069680
vn -0.877159 -0.475946 0.063778
vn -0.866611 -0.498984 0.000000
vn -1.000000 0.000000 0.000000
vn -0.997569 0.000000 -0.069680
vn -0.877159 -0.475946 -0.063778
vn -0.872843 -0.488001 0.000000
vn -1.000000 0.000000 0.000000
vn -0.644303 0.762947 0.052777
vn -0.877159 0.475946 0.063778
vn -0.866611 0.498984 0.000000
vn -0.646508 0.762907 0.000000
vn -0.644303 0.762947 -0.052777
vn -0.877159 0.475946 -0.063778
vn -0.872843 0.488001 0.000000
vn -0.627043 0.778984 0.000000
vn 0.031924 0.574729 0.817721
vn 0.038108 -0.000000 0.999274
vn 0.000000 0.000000 1.000000
vn 0.000000 0.595034 0.803701
vn -0.031924 0.574729 0.817721
vn -0.038108 0.000000 0.999274
vn 0.000000 0.000000 1.000000
vn 0.000000 0.579048 0.815293
vn 0.877159 0.475946 -0.063778
vn 0.997569 0.000000 -0.069680
vn 1.000000 0.000000 0.000000
vn 0.866611 0.498984 0.000000
vn 0.877159 0.475946 0.063778
vn 0.997569 -0.000000 0.069680
vn 1.000000 -0.000000 0.000000
vn 0.872844 0.488000 0.000000
vn -0.000000 0.595034 -0.803701
vn -0.031924 0.574729 -0.817721
vn -0.038107 0.000000 -0.999274
vn -0.000000 0.000000 -1.000000
vn 0.000001 0.579048 -0.815293
vn 0.031924 0.574729 -0.817721
vn 0.038108 0.000000 -0.999274
vn 0.000002 0.000000 -1.000000
vn -0.877159 0.475946 0.063778
vn -0.997569 0.000000 0.069680
vn -1.000000 0.000000 0.000000
vn -0.866611 0.498984 0.000000
vn -0.877159 0.475946 -0.063778
vn -0.997569 0.000000 -0.069680
vn -1.000000 0.000000 0.000000
vn -0.872843 0.488001 0.000000
vn 0.031924 -0.574729 0.817721
vn 0.022001 -0.837372 0.546191
vn 0.000000 -0.837048 0.547130
vn 0.000000 -0.595034 0.803701
vn -0.031924 -0.574729 0.817721
vn -0.022001 -0.837372 0.546191
vn 0.000000 -0.844697 0.535245
vn 0.000000 -0.579048 0.815293
vn 0.877159 -0.475946 -0.063778
vn 0.644303 -0.762947 -0.052777
vn 0.646508 -0.762907 0.000000
vn 0.866611 -0.498984 0.000000
vn 0.877159 -0.475946 0.063778
vn 0.644303 -0.762947 0.052777
vn 0.627043 -0.778985 0.000000
vn 0.872844 -0.488000 0.000000
vn 0.000000 -0.595034 -0.803701
vn -0.031924 -0.574729 -0.817721
vn -0.022001 -0.837372 -0.546191
vn 0.000000 -0.837048 -0.547130
vn 0.000001 -0.579048 -0.815293
vn 0.031924 -0.574729 -0.817721
vn 0.022001 -0.837372 -0.546191
vn 0.000000 -0.844697 -0.535245
vn -0.877159 -0.475946 0.063778
vn -0.644303 -0.762947 0.052777
vn -0.646508 -0.762907 0.000000
vn -0.866611 -0.498984 0.000000
vn -0.877159 -0.475946 -0.063778
vn -0.644303 -0.762947 -0.052777
vn -0.627043 -0.778985 0.000000
vn -0.872843 -0.488001 0.000000
vn 0.866611 0.498984 0.000000
vn 0.877159 0.475946 0.063778
vn 0.644303 0.762947 0.052777
vn 0.646508 0.762907 0.000000
vn 1.000000 0.000000 0.000000
vn 0.997569 -0.000000 0.069680
vn 0.877159 0.475946 0.063778
vn 0.866611 0.498984 0.000000
vn 0.866611 -0.498984 0.000000
vn 0.877159 -0.475946 0.063778
vn 0.997569 -0.000000 0.069680
vn 1.000000 0.000000 0.000000
vn 0.646508 -0.762907 0.000000
vn 0.644303 -0.762947 0.052777
vn 0.877159 -0.475946 0.063778
vn 0.866611 -0.498984 0.000000
vn -0.872843 0.488001 0.000000
vn -0.877159 0.475946 0.063778
vn -0.644303 0.762947 0.052777
vn -0.627043 0.778984 0.000000
vn -1.000000 0.000000 0.000000
vn -0.997569 0.000000 0.069680
vn -0.877159 0.475946 0.063778
vn -0.872843 0.488001 0.000000
vn -0.872843 -0.488001 0.000000
vn -0.877159 -0.475946 0.063778
vn -0.997569 0.000000 0.069680
vn -1.000000 0.000000 0.000000
vn -0.627043 -0.778985 0.000000
vn -0.644303 -0.762947 0.052777
vn -0.877159 -0.475946 0.063778
vn -0.872843 -0.488001 0.000000
vn 0.872843 0.488001 0.000000
vn 0.877159 0.475946 -0.063778
vn 0.644303 0.762947 -0.052777
vn 0.627043 0.778984 0.000000
vn 1.000000 0.000000 0.000000
vn 0.997569 0.000000 -0.069680
vn 0.877159 0.475946 -0.063778
vn 0.872843 0.488001 0.000000
vn 0.872843 -0.488001 0.000000
vn 0.877159 -0.475946 -0.063778
vn 0.997569 0.000000 -0.069680
vn 1.000000 0.000000 0.000000
vn 0.627043 -0.778985 0.000000
vn 0.644303 -0.762947 -0.052777
vn 0.877159 -0.475946 -0.063778
vn 0.872843 -0.488001 0.000000
vn -0.866611 0.498984 0.000000
vn -0.877159 0.475946 -0.063778
vn -0.644303 0.762947 -0.052777
vn -0.646508 0.762907 0.000000
vn -1.000000 0.000000 0.000000
vn -0.997569 0.000000 -0.069680
vn -0.877159 0.475946 -0.063778
vn -0.866611 0.498984 0.000000
vn -0.866611 -0.498984 0.000000
vn -0.877159 -0.475946 -0.063778
vn -0.997569 0.000000 -0.069680
vn -1.000000 0.000000 0.000000
vn -0.646508 -0.762907 0.000000
vn -0.644303 -0.762947 -0.052777
vn -0.877159 -0.475946 -0.063778
vn -0.866611 -0.498984 0.000000
vn -0.031924 0.574729 -0.817721
vn -0.022001 0.837372 -0.546191
vn 0.000000 0.844697 -0.535245
vn 0.000000 0.579048 -0.815293
vn -0.038107 0.000000 -0.999274
vn -0.031924 0.574729 -0.817721
vn 0.000000 0.579048 -0.815293
vn 0.000000 0.000000 -1.000000
vn -0.031924 -0.574729 -0.817721
vn -0.038107 0.000000 -0.999274
vn 0.000000 0.000000 -1.000000
vn 0.000000 -0.579048 -0.815293
vn -0.022001 -0.837372 -0.546191
vn -0.031924 -0.574729 -0.817721
vn 0.000000 -0.579048 -0.815293
vn 0.000000 -0.844697 -0.535245
vn 0.031924 0.574729 -0.817721
vn 0.022001 0.837372 -0.546191
vn 0.000000 0.837048 -0.547130
vn -0.000000 0.595034 -0.803701
vn 0.038108 0.000000 -0.999274
vn 0.031924 0.574729 -0.817721
vn -0.000000 0.595034 -0.803701
vn -0.000000 0.000000 -1.000000
vn 0.031924 -0.574729 -0.817721
vn 0.038108 0.000000 -0.999274
vn -0.000000 0.000000 -1.000000
vn 0.000000 -0.595034 -0.803701
vn 0.022001 -0.837372 -0.546191
vn 0.031924 -0.574729 -0.817721
vn 0.000000 -0.595034 -0.803701
vn 0.000000 -0.837048 -0.547130
vn 0.000000 0.595034 0.803701
vn -0.031924 0.574729 0.817721
vn -0.022001 0.837372 0.546191
vn 0.000000 0.837048 0.547130
vn 0.000000 0.000000 1.000000
vn -0.038108 0.000000 0.999274
vn -0.031924 0.574729 0.817721
vn 0.000000 0.595034 0.803701
vn 0.000000 -0.595034 0.803701
vn -0.031924 -0.574729 0.817721
vn -0.038108 0.000000 0.999274
vn 0.000000 0.000000 1.000000
vn 0.000000 -0.837048 0.547130
vn -0.022001 -0.837372 0.546191
vn -0.031924 -0.574729 0.817721
vn 0.000000 -0.595034 0.803701
vn 0.000001 0.579048 0.815293
vn 0.031924 0.574729 0.817721
vn 0.022001 0.837372 0.546191
vn 0.000000 0.844697 0.535245
vn 0.000002 -0.000000 1.000000
vn 0.038108 -0.000000 0.999274
vn 0.031924 0.574729 0.817721
vn 0.000001 0.579048 0.815293
vn 0.000001 -0.579048 0.815293
vn 0.031924 -0.574729 0.817721
vn 0.038108 -0.000000 0.999274
vn 0.000002 -0.000000 1.000000
vn 0.000000 -0.844697 0.535245
vn 0.022001 -0.837372 0.546191
vn 0.031924 -0.574729 0.817721
vn 0.000001 -0.579048 0.815293
s off
g Cushions:Cusion
usemtl lambert5SG
f 80/1/1 81/2/2 36/3/3 5/4/4
f 75/5/5 76/6/6 37/7/7 6/8/8
f 78/9/9 79/10/10 28/11/11 8/12/12
f 73/13/13 74/14/14 29/15/15 9/16/16
f 7/17/17 78/18/18 8/19/19 11/20/20 10/21/21 58/22/22
f 8/19/23 73/23/24 9/24/25 53/25/26 12/26/27 11/20/28
f 10/21/29 11/20/30 14/27/31 68/28/32 13/29/33 48/30/34
f 11/20/35 12/26/36 43/31/37 15/32/38 63/33/39 14/27/40
f 13/34/41 68/35/42 69/36/43 33/37/44
f 14/38/45 63/39/46 64/40/47 32/41/48
f 16/42/49 70/43/50 71/44/51 41/45/52
f 17/46/53 65/47/54 66/48/55 40/49/56
f 19/50/57 72/51/58 20/52/59 23/53/60 22/54/61 52/55/62
f 20/52/63 67/56/64 21/57/65 47/58/66 24/59/67 23/53/68
f 22/54/69 23/53/70 2/60/71 82/61/72 1/62/73 62/63/74
f 23/53/75 24/59/76 57/64/77 3/65/78 77/66/79 2/60/80
f 45/67/81 46/68/82 39/69/83 18/70/84
f 55/71/85 56/72/86 38/73/87 25/74/88
f 43/75/89 44/76/90 31/77/91 15/78/92
f 53/79/93 54/80/94 30/81/95 12/82/96
f 50/83/97 51/84/98 42/85/99 26/86/100
f 60/87/101 61/88/102 35/89/103 4/90/104
f 48/91/105 49/92/106 34/93/107 10/94/108
f 58/95/109 59/96/110 27/97/111 7/98/112
f 79/10/113 80/1/114 5/4/115 28/11/116
f 74/14/117 75/5/118 6/8/119 29/15/120
f 54/80/121 55/71/122 25/74/123 30/81/124
f 44/76/125 45/67/126 18/70/127 31/77/128
f 32/41/129 64/40/130 65/47/131 17/46/132
f 33/37/133 69/36/134 70/43/135 16/42/136
f 49/92/137 50/83/138 26/86/139 34/93/140
f 59/96/141 60/87/142 4/90/143 27/97/144
f 81/2/145 82/99/146 2/100/147 36/3/148
f 76/6/149 77/101/150 3/102/151 37/7/152
f 56/72/153 57/103/154 24/104/155 38/73/156
f 46/68/157 47/105/158 21/106/159 39/69/160
f 40/49/161 66/48/162 67/107/163 20/108/164
f 41/45/165 71/44/166 72/109/167 19/110/168
f 51/84/169 52/111/170 22/112/171 42/85/172
f 61/88/173 62/113/174 1/114/175 35/89/176
f 30/81/177 44/76/178 43/75/179 12/82/180
f 25/74/181 45/67/182 44/76/183 30/81/184
f 38/73/185 46/68/186 45/67/187 25/74/188
f 24/104/189 47/105/190 46/68/191 38/73/192
f 33/115/193 49/92/194 48/91/195 13/116/196
f 16/117/197 50/83/198 49/92/199 33/115/200
f 41/118/201 51/84/202 50/83/203 16/117/204
f 19/119/205 52/111/206 51/84/207 41/118/208
f 29/15/209 54/80/210 53/79/211 9/16/212
f 6/8/213 55/71/214 54/80/215 29/15/216
f 37/7/217 56/72/218 55/71/219 6/8/220
f 3/102/221 57/103/222 56/72/223 37/7/224
f 34/93/225 59/96/226 58/95/227 10/94/228
f 26/86/229 60/87/230 59/96/231 34/93/232
f 42/85/233 61/88/234 60/87/235 26/86/236
f 22/112/237 62/113/238 61/88/239 42/85/240
f 64/40/241 63/39/242 15/78/243 31/77/244
f 65/47/245 64/40/246 31/77/247 18/70/248
f 66/48/249 65/47/250 18/70/251 39/69/252
f 67/107/253 66/48/254 39/69/255 21/106/256
f 69/36/257 68/35/258 14/38/259 32/41/260
f 70/43/261 69/36/262 32/41/263 17/46/264
f 71/44/265 70/43/266 17/46/267 40/49/268
f 72/109/269 71/44/270 40/49/271 20/108/272
f 28/11/273 74/14/274 73/13/275 8/12/276
f 5/4/277 75/5/278 74/14/279 28/11/280
f 36/3/281 76/6/282 75/5/283 5/4/284
f 2/100/285 77/101/286 76/6/287 36/3/288
f 27/97/289 79/10/290 78/9/291 7/98/292
f 4/90/293 80/1/294 79/10/295 27/97/296
f 35/89/297 81/2/298 80/1/299 4/90/300
f 1/114/301 82/99/302 81/2/303 35/89/304
