# This file uses centimeters as units for non-parametric coordinates.

mtllib diningchair2.mtl
g default
v -1.155487 2.210081 1.155487
v -0.975020 2.210081 1.155487
v 1.155487 2.210081 1.155487
v 1.155487 2.040180 1.155487
v 1.155487 2.040180 -1.155487
v 1.155487 2.210081 -1.155487
v 0.991824 2.040180 1.155487
v 0.991824 -0.031078 1.155487
v 1.155487 -0.031078 1.155487
v 0.991824 2.038927 0.944961
v 0.991824 2.038986 -0.948733
v 1.155487 2.038987 -0.948003
v 1.155487 2.038986 0.943875
v 1.155487 -0.031078 0.943875
v 0.991824 -0.031078 0.943875
v -0.975020 2.210081 -1.155487
v -1.155487 2.210081 -1.155487
v -1.155487 2.040181 1.155487
v -0.975706 2.040180 1.155487
v -0.975706 2.040180 -1.155487
v 0.991824 2.040180 -1.155487
v 0.991824 -0.031079 -0.948003
v 1.155487 -0.031079 -0.948003
v -1.155487 -0.031078 1.155487
v -0.976393 -0.031079 1.155487
v -1.155487 2.038987 0.943875
v -1.155487 2.038986 -0.948003
v -0.975707 2.038986 -0.948734
v -0.975707 2.038927 0.944961
v -1.155487 2.040180 -1.155487
v 1.155487 -0.031079 -1.155487
v 0.991824 -0.031079 -1.155487
v -0.976393 -0.031079 0.943875
v -1.155487 -0.031078 0.943875
v -1.155487 -0.031079 -0.948003
v -0.976393 -0.031078 -0.948003
v -0.976393 -0.031078 -1.155487
v -1.155487 -0.031079 -1.155487
v 1.155487 2.210081 -0.948004
v -0.975020 2.210081 -0.948003
v -1.155487 2.210081 -0.948004
v 1.155487 2.210081 0.943876
v -0.975020 2.210081 0.943876
v -1.155487 2.210081 0.943876
v 1.188085 2.210081 1.155487
v 1.220677 2.177489 1.155487
v 1.188085 2.210081 0.943876
v 1.220677 2.177489 0.943876
v 1.220677 2.177489 -0.948004
v 1.188085 2.210081 -0.948004
v 1.220677 2.177489 -1.155487
v 1.188085 2.210081 -1.155487
v -1.026133 4.530416 1.155487
v -1.091965 4.693324 1.155487
v -1.160151 4.704298 1.155487
v -1.026133 4.530416 0.943876
v -1.091965 4.693324 0.943876
v -1.160151 4.704298 0.943876
v -1.188183 4.488735 -1.155487
v -1.216129 4.663849 -1.155487
v -1.160151 4.704298 -1.155487
v -1.160151 4.704298 -0.948003
v -1.216129 4.663849 -0.948004
v -1.188183 4.488735 -0.948004
v -1.091965 4.693324 -1.155487
v -1.026133 4.530416 -1.155487
v -1.026133 4.530416 -0.948003
v -1.091965 4.693324 -0.948003
v -1.216129 4.663849 0.943876
v -1.188183 4.488735 0.943876
v -1.216129 4.663849 1.155487
v -1.188183 4.488735 1.155487
v 1.220677 2.072771 1.155487
v 1.188085 2.040180 1.155487
v 1.188385 2.039588 0.943876
v 1.220677 2.072477 0.943876
v 1.188385 2.039589 -0.948003
v 1.220677 2.072478 -0.948003
v 1.220677 2.072772 -1.155487
v 1.188085 2.040180 -1.155487
v -0.975020 2.350570 1.155487
v -0.975020 2.350570 0.943876
v -0.975020 2.350570 -0.948003
v -0.975020 2.350570 -1.155487
v -1.155487 2.350570 -1.155487
v -1.155487 2.350570 -0.948004
v -1.155487 2.350570 0.943876
v -1.155487 2.350570 1.155487
v -1.091269 3.307094 1.155487
v -1.091269 3.307094 0.943876
v -0.910803 3.307094 0.943876
v -0.910803 3.307094 1.155487
v -1.091269 3.304862 -1.155487
v -0.910803 3.304862 -1.155488
v -0.910803 3.304862 -0.948003
v -1.091269 3.304862 -0.948004
v -1.118233 4.121920 1.155487
v -1.118233 4.121920 0.943876
v -0.937767 4.121920 0.943876
v -0.937767 4.121920 1.155487
v -1.119182 4.127871 -1.155487
v -0.938715 4.127871 -1.155488
v -0.938715 4.127871 -0.948003
v -1.119182 4.127871 -0.948005
v -0.932366 2.840053 1.155487
v -0.932366 2.840053 0.943876
v -1.112833 2.840053 0.943876
v -1.112832 2.840053 1.155487
v -0.932411 2.870669 -1.155488
v -1.112878 2.870668 -1.155486
v -1.112878 2.870669 -0.948004
v -0.932411 2.870668 -0.948003
v -1.151043 4.347454 -1.155487
v -0.971429 4.360947 -1.155487
v -0.971429 4.360947 -0.948003
v -1.151043 4.347454 -0.948005
v -1.142808 4.331143 1.155487
v -1.142808 4.331143 0.943876
v -0.963075 4.342761 0.943876
v -0.963075 4.342761 1.155487
v -0.907481 3.708714 0.943876
v -0.907948 3.710516 -0.948003
v -0.907948 3.710516 -1.155488
v -1.088415 3.710516 -1.155487
v -1.088415 3.710516 -0.948005
v -1.087948 3.708714 0.943876
v -1.087948 3.708714 1.155487
v -0.907481 3.708714 1.155487
vt 0.428215 0.590971
vt 0.428215 0.586576
vt 0.433651 0.586606
vt 0.433651 0.590971
vt 0.379616 0.590971
vt 0.379616 0.586576
vt 0.428215 0.533400
vt 0.433651 0.533400
vt 0.433651 0.594580
vt 0.428215 0.594580
vt 0.374287 0.586606
vt 0.374287 0.590971
vt 0.379616 0.594580
vt 0.433651 0.607153
vt 0.428215 0.607153
vt 0.374287 0.533400
vt 0.379616 0.533400
vt 0.374287 0.594580
vt 0.379616 0.607940
vt 0.433651 0.619151
vt 0.428215 0.619151
vt 0.374287 0.607940
vt 0.379616 0.619093
vt 0.433651 0.640082
vt 0.428215 0.640082
vt 0.374287 0.619093
vt 0.379616 0.640235
vt 0.433651 0.645456
vt 0.428215 0.645456
vt 0.374287 0.640235
vt 0.433651 0.649505
vt 0.428215 0.649505
vt 0.379616 0.645875
vt 0.374287 0.645875
vt 0.428215 0.654003
vt 0.433651 0.654003
vt 0.379616 0.649505
vt 0.374287 0.649505
vt 0.379616 0.654003
vt 0.428215 0.655042
vt 0.433651 0.655042
vt 0.374287 0.654003
vt 0.379616 0.655042
vt 0.374287 0.655042
vt 0.539060 0.582968
vt 0.534235 0.582995
vt 0.534235 0.535766
vt 0.539060 0.535766
vt 0.528209 0.582966
vt 0.528184 0.535766
vt 0.533009 0.535766
vt 0.533009 0.582995
vt 0.522133 0.582995
vt 0.522133 0.535766
vt 0.526959 0.535766
vt 0.526934 0.582966
vt 0.520908 0.535766
vt 0.520908 0.582995
vt 0.516177 0.582968
vt 0.516177 0.535766
vt 0.510237 0.582968
vt 0.510220 0.535766
vt 0.514951 0.535766
vt 0.514951 0.582995
vt 0.543347 0.584032
vt 0.543347 0.536803
vt 0.548078 0.536803
vt 0.548062 0.584005
vt 0.411305 0.847679
vt 0.411305 0.852685
vt 0.404930 0.852685
vt 0.404930 0.847679
vt 0.346796 0.852685
vt 0.346796 0.847679
vt 0.404930 0.842472
vt 0.411305 0.842472
vt 0.340293 0.852685
vt 0.340293 0.847679
vt 0.404930 0.835310
vt 0.411305 0.835310
vt 0.340293 0.841913
vt 0.346796 0.841913
vt 0.404930 0.810020
vt 0.411305 0.810020
vt 0.340293 0.835127
vt 0.346796 0.835127
vt 0.346796 0.810089
vt 0.404930 0.796678
vt 0.411305 0.796678
vt 0.340293 0.810089
vt 0.346796 0.795737
vt 0.404930 0.780696
vt 0.411305 0.780696
vt 0.340293 0.795737
vt 0.346796 0.780696
vt 0.404930 0.776379
vt 0.411305 0.776379
vt 0.340293 0.780696
vt 0.346796 0.776379
vt 0.340293 0.776379
vt 0.355230 0.742484
vt 0.355230 0.748986
vt 0.352012 0.748986
vt 0.352003 0.742484
vt 0.356232 0.748986
vt 0.356232 0.742484
vt 0.351011 0.748986
vt 0.350993 0.742484
vt 0.352003 0.684350
vt 0.355230 0.684350
vt 0.356232 0.684350
vt 0.350993 0.684350
vt 0.352012 0.677974
vt 0.355230 0.677974
vt 0.356232 0.677974
vt 0.351011 0.677974
vt 0.497187 0.683571
vt 0.438997 0.683571
vt 0.439020 0.678542
vt 0.497154 0.678542
vt 0.497187 0.744030
vt 0.438997 0.744030
vt 0.439020 0.677531
vt 0.497154 0.677531
vt 0.503656 0.683571
vt 0.503656 0.744030
vt 0.497154 0.749554
vt 0.439020 0.749554
vt 0.432644 0.744030
vt 0.432644 0.683571
vt 0.432644 0.678542
vt 0.432644 0.677541
vt 0.503656 0.678542
vt 0.503656 0.677541
vt 0.357883 0.677974
vt 0.423350 0.677974
vt 0.423350 0.684476
vt 0.357883 0.684476
vt 0.424351 0.677974
vt 0.424351 0.684476
vt 0.423350 0.742611
vt 0.357883 0.742611
vt 0.424351 0.742611
vt 0.423350 0.748986
vt 0.357883 0.748986
vt 0.424351 0.748986
vt 0.378020 0.759545
vt 0.372991 0.759545
vt 0.372991 0.753042
vt 0.378020 0.753042
vt 0.387156 0.759418
vt 0.387156 0.753042
vt 0.392185 0.753042
vt 0.392185 0.759418
vt 0.385314 0.753042
vt 0.385314 0.759545
vt 0.379811 0.759545
vt 0.379811 0.753042
vt 0.393976 0.753042
vt 0.399479 0.753042
vt 0.399479 0.759418
vt 0.393976 0.759418
vt 0.349341 0.748986
vt 0.347246 0.748986
vt 0.347246 0.742611
vt 0.349341 0.742611
vt 0.347246 0.684476
vt 0.349341 0.684476
vt 0.347246 0.677974
vt 0.349341 0.677974
vt 0.574332 0.536803
vt 0.574332 0.579942
vt 0.570637 0.579942
vt 0.570637 0.536803
vt 0.575720 0.542269
vt 0.579835 0.542269
vt 0.579813 0.585408
vt 0.575698 0.585408
vt 0.365643 0.586107
vt 0.361438 0.586107
vt 0.361438 0.532901
vt 0.365643 0.532901
vt 0.365643 0.590472
vt 0.367317 0.589634
vt 0.367317 0.586944
vt 0.310914 0.590472
vt 0.310897 0.586107
vt 0.366480 0.590472
vt 0.366480 0.586107
vt 0.306278 0.586107
vt 0.306278 0.590472
vt 0.306278 0.532901
vt 0.310879 0.532901
vt 0.310914 0.594081
vt 0.306278 0.594081
vt 0.312221 0.606655
vt 0.307585 0.606654
vt 0.312439 0.618652
vt 0.307803 0.618652
vt 0.311871 0.639583
vt 0.307235 0.639583
vt 0.311221 0.645256
vt 0.306604 0.644957
vt 0.305438 0.649006
vt 0.309601 0.650076
vt 0.304721 0.653504
vt 0.306159 0.654543
vt 0.307910 0.654261
vt 0.553347 0.536803
vt 0.553347 0.584005
vt 0.549615 0.584005
vt 0.549615 0.536805
vt 0.554676 0.584005
vt 0.554676 0.536803
vt 0.558408 0.536803
vt 0.558408 0.584005
vt 0.440312 0.534208
vt 0.444516 0.534235
vt 0.444172 0.587440
vt 0.439968 0.587413
vt 0.439939 0.591778
vt 0.494667 0.592131
vt 0.494712 0.587767
vt 0.438288 0.588240
vt 0.438270 0.590930
vt 0.499302 0.592161
vt 0.499331 0.587797
vt 0.439130 0.587408
vt 0.439102 0.591772
vt 0.499279 0.595770
vt 0.494643 0.595740
vt 0.495074 0.534562
vt 0.499675 0.534592
vt 0.497887 0.609122
vt 0.493251 0.609092
vt 0.497596 0.620274
vt 0.492960 0.620244
vt 0.498051 0.641418
vt 0.493416 0.641388
vt 0.498833 0.647064
vt 0.494217 0.647381
vt 0.495594 0.651743
vt 0.499764 0.650700
vt 0.497258 0.655939
vt 0.499008 0.656232
vt 0.500453 0.655202
vt 0.563836 0.536805
vt 0.563821 0.584005
vt 0.559737 0.584005
vt 0.559737 0.536803
vt 0.565187 0.584005
vt 0.565187 0.536803
vt 0.569271 0.536803
vt 0.569287 0.584005
vt 0.360204 0.762613
vt 0.354659 0.762613
vt 0.353904 0.756184
vt 0.359426 0.755827
vt 0.352509 0.751341
vt 0.357489 0.750061
vt 0.364073 0.750061
vt 0.369618 0.750061
vt 0.368613 0.757223
vt 0.363094 0.756808
vt 0.366932 0.762430
vt 0.361952 0.761149
vt 0.346796 0.822430
vt 0.404930 0.822485
vt 0.411305 0.822485
vt 0.493185 0.630666
vt 0.374287 0.629514
vt 0.497820 0.630696
vt 0.379616 0.629514
vt 0.428215 0.629468
vt 0.307523 0.628968
vt 0.433651 0.629468
vt 0.312159 0.628968
vt 0.340293 0.822430
vn -0.000005 0.000000 1.000000
vn -0.000002 0.000000 1.000000
vn -0.000006 0.000000 1.000000
vn -0.000006 0.000000 1.000000
vn 0.000182 -1.000000 -0.000016
vn 0.000182 -1.000000 -0.000016
vn 0.003314 -0.999995 -0.000090
vn 0.003313 -0.999995 0.000064
vn -0.003317 0.000262 -0.999995
vn -0.003317 0.000262 -0.999995
vn -0.003317 0.000262 -0.999995
vn -0.003317 0.000262 -0.999995
vn 0.000000 1.000000 -0.000001
vn 0.000000 1.000000 -0.000001
vn 0.000000 1.000000 0.000000
vn 0.000000 1.000000 -0.000000
vn 0.000000 0.000000 1.000000
vn 0.000000 0.000000 1.000000
vn 0.000000 0.000000 1.000000
vn 0.000000 0.000000 1.000000
vn 0.000000 -1.000000 0.000000
vn 0.000000 -1.000000 0.000000
vn 0.000000 -1.000000 0.000000
vn 0.000000 -1.000000 0.000000
vn 0.000000 -0.999982 0.005950
vn 0.000000 -0.999982 0.005950
vn 0.000000 -1.000000 0.000567
vn 0.000000 -1.000000 0.000567
vn -0.002232 0.000176 0.999998
vn -0.002232 0.000176 0.999997
vn -0.002232 0.000176 0.999998
vn -0.002232 0.000176 0.999997
vn 0.000000 0.000000 1.000000
vn 0.000000 0.000000 1.000000
vn -0.000166 -1.000000 -0.000016
vn -0.000166 -1.000000 -0.000016
vn -0.000166 -1.000000 -0.000016
vn -0.000166 -1.000000 -0.000016
vn -1.000000 -0.000000 -0.000000
vn -1.000000 -0.000000 0.000000
vn -1.000000 -0.000000 0.000000
vn -1.000000 -0.000000 0.000001
vn -0.000006 0.000000 -1.000000
vn -0.000006 0.000000 -1.000000
vn -0.000002 0.000000 -1.000000
vn -0.000006 0.000000 -1.000000
vn 0.003028 0.000262 -0.999995
vn 0.003028 0.000262 -0.999995
vn 0.003028 0.000262 -0.999995
vn 0.003028 0.000262 -0.999995
vn -0.000000 0.000000 1.000000
vn -0.000000 -1.000000 0.000000
vn -0.000000 -1.000000 0.000000
vn -0.000000 -1.000000 0.000000
vn -0.000000 -1.000000 0.000000
vn -0.000002 -1.000000 0.000000
vn -0.000002 -1.000000 0.000000
vn -0.000002 -1.000000 0.000000
vn -0.000002 -1.000000 0.000000
vn 0.000000 0.000000 -1.000000
vn 0.000000 0.000000 -1.000000
vn 0.000000 0.000000 -1.000000
vn 0.000000 0.000000 -1.000000
vn 0.002044 0.000176 0.999998
vn 0.002044 0.000176 0.999998
vn 0.002044 0.000176 0.999998
vn 0.002044 0.000176 0.999998
vn 0.000000 0.000000 -1.000000
vn 0.000000 0.000000 -1.000000
vn 0.000002 -1.000000 0.000000
vn 0.000002 -1.000000 0.000000
vn 0.000002 -1.000000 0.000000
vn 0.000002 -1.000000 0.000000
vn -0.000000 0.000000 -1.000000
vn 1.000000 0.000000 0.000000
vn 1.000000 0.000000 0.000000
vn 1.000000 0.000000 0.000000
vn 1.000000 0.000000 0.000000
vn -1.000000 0.000000 0.000000
vn -1.000000 0.000000 0.000000
vn -1.000000 0.000000 0.000000
vn -1.000000 0.000000 0.000000
vn 1.000000 -0.000331 -0.000000
vn 1.000000 -0.000331 -0.000000
vn 1.000000 -0.000331 -0.000000
vn 1.000000 -0.000331 -0.000000
vn -1.000000 0.000000 0.000000
vn -1.000000 0.000000 0.000000
vn -1.000000 0.000000 0.000000
vn -1.000000 0.000000 -0.000000
vn -1.000000 -0.000000 0.000000
vn -1.000000 -0.000000 0.000000
vn 1.000000 0.000000 0.000000
vn 1.000000 0.000000 0.000000
vn 1.000000 0.000000 0.000000
vn 1.000000 0.000000 0.000000
vn 0.000000 1.000000 0.000000
vn 0.000000 1.000000 0.000000
vn 0.000000 1.000000 0.000000
vn 0.000000 1.000000 0.000000
vn -1.000000 0.000000 -0.000000
vn -1.000000 0.000000 0.000000
vn 1.000000 -0.000331 -0.000000
vn 1.000000 -0.000331 -0.000000
vn 1.000000 -0.000331 -0.000000
vn 1.000000 -0.000331 -0.000000
vn 0.000000 -1.000000 -0.000596
vn 0.000000 -1.000000 -0.000596
vn 0.000000 -0.999983 -0.005774
vn 0.000000 -0.999983 -0.005774
vn -1.000000 0.000000 0.000000
vn -1.000000 0.000000 0.000000
vn -1.000000 0.000000 0.000000
vn -1.000000 0.000000 0.000000
vn -0.000007 0.000000 1.000000
vn 0.000000 0.000000 1.000000
vn 0.447179 0.894444 0.000000
vn 0.973023 0.230709 0.000000
vn 0.973072 0.230500 0.000000
vn 0.447178 0.894445 0.000000
vn 0.973072 0.230500 -0.000000
vn 0.447178 0.894445 -0.000000
vn 0.973023 0.230711 0.000000
vn 0.447179 0.894445 0.000000
vn -0.230967 0.972962 0.000000
vn -0.991650 0.128958 0.000000
vn -0.991650 0.128956 -0.000000
vn -0.230968 0.972961 -0.000000
vn -0.979490 -0.201493 0.000000
vn -0.986306 -0.164926 -0.000000
vn 0.940092 0.340922 -0.000000
vn 0.792046 0.610461 0.000000
vn 0.792047 0.610461 0.000000
vn 0.929587 0.368604 -0.000000
vn 0.999590 -0.028635 0.000000
vn 0.999590 -0.028635 0.000000
vn 0.997754 -0.066986 0.000000
vn 0.997754 -0.066986 0.000000
vn -0.999590 0.028636 0.000001
vn -0.999590 0.028636 0.000001
vn -0.997754 0.066986 0.000001
vn -0.997754 0.066986 0.000001
vn 0.999576 -0.029115 -0.000000
vn 0.999576 -0.029115 -0.000000
vn 0.997743 -0.067142 -0.000000
vn 0.997744 -0.067141 -0.000000
vn -0.997743 0.067142 -0.000000
vn -0.997744 0.067142 -0.000000
vn -0.999576 0.029116 -0.000000
vn -0.999576 0.029116 -0.000000
vn -0.000009 -0.000000 -1.000000
vn -0.000009 -0.000000 -1.000000
vn -0.000011 -0.000000 -1.000000
vn -0.000011 -0.000000 -1.000000
vn -0.000001 0.000000 -1.000000
vn -0.000001 0.000000 -1.000000
vn 0.000006 0.000000 -1.000000
vn 0.000009 0.000000 -1.000000
vn 0.000000 0.000000 -1.000000
vn 0.000000 0.000000 1.000000
vn 0.000000 0.000000 1.000000
vn 0.000000 0.000000 1.000000
vn 0.000000 0.000000 1.000000
vn -0.000001 0.000000 1.000000
vn -0.000001 0.000000 1.000000
vn 0.000003 0.000000 1.000000
vn 0.000000 0.000000 1.000000
vn -0.000023 0.000000 1.000000
vn -0.230967 0.972962 -0.000000
vn 0.792047 0.610461 -0.000000
vn 0.792047 0.610461 0.000000
vn -0.230967 0.972962 0.000000
vn 0.938573 0.345080 0.000000
vn 0.929424 0.369014 0.000000
vn -0.991650 0.128957 -0.000000
vn -0.985816 -0.167827 0.000000
vn -0.991650 0.128957 0.000001
vn -0.976567 -0.215214 0.000001
vn -0.000013 0.000000 -1.000000
vn 0.000000 0.000000 -1.000000
vn 0.973374 -0.229221 0.000644
vn 0.710335 -0.703861 0.001975
vn 0.456485 -0.889731 0.000314
vn 0.973620 -0.228175 0.000065
vn 0.456493 -0.889727 -0.000316
vn 0.973621 -0.228172 -0.000065
vn 0.710335 -0.703861 -0.002015
vn 0.973375 -0.229217 -0.000656
vn 0.009195 -0.999949 0.004223
vn 0.009195 -0.999949 0.004223
vn 0.009195 -0.999949 -0.004308
vn 0.009195 -0.999949 -0.004308
vn -0.000007 0.000000 1.000000
vn 0.000000 0.000000 1.000000
vn -0.000013 0.000000 -1.000000
vn 0.000000 0.000000 -1.000000
vn 0.997814 -0.066084 -0.000489
vn 0.997716 -0.067554 0.000000
vn 1.000000 0.000000 0.000000
vn 1.000000 0.000000 0.000000
vn 0.997835 -0.065766 -0.000488
vn 1.000000 0.000000 -0.000000
vn 0.997926 -0.064368 -0.000000
vn 1.000000 0.000000 0.000000
vn -0.000008 0.000000 -1.000000
vn -0.000008 0.000000 -1.000000
vn -0.997835 0.065766 0.000488
vn -0.997926 0.064368 -0.000000
vn -0.997814 0.066084 0.000489
vn -0.997716 0.067554 0.000001
vn 0.000000 0.000000 1.000000
vn 0.000000 0.000000 1.000000
vn 0.249101 -0.968477 0.000000
vn 0.249101 -0.968477 0.000000
vn 0.249101 -0.968477 0.000000
vn 0.249101 -0.968477 0.000000
vn -0.996138 -0.087799 0.000001
vn -0.996138 -0.087799 0.000001
vn -0.999453 -0.033074 0.000001
vn -0.999453 -0.033074 0.000001
vn 0.996178 0.087347 0.000000
vn 0.996178 0.087347 0.000000
vn 0.999453 0.033073 0.000000
vn 0.999453 0.033073 0.000000
vn 0.000000 0.000000 1.000000
vn 0.000000 0.000000 1.000000
vn 0.000000 0.000000 1.000000
vn 0.000000 0.000000 1.000000
vn -0.000004 0.000000 -1.000000
vn -0.000004 0.000000 -1.000000
vn -0.000003 -0.000000 -1.000000
vn -0.000003 -0.000000 -1.000000
vn 0.995271 0.097136 -0.000000
vn 0.995271 0.097136 -0.000000
vn 0.999425 0.033896 0.000000
vn 0.999425 0.033896 0.000000
vn -0.999425 -0.033896 -0.000000
vn -0.999425 -0.033896 -0.000000
vn -0.995201 -0.097854 -0.000000
vn -0.995201 -0.097854 -0.000000
vn -0.982299 -0.187319 0.000000
vn -0.982299 -0.187319 0.000000
vn 0.000000 0.000000 -1.000000
vn 0.000000 0.000000 -1.000000
vn 0.000000 -0.000001 -1.000000
vn 0.000000 -0.000001 -1.000000
vn 0.977393 0.211431 0.000000
vn 0.977393 0.211431 0.000000
vn -0.000000 0.000000 1.000000
vn -0.000000 0.000000 1.000000
vn -0.000007 0.000001 -1.000000
vn -0.000008 0.000001 -1.000000
vn 0.977223 0.212216 -0.000001
vn 0.977223 0.212216 -0.000001
vn -0.000012 -0.000002 1.000000
vn -0.000012 -0.000002 1.000000
vn -0.000012 -0.000003 1.000000
vn -0.000012 -0.000003 1.000000
vn -0.982206 -0.187809 -0.000000
vn -0.982206 -0.187809 -0.000000
vn -0.997761 0.066877 0.000540
vn -0.997736 0.067249 0.000543
vn 0.997736 -0.067249 -0.000543
vn 0.997761 -0.066877 -0.000540
vn -0.999584 0.028856 0.000254
vn -0.999583 0.028886 0.000254
vn -0.999438 -0.033511 0.000174
vn -0.999440 -0.033462 0.000174
vn -0.997309 -0.073310 0.000223
vn -0.997309 -0.073310 0.000223
vn -0.000000 0.999995 0.003146
vn -0.000000 0.999995 0.003146
vn -0.000000 0.999995 0.003146
vn -0.000000 0.999995 0.003146
vn 0.997309 0.073310 -0.000223
vn 0.999440 0.033462 -0.000174
vn 0.999438 0.033511 -0.000174
vn 0.997309 0.073310 -0.000223
vn 0.999584 -0.028856 -0.000254
vn 0.999583 -0.028886 -0.000254
vn -0.000013 -0.000005 1.000000
vn -0.000013 -0.000005 1.000000
vn 0.000000 -0.000003 -1.000000
vn 0.000000 -0.000003 -1.000000
s 1
g pCube8
usemtl lambert2SG
f 4/179/1 7/180/2 8/181/3 9/182/4
s 2
f 10/117/5 11/118/6 12/119/7 13/120/8
s off
f 13/209/9 14/210/10 15/211/11 10/212/12
s 2
f 2/135/13 3/136/14 42/137/15 43/138/16
s 1
f 18/190/17 19/187/18 2/186/19 1/191/20
s off
f 9/147/21 8/148/22 15/149/23 14/150/24
s 5
f 7/125/25 19/126/26 29/121/27 10/117/28
s off
f 11/213/29 22/214/30 23/215/31 12/216/32
s 1
f 24/192/33 25/193/34 19/187/18 18/190/17
s off
f 26/127/35 27/128/36 28/122/37 29/121/38
s 6
f 44/1/39 26/2/40 18/3/41 1/4/42
s 7
f 31/217/43 32/218/44 21/219/45 5/220/46
s off
f 29/247/47 33/248/48 34/249/49 26/250/50
s 1
f 2/186/19 19/187/18 7/180/2 3/183/51
f 4/179/1 3/183/51 7/180/2
s off
f 22/151/52 32/152/53 31/153/54 23/154/55
f 33/155/56 25/156/57 24/157/58 34/158/59
s 7
f 17/226/60 16/222/61 20/223/62 30/227/63
s off
f 27/251/64 35/252/65 36/253/66 28/254/67
s 7
f 30/227/63 20/223/62 37/232/68 38/233/69
s off
f 38/159/70 37/160/71 36/161/72 35/162/73
s 7
f 5/220/46 21/219/45 6/221/74
f 16/222/61 6/221/74 21/219/45 20/223/62
s off
f 13/45/75 4/46/76 9/47/77 14/48/78
f 10/49/79 15/50/80 8/51/81 7/52/82
f 19/53/83 25/54/84 33/55/85 29/56/86
s 6
f 30/11/87 38/16/88 35/17/89 27/6/90
f 26/2/40 34/7/91 24/8/92 18/3/41
s off
f 31/57/93 5/58/94 12/59/95 23/60/96
s 2
f 40/142/97 39/141/98 6/144/99 16/145/100
s 6
f 30/11/87 27/6/90 41/5/101 17/12/102
s off
f 28/61/103 36/62/104 37/63/105 20/64/106
s 5
f 11/118/107 28/122/108 20/129/109 21/130/110
s off
f 21/65/111 32/66/112 22/67/113 11/68/114
s 2
f 43/138/16 42/137/15 39/141/98 40/142/97
s 6
f 41/5/101 27/6/90 26/2/40 44/1/39
s 5
f 10/117/28 29/121/27 28/122/108 11/118/107
s 1
f 73/185/115 4/179/1 74/189/116
s 2
f 45/105/117 46/102/118 48/101/119 47/106/120
f 47/106/120 48/101/119 49/110/121 50/111/122
f 50/111/122 49/110/121 51/114/123 52/115/124
f 42/137/15 3/136/14 45/139/117 47/140/120
f 6/144/99 39/141/98 50/143/122 52/146/124
f 39/141/98 42/137/15 47/140/120 50/143/122
s 6
f 61/44/125 60/42/126 63/39/127 62/43/128
f 60/42/126 59/38/129 64/37/130 63/39/127
f 66/69/131 65/70/132 68/71/133 67/72/134
f 65/163/132 61/164/125 62/165/128 68/166/133
f 91/87/135 92/90/136 105/94/137 106/91/138
f 89/20/139 90/21/140 107/15/141 108/14/142
f 94/84/143 95/83/144 112/88/145 109/89/146
f 110/22/147 111/19/148 96/23/149 93/26/150
s 7
f 93/236/151 94/237/152 109/235/153 110/234/154
f 66/242/155 59/243/156 65/244/157
f 65/244/157 59/243/156 61/245/158
f 59/243/156 60/246/159 61/245/158
s 1
f 92/198/160 89/199/161 108/197/162 105/196/163
f 72/204/164 53/205/165 71/206/166
f 71/206/166 53/205/165 55/207/167
f 53/205/165 54/208/168 55/207/167
s 6
f 55/169/169 54/170/170 57/168/171 58/167/172
f 54/77/170 53/78/173 56/74/174 57/73/171
f 62/43/128 63/39/127 69/35/175 58/40/172
f 63/39/127 64/37/130 70/32/176 69/35/175
f 58/167/172 57/168/171 68/166/133 62/165/128
f 57/73/171 56/74/174 67/72/134 68/71/133
f 58/40/172 69/35/175 71/36/177 55/41/169
f 69/35/175 70/32/176 72/31/178 71/36/177
s 7
f 51/225/179 6/221/74 52/229/180
s 2
f 73/103/181 74/107/182 75/108/183 76/104/184
f 76/104/184 75/108/183 77/112/185 78/109/186
f 78/109/186 77/112/185 80/116/187 79/113/188
f 4/133/189 13/120/8 75/124/183 74/134/190
f 12/119/7 5/131/191 80/132/192 77/123/185
f 13/120/8 12/119/7 77/123/185 75/124/183
f 48/101/119 46/102/118 73/103/181 76/104/184
f 49/110/121 78/109/186 79/113/188 51/114/123
f 48/101/119 76/104/184 78/109/186 49/110/121
s 1
f 46/184/193 45/188/194 3/183/51
f 46/184/193 3/183/51 4/179/1 73/185/115
s 7
f 79/224/195 80/228/196 5/220/46
f 79/224/195 5/220/46 6/221/74 51/225/179
s 6
f 82/95/197 81/98/198 2/100/199 43/99/200
f 83/92/201 82/95/197 43/99/200 40/96/202
f 84/93/203 83/92/201 40/96/202 16/97/204
s 7
f 85/230/205 84/231/206 16/222/61 17/226/60
s 6
f 41/5/101 86/13/207 85/18/208 17/12/102
f 44/1/39 87/10/209 86/13/207 41/5/101
f 88/9/210 87/10/209 44/1/39 1/4/42
s 1
f 81/194/211 88/195/212 1/191/20 2/186/19
s off
f 67/171/213 56/172/214 70/173/215 64/174/216
s 6
f 97/24/217 98/25/218 126/274/219 127/276/220
f 99/86/221 100/85/222 128/278/223 121/267/224
s 1
f 100/200/225 97/201/226 127/275/227 128/277/228
s 7
f 101/238/229 102/239/230 123/270/231 124/272/232
s 6
f 102/80/233 103/79/234 122/268/235 123/269/236
f 124/271/237 125/273/238 104/27/239 101/30/240
f 117/28/241 118/29/242 98/25/218 97/24/217
s 27
f 99/255/243 98/256/244 118/257/245 119/258/246
s 6
f 119/82/247 120/81/248 100/85/222 99/86/221
s 1
f 120/202/249 117/203/250 97/201/226 100/200/225
s 7
f 113/240/251 114/241/252 102/239/230 101/238/229
s 6
f 114/76/253 115/75/254 103/79/234 102/80/233
s 28
f 104/261/255 103/262/256 115/263/257 116/264/258
s 6
f 101/30/240 104/27/239 116/33/259 113/34/260
f 106/91/138 105/94/137 81/98/198 82/95/197
f 108/14/142 107/15/141 87/10/209 88/9/210
s 1
f 105/196/163 108/197/162 88/195/212 81/194/211
s 7
f 110/234/154 109/235/153 84/231/206 85/230/205
s 6
f 85/18/208 86/13/207 111/19/148 110/22/147
f 109/89/146 112/88/145 83/92/201 84/93/203
f 111/19/261 86/13/207 87/10/209 107/15/262
f 106/91/263 82/95/197 83/92/201 112/88/264
f 107/15/262 90/21/265 96/23/266 111/19/261
f 125/273/267 126/274/268 98/25/269 104/27/270
s off
f 98/175/271 99/176/272 103/177/273 104/178/274
s 6
f 99/86/275 121/267/276 122/268/277 103/79/278
f 91/87/279 106/91/263 112/88/264 95/83/280
s 7
f 66/242/155 114/241/252 113/240/251 59/243/156
s 6
f 67/72/134 115/75/254 114/76/253 66/69/131
s 28
f 116/264/258 115/263/257 67/265/281 64/266/282
s 6
f 113/34/260 116/33/259 64/37/130 59/38/129
f 72/31/178 70/32/176 118/29/242 117/28/241
s 27
f 119/258/246 118/257/245 70/259/283 56/260/284
s 6
f 56/74/174 53/78/173 120/81/248 119/82/247
s 1
f 72/204/164 117/203/250 120/202/249 53/205/165
s 6
f 122/268/277 121/267/276 91/87/279 95/83/280
f 123/269/236 122/268/235 95/83/144 94/84/143
s 7
f 124/272/232 123/270/231 94/237/152 93/236/151
s 6
f 93/26/150 96/23/149 125/273/238 124/271/237
f 90/21/265 126/274/268 125/273/267 96/23/266
f 127/276/220 126/274/219 90/21/140 89/20/139
s 1
f 128/277/228 127/275/227 89/199/161 92/198/160
s 6
f 121/267/224 128/278/223 92/90/136 91/87/135
