# This file uses centimeters as units for non-parametric coordinates.

mtllib Dog Bed.mtl
g default
v -3.574026 0.013910 1.974326
v -2.648253 0.013910 2.119384
v -1.324126 0.013910 2.119384
v 0.000000 0.013910 2.119384
v 1.324127 0.013910 2.119384
v 2.648253 0.013910 2.119384
v 3.574026 0.013910 1.974326
v -3.972380 0.013910 1.059692
v 3.972380 0.013910 1.059692
v -3.972380 0.013910 0.000000
v 3.972380 0.013910 0.000000
v -3.972380 0.013910 -1.059692
v 3.972380 0.013910 -1.059692
v -3.574026 0.013910 -1.974326
v -2.648253 0.013910 -2.119384
v -1.324126 0.013910 -2.119384
v 0.000000 0.013910 -2.119384
v 1.324127 0.013910 -2.119384
v 2.648253 0.013910 -2.119384
v 3.574026 0.013910 -1.974326
v -3.574026 2.048906 1.974326
v -2.648253 2.048906 2.119384
v -3.356496 2.048906 1.378861
v -3.972380 2.048906 1.059692
v -1.324126 0.659402 2.119384
v -1.324126 0.659402 1.657806
v 0.000000 0.659402 2.119384
v -0.000000 0.659402 1.657806
v 1.324127 0.659402 2.119384
v 1.324127 0.659402 1.657806
v 2.648253 2.048906 2.119384
v 3.356498 2.048906 1.378861
v 3.574026 2.048906 1.974326
v 3.972380 2.048906 1.059692
v -3.692480 2.048906 0.000000
v -3.972380 2.048906 0.000000
v 3.692480 2.048906 0.000000
v 3.972380 2.048906 0.000000
v -3.356496 2.048906 -1.287374
v -3.972380 2.048906 -1.059692
v -1.324126 2.048906 -1.741988
v -0.000000 2.048906 -1.741988
v 1.324127 2.048906 -1.741988
v 3.356497 2.048906 -1.287374
v 3.972380 2.048906 -1.059692
v -2.648253 2.048906 -2.119384
v -3.574026 2.048906 -1.974326
v -1.324126 2.048906 -2.119384
v 0.000000 2.048906 -2.119384
v 1.324127 2.048906 -2.119384
v 2.648253 2.048906 -2.119384
v 3.574026 2.048906 -1.974326
v -3.356496 0.616058 1.378861
v -1.324126 0.616058 1.657806
v -1.324126 0.616058 0.000000
v -3.692480 0.616058 0.000000
v -0.000000 0.616058 1.657806
v 0.000000 0.616058 0.000000
v 1.324127 0.616058 1.657806
v 1.324127 0.616058 0.000000
v 3.356498 0.616058 1.378861
v 3.692480 0.616058 0.000000
v -1.324126 0.616058 -1.741988
v -3.356496 0.616058 -1.287374
v -0.000000 0.616058 -1.741988
v 1.324127 0.616058 -1.741988
v 3.356497 0.616058 -1.287374
vt 0.378354 0.484711
vt 0.385628 0.473818
vt 0.401415 0.461839
vt 0.421595 0.452520
vt 0.444265 0.449423
vt 0.464323 0.452577
vt 0.477540 0.457631
vt 0.373214 0.507710
vt 0.407813 0.500361
vt 0.413687 0.472450
vt 0.427626 0.466322
vt 0.442894 0.464467
vt 0.469728 0.482359
vt 0.498053 0.473088
vt 0.379950 0.532603
vt 0.410103 0.517116
vt 0.443950 0.383949
vt 0.449172 0.381977
vt 0.455024 0.381769
vt 0.473914 0.499604
vt 0.509356 0.496748
vt 0.397155 0.551990
vt 0.422062 0.527729
vt 0.438459 0.529649
vt 0.447608 0.528177
vt 0.456334 0.525238
vt 0.469087 0.515249
vt 0.508054 0.521225
vt 0.418316 0.562001
vt 0.430070 0.564557
vt 0.446206 0.565090
vt 0.461941 0.562423
vt 0.476644 0.556703
vt 0.489676 0.548030
vt 0.497836 0.540027
vt 0.404693 0.498294
vt 0.405336 0.493981
vt 0.404834 0.506241
vt 0.407325 0.472581
vt 0.426308 0.463643
vt 0.447752 0.461178
vt 0.467481 0.474308
vt 0.471702 0.477315
vt 0.474714 0.487140
vt 0.408097 0.517102
vt 0.475808 0.499628
vt 0.416101 0.527021
vt 0.473633 0.512017
vt 0.431288 0.534287
vt 0.424983 0.533717
vt 0.440014 0.533666
vt 0.448831 0.532040
vt 0.457173 0.529218
vt 0.464602 0.525621
vt 0.469181 0.522017
vt 0.430181 0.384135
vt 0.430405 0.372598
vt 0.438038 0.394089
vt 0.443101 0.367041
vt 0.457023 0.365274
vt 0.465932 0.375017
vt 0.467289 0.387108
vt 0.451605 0.404417
vt 0.444080 0.403067
vt 0.455847 0.403207
vt 0.460234 0.402112
vt 0.466559 0.397968
vn -0.290289 0.796037 0.531090
vn 0.313854 0.641706 0.699792
vn 0.439045 0.785775 -0.435657
vn -0.273028 0.960427 0.055088
vn 0.362127 0.680974 0.636505
vn 0.164239 0.742527 -0.649368
vn 0.000000 0.868117 0.496359
vn 0.000000 0.868117 -0.496359
vn -0.362127 0.680974 0.636505
vn -0.164239 0.742527 -0.649368
vn -0.313854 0.641707 0.699792
vn -0.439045 0.785775 -0.435657
vn 0.290290 0.796037 0.531090
vn 0.273028 0.960427 0.055088
vn 0.272726 0.962089 0.002324
vn -0.274726 0.961523 0.000000
vn 0.292000 0.812696 -0.504243
vn 0.164239 0.742527 -0.649368
vn 0.000000 1.000000 0.000000
vn 0.272726 0.962089 0.002324
vn 0.000000 0.868117 -0.496359
vn 0.000000 1.000000 -0.000000
vn -0.164239 0.742527 -0.649368
vn 0.000000 1.000000 -0.000000
vn -0.292000 0.812696 -0.504243
vn -0.272726 0.962089 0.002324
vn 0.274726 0.961523 -0.000000
vn -0.272726 0.962089 0.002324
vn 0.129692 0.972559 0.193153
vn -0.273028 0.960427 -0.055088
vn 0.051144 0.876245 0.479145
vn 0.325019 0.812436 0.484057
vn 0.000000 0.868117 0.496359
vn -0.051144 0.876245 0.479145
vn -0.325019 0.812436 0.484056
vn 0.273028 0.960427 -0.055088
vn -0.129692 0.972559 0.193153
vn -0.031787 0.869434 -0.493025
vn -0.290290 0.796037 -0.531090
vn 0.051144 0.876245 0.479145
vn 0.000000 0.868117 -0.496359
vn 0.000000 0.868117 0.496359
vn 0.000000 0.868117 -0.496359
vn -0.051144 0.876245 0.479145
vn 0.000000 0.868117 -0.496359
vn 0.031787 0.869434 -0.493025
vn 0.290290 0.796037 -0.531090
vn -0.479621 0.000000 0.877476
vn -0.080423 0.000000 0.996761
vn 0.313854 0.641706 0.699792
vn -0.290289 0.796037 0.531090
vn -0.980246 0.000000 0.197781
vn -0.479621 0.000000 0.877476
vn -0.290289 0.796037 0.531090
vn -0.273028 0.960427 0.055088
vn 0.000000 0.000000 1.000000
vn 0.362127 0.680974 0.636505
vn 0.000000 0.000000 1.000000
vn 0.000000 0.868117 0.496359
vn -0.000000 0.000000 1.000000
vn -0.362127 0.680974 0.636505
vn 0.080423 0.000000 0.996761
vn -0.313854 0.641707 0.699792
vn 0.479621 0.000000 0.877476
vn 0.290290 0.796037 0.531090
vn 0.479621 0.000000 0.877476
vn 0.980246 0.000000 0.197781
vn 0.273028 0.960427 0.055088
vn 0.290290 0.796037 0.531090
vn -1.000000 0.000000 0.000000
vn -0.274726 0.961523 0.000000
vn 1.000000 0.000000 0.000000
vn 0.274726 0.961523 -0.000000
vn -0.980246 0.000000 -0.197781
vn -0.273028 0.960427 -0.055088
vn 0.980246 0.000000 -0.197781
vn 0.273028 0.960427 -0.055088
vn -0.064339 0.000000 -0.997928
vn -0.479621 0.000000 -0.877476
vn -0.290290 0.796037 -0.531090
vn -0.031787 0.869434 -0.493025
vn -0.479621 0.000000 -0.877476
vn -0.290290 0.796037 -0.531090
vn 0.000000 0.000000 -1.000000
vn 0.000000 0.868117 -0.496359
vn 0.000000 0.000000 -1.000000
vn 0.000000 0.868117 -0.496359
vn 0.000000 0.000000 -1.000000
vn 0.000000 0.868117 -0.496359
vn 0.064339 0.000000 -0.997928
vn 0.031787 0.869434 -0.493025
vn 0.479621 0.000000 -0.877476
vn 0.290290 0.796037 -0.531090
vn 0.479621 0.000000 -0.877476
vn 0.290290 0.796037 -0.531090
vn 0.439045 0.785775 -0.435657
vn 0.164239 0.742527 -0.649368
vn 0.164239 0.742527 -0.649368
vn 0.292000 0.812696 -0.504243
vn 0.272726 0.962089 0.002324
vn 0.439045 0.785775 -0.435657
vn 0.292000 0.812696 -0.504243
vn 0.272726 0.962089 0.002324
vn 0.164239 0.742527 -0.649368
vn 0.000000 0.868117 -0.496359
vn 0.000000 0.868117 -0.496359
vn 0.164239 0.742527 -0.649368
vn 0.000000 0.868117 -0.496359
vn -0.164239 0.742527 -0.649368
vn -0.164239 0.742527 -0.649368
vn 0.000000 0.868117 -0.496359
vn -0.164239 0.742527 -0.649368
vn -0.439045 0.785775 -0.435657
vn -0.292000 0.812696 -0.504243
vn -0.164239 0.742527 -0.649368
vn -0.439045 0.785775 -0.435657
vn -0.272726 0.962089 0.002324
vn -0.272726 0.962089 0.002324
vn -0.292000 0.812696 -0.504243
vn 0.051144 0.876245 0.479145
vn 0.129692 0.972559 0.193153
vn 0.325019 0.812436 0.484057
vn 0.051144 0.876245 0.479145
vn 0.129692 0.972559 0.193153
vn 0.272726 0.962089 0.002324
vn 0.272726 0.962089 0.002324
vn 0.325019 0.812436 0.484057
vn 0.000000 0.868117 0.496359
vn 0.051144 0.876245 0.479145
vn 0.051144 0.876245 0.479145
vn 0.000000 0.868117 0.496359
vn -0.051144 0.876245 0.479145
vn 0.000000 0.868117 0.496359
vn 0.000000 0.868117 0.496359
vn -0.051144 0.876245 0.479145
vn -0.272726 0.962089 0.002324
vn -0.129692 0.972559 0.193153
vn -0.325019 0.812436 0.484056
vn -0.272726 0.962089 0.002324
vn -0.129692 0.972559 0.193153
vn -0.051144 0.876245 0.479145
vn -0.051144 0.876245 0.479145
vn -0.325019 0.812436 0.484056
s 1
g dog_bed
usemtl lambert2SG
f 21/36/1 22/37/2 23/9/3 24/38/4
f 22/37/2 25/39/5 26/10/6 23/9/3
f 25/39/5 27/40/7 28/11/8 26/10/6
f 27/40/7 29/41/9 30/12/10 28/11/8
f 29/41/9 31/42/11 32/13/12 30/12/10
f 31/42/11 33/43/13 34/44/14 32/13/12
f 24/38/4 23/9/3 35/16/15 36/45/16
s 2
f 53/56/17 54/57/18 55/17/19 56/58/20
f 54/57/18 57/59/21 58/18/22 55/17/19
f 57/59/21 59/60/23 60/19/24 58/18/22
f 59/60/23 61/61/25 62/62/26 60/19/24
s 1
f 32/13/12 34/44/14 38/46/27 37/20/28
f 36/45/16 35/16/15 39/23/29 40/47/30
s 2
f 56/58/20 55/17/19 63/63/31 64/64/32
f 55/17/19 58/18/22 65/65/33 63/63/31
f 58/18/22 60/19/24 66/66/34 65/65/33
f 60/19/24 62/62/26 67/67/35 66/66/34
s 1
f 37/20/28 38/46/27 45/48/36 44/27/37
f 40/47/30 39/23/29 46/49/38 47/50/39
f 39/23/29 41/24/40 48/51/41 46/49/38
f 41/24/40 42/25/42 49/52/43 48/51/41
f 42/25/42 43/26/44 50/53/45 49/52/43
f 43/26/44 44/27/37 51/54/46 50/53/45
f 44/27/37 45/48/36 52/55/47 51/54/46
s 3
f 1/1/48 2/2/49 22/37/50 21/36/51
s 4
f 8/8/52 1/1/53 21/36/54 24/38/55
s 3
f 2/2/49 3/3/56 25/39/57 22/37/50
f 3/3/56 4/4/58 27/40/59 25/39/57
f 4/4/58 5/5/60 29/41/61 27/40/59
f 5/5/60 6/6/62 31/42/63 29/41/61
f 6/6/62 7/7/64 33/43/65 31/42/63
s 5
f 7/7/66 9/14/67 34/44/68 33/43/69
s 4
f 10/15/70 8/8/52 24/38/55 36/45/71
s 5
f 9/14/67 11/21/72 38/46/73 34/44/68
s 4
f 12/22/74 10/15/70 36/45/71 40/47/75
s 5
f 11/21/72 13/28/76 45/48/77 38/46/73
s 6
f 15/30/78 14/29/79 47/50/80 46/49/81
s 4
f 14/29/82 12/22/74 40/47/75 47/50/83
s 6
f 16/31/84 15/30/78 46/49/81 48/51/85
f 17/32/86 16/31/84 48/51/85 49/52/87
f 18/33/88 17/32/86 49/52/87 50/53/89
f 19/34/90 18/33/88 50/53/89 51/54/91
s 5
f 13/28/76 20/35/92 52/55/93 45/48/77
s 6
f 20/35/94 19/34/90 51/54/91 52/55/95
s off
f 23/9/96 26/10/97 54/57/98 53/56/99
f 35/16/100 23/9/101 53/56/102 56/58/103
f 26/10/104 28/11/105 57/59/106 54/57/107
f 28/11/108 30/12/109 59/60/110 57/59/111
f 30/12/112 32/13/113 61/61/114 59/60/115
f 32/13/116 37/20/117 62/62/118 61/61/119
f 41/24/120 39/23/121 64/64/122 63/63/123
f 39/23/124 35/16/125 56/58/126 64/64/127
f 42/25/128 41/24/129 63/63/130 65/65/131
f 43/26/132 42/25/133 65/65/134 66/66/135
f 37/20/136 44/27/137 67/67/138 62/62/139
f 44/27/140 43/26/141 66/66/142 67/67/143
