# This file uses centimeters as units for non-parametric coordinates.

mtllib keycard.mtl
g default
v -0.004036 -0.222774 0.400448
v -0.004036 0.222774 0.400448
v 0.005614 -0.222774 0.400448
v 0.000615 -0.226151 0.403825
v 0.000615 0.226151 0.403825
v 0.005614 0.222774 0.400448
v -0.004036 0.222774 -0.400574
v 0.000615 0.226151 -0.403951
v 0.005614 0.222774 -0.400574
v -0.004036 -0.222774 -0.400574
v 0.000615 -0.226151 -0.403951
v 0.005614 -0.222774 -0.400574
vt 0.789045 0.944817
vt 0.788927 0.733040
vt 0.788572 0.093054
vt 0.788689 0.303427
vt 0.788690 0.305915
vt 0.788808 0.517691
vt 0.811242 0.943674
vt 0.801688 0.944967
vt 0.801569 0.731404
vt 0.811124 0.731896
vt 0.801212 0.090716
vt 0.810766 0.091910
vt 0.810884 0.302284
vt 0.801331 0.304279
vt 0.810886 0.304771
vt 0.811004 0.516548
vt 0.801450 0.517841
vt 0.788810 0.520179
vt 0.788927 0.730552
vt 0.811004 0.519035
vt 0.811121 0.729409
vt 0.048103 0.589436
vt 0.699670 0.589436
vt 0.699670 0.902457
vt 0.048103 0.902457
vt 0.051912 0.254668
vt 0.703479 0.254668
vt 0.703479 0.567688
vt 0.051912 0.567688
vn -0.707108 -0.707106 0.000000
vn -0.707108 -0.707106 0.000000
vn 0.472034 -0.881580 0.000000
vn 0.472034 -0.881580 0.000000
vn -0.707108 0.000000 0.707106
vn -0.707108 0.000000 0.707106
vn 0.470439 0.000000 0.882433
vn 0.470439 0.000000 0.882433
vn -0.707108 0.707106 0.000000
vn -0.707108 0.707106 0.000000
vn 0.472034 0.881580 0.000000
vn 0.472034 0.881580 0.000000
vn 0.707108 -0.707106 0.000000
vn 0.472034 -0.881580 0.000000
vn 0.472034 -0.881580 0.000000
vn 0.707108 -0.707106 0.000000
vn 0.470439 0.000000 0.882433
vn 0.707108 0.000000 0.707106
vn 0.707108 0.000000 0.707106
vn 0.470439 0.000000 0.882433
vn 0.472034 0.881580 0.000000
vn 0.707108 0.707106 0.000000
vn 0.707108 0.707106 0.000000
vn 0.472034 0.881580 0.000000
vn -0.707108 0.000000 -0.707106
vn -0.707108 0.000000 -0.707106
vn 0.470439 0.000000 -0.882433
vn 0.470439 0.000000 -0.882433
vn 0.470439 0.000000 -0.882433
vn 0.707108 0.000000 -0.707106
vn 0.707108 0.000000 -0.707106
vn 0.470439 0.000000 -0.882433
vn 1.000000 0.000000 0.000000
vn 1.000000 0.000000 0.000000
vn 1.000000 0.000000 0.000000
vn 1.000000 0.000000 0.000000
vn -1.000000 0.000000 0.000000
vn -1.000000 0.000000 0.000000
vn -1.000000 0.000000 0.000000
vn -1.000000 0.000000 0.000000
s off
g keycard:pCube1
usemtl lambert4SG
f 1/1/1 10/2/2 11/9/3 4/8/4
f 2/4/5 1/3/6 4/11/7 5/14/8
f 7/6/9 2/5/10 5/14/11 8/17/12
f 3/7/13 4/8/14 11/9/15 12/10/16
f 4/11/17 3/12/18 6/13/19 5/14/20
f 5/14/21 6/15/22 9/16/23 8/17/24
f 10/19/25 7/18/26 8/17/27 11/9/28
f 8/17/29 9/20/30 12/21/31 11/9/32
f 3/22/33 12/23/34 9/24/35 6/25/36
f 10/26/37 1/27/38 2/28/39 7/29/40
