# This file uses centimeters as units for non-parametric coordinates.

mtllib kitchencountercorner.mtl
g default
v 10.433044 61.202934 -82.572189
v 10.433044 61.202934 -37.000000
v 10.433044 -0.526625 -82.572189
v 10.433044 -0.526625 -37.000000
v 10.433044 8.314297 -37.000000
v 10.433044 57.265865 -29.389217
v 10.433044 61.202934 -29.389217
v 10.433044 8.314297 -31.159222
v 10.433044 57.265865 -31.159218
v 6.894636 -0.526625 -82.572189
v 6.841270 -0.526625 -37.000000
v 6.841270 8.314297 -37.000000
v 6.841270 8.314297 -31.159218
v 6.841270 57.265869 -31.159218
v 6.841270 57.265869 -29.389217
v 6.841270 61.202934 -29.389217
v 6.841270 61.202934 -37.000000
v 6.841270 61.202934 -82.572189
v -59.815376 -0.526625 -12.729555
v -14.243185 -0.526627 -12.729555
v -59.815376 61.202934 -12.729555
v -14.243185 61.202930 -12.729555
v -14.243185 8.314297 -12.729555
v -6.632404 57.265881 -12.729555
v -6.632404 61.202930 -12.729555
v -8.402409 8.314297 -12.729555
v -8.402409 57.265881 -12.729555
v -59.815376 61.202934 -16.860645
v -14.243185 61.202930 -16.860645
v -6.632404 61.202930 -16.860645
v -6.632404 57.265873 -16.860645
v -8.402405 57.265873 -16.860645
v -8.402409 8.314297 -16.860645
v -14.243189 8.314297 -16.860645
v -14.243185 -0.526627 -16.860645
v -59.815376 -0.526625 -16.789843
v -9.782867 -0.526625 -82.925911
v -9.822897 61.202930 -82.943619
v -3.844775 61.202934 -35.415108
v -60.000000 -0.341958 -83.045319
v -60.026684 61.387596 -83.080719
v -14.916105 61.202930 -39.537121
v -59.815376 -0.526625 -43.554413
v -59.828716 61.202934 -43.607513
v -12.333021 61.202930 -27.319496
v -1.475604 61.202934 -28.515644
v -1.475603 57.265869 -28.515644
v -2.024716 57.265869 -30.121483
v -2.024714 8.314297 -30.121487
v -3.836720 8.314297 -35.420559
v -3.836719 -0.526625 -35.420559
v -5.649637 61.202930 -24.839058
v -5.649637 57.265873 -24.839058
v -7.214006 57.265873 -25.453337
v -7.214006 8.314297 -25.453341
v -12.376230 8.314297 -27.480383
v -12.376227 -0.526626 -27.480383
v -8.623423 61.202934 -32.202942
v -4.117499 61.202934 -27.492144
v -4.117499 57.265869 -27.492144
v -5.169450 57.265869 -28.606880
v -5.169449 8.314297 -28.606884
v -8.640759 8.314297 -32.285378
v -8.066183 -0.526626 -31.487932
vt 0.319143 0.057040
vt 0.319040 0.088905
vt 0.306094 0.088863
vt 0.306197 0.056998
vt 0.907767 0.782640
vt 0.893379 0.782640
vt 0.893379 0.773791
vt 0.907767 0.773791
vt 0.706453 0.819795
vt 0.706453 0.978995
vt 0.694772 0.978995
vt 0.694772 0.819795
vt 0.407128 0.423315
vt 0.391008 0.423315
vt 0.391008 0.408608
vt 0.407128 0.408608
vt 0.383021 0.428238
vt 0.379531 0.428302
vt 0.379396 0.420905
vt 0.382886 0.420841
vt 0.380340 0.472591
vt 0.383831 0.472527
vt 0.935278 0.867447
vt 0.839611 0.867530
vt 0.839611 0.861963
vt 0.935278 0.861963
vt 0.845614 0.782640
vt 0.845614 0.773791
vt 0.849974 0.773791
vt 0.849974 0.782640
vt 0.314320 0.405898
vt 0.358609 0.405089
vt 0.358682 0.409104
vt 0.314393 0.409913
vt 0.366079 0.408968
vt 0.366005 0.404954
vt 0.411061 0.469053
vt 0.411061 0.452138
vt 0.427181 0.452138
vt 0.427181 0.469053
vt 0.614386 0.819795
vt 0.614386 0.978995
vt 0.600951 0.978995
vt 0.600951 0.819795
vt 0.953166 0.834578
vt 0.942990 0.834578
vt 0.942990 0.820190
vt 0.953166 0.820190
vt 0.453707 0.090903
vt 0.438821 0.090583
vt 0.439505 0.058725
vt 0.454391 0.059045
vt 0.721487 0.851789
vt 0.809588 0.851789
vt 0.809588 0.857685
vt 0.721487 0.857584
vt 0.880836 0.815830
vt 0.891013 0.815830
vt 0.891013 0.820190
vt 0.880836 0.820190
vt 0.364152 0.473248
vt 0.369117 0.426951
vt 0.935278 0.893293
vt 0.839611 0.893356
vt 0.934991 0.971119
vt 0.839325 0.971160
vt 0.315364 0.474273
vt 0.358431 0.431154
vt 0.809852 0.952196
vt 0.721750 0.952146
vt 0.721487 0.895783
vt 0.809588 0.895859
vt 0.314855 0.435907
vt 0.360724 0.419234
vt 0.358048 0.057166
vt 0.357945 0.089031
vt 0.910323 0.804480
vt 0.897270 0.808943
vt 0.665938 0.978995
vt 0.665938 0.819795
vt 0.852126 0.803127
vt 0.848170 0.804480
vt 0.407128 0.457368
vt 0.391008 0.457368
vt 0.371297 0.420204
vt 0.364416 0.423914
vt 0.368712 0.419256
vt 0.407128 0.468185
vt 0.391008 0.468185
vt 0.854647 0.809635
vt 0.851901 0.812227
vt 0.655711 0.978995
vt 0.655711 0.819795
vt 0.914054 0.812227
vt 0.904993 0.820777
vt 0.378724 0.057232
vt 0.378759 0.089294
vt 0.367176 0.416705
vt 0.411061 0.419471
vt 0.427181 0.419471
vt 0.859669 0.817263
vt 0.861183 0.813409
vt 0.642331 0.819795
vt 0.642331 0.978995
vt 0.916830 0.829979
vt 0.921823 0.817263
vt 0.399967 0.089749
vt 0.400650 0.057891
vt 0.411061 0.408608
vt 0.427181 0.408608
vt 0.652587 0.819795
vt 0.652587 0.978995
vn 0.110013 0.000000 0.993930
vn 0.110013 0.000000 0.993930
vn 0.000000 0.000000 1.000000
vn 0.000000 0.000000 1.000000
vn 0.000000 -1.000000 0.000000
vn 0.000000 -1.000000 0.000000
vn 0.000000 -1.000000 0.000000
vn 0.000000 -1.000000 0.000000
vn 0.000001 -0.000000 1.000000
vn 0.000001 -0.000000 1.000000
vn 0.083013 -0.000000 0.996549
vn 0.083013 -0.000000 0.996548
vn 0.073160 0.000000 0.997320
vn 0.073160 0.000000 0.997320
vn 0.000000 0.000000 1.000000
vn 0.000000 0.000000 1.000000
vn 0.000000 1.000000 0.000000
vn 0.000000 1.000000 0.000000
vn 0.000000 1.000000 0.000000
vn 0.000000 1.000000 0.000000
vn 0.000000 1.000000 0.000000
vn 0.000000 1.000000 0.000000
vn 0.000000 1.000000 0.000000
vn 0.000000 1.000000 0.000000
vn 0.000000 0.000000 -1.000000
vn 0.000000 0.000000 -1.000000
vn 0.000000 0.000000 -1.000000
vn 0.000000 0.000000 -1.000000
vn -0.000001 -1.000000 0.000000
vn -0.000001 -1.000000 0.000000
vn -0.000001 -1.000000 0.000000
vn -0.000001 -1.000000 0.000000
vn 0.000000 1.000000 0.000000
vn 0.000000 1.000000 0.000000
vn 0.000000 1.000000 0.000000
vn 0.000000 1.000000 0.000000
vn 0.000000 1.000000 0.000000
vn 0.000000 1.000000 0.000000
vn 0.000000 1.000000 0.000000
vn 0.000000 1.000000 0.000000
vn 1.000000 0.000000 0.000000
vn 0.996723 0.000000 0.080891
vn 0.996723 0.000000 0.080891
vn 1.000000 0.000000 0.000000
vn 0.991244 -0.094145 0.092582
vn 0.995667 -0.000000 0.092995
vn 1.000000 -0.000000 0.000000
vn 1.000000 -0.000000 0.000000
vn 0.000000 -1.000000 0.000000
vn 0.000000 -1.000000 0.000000
vn 0.000000 -1.000000 0.000000
vn 0.000000 -1.000000 0.000000
vn 1.000000 0.000000 0.000000
vn 0.992086 0.000000 0.125564
vn 0.992086 0.000000 0.125564
vn 1.000000 0.000000 0.000000
vn -1.000000 0.000000 0.000000
vn -1.000000 0.000000 0.000000
vn -1.000000 0.000000 0.000000
vn -1.000000 0.000000 0.000000
vn 0.000000 -1.000000 0.000002
vn 0.000000 -1.000000 0.000002
vn 0.000000 -1.000000 0.000002
vn 0.000000 -1.000000 0.000002
vn 0.000000 1.000000 0.000000
vn 0.000000 1.000000 0.000000
vn 0.002137 0.999998 0.000251
vn 0.001782 0.999998 0.000209
vn 0.021744 -0.000127 -0.999764
vn 0.021744 -0.000127 -0.999764
vn 0.007349 -0.000353 -0.999973
vn 0.007326 -0.000354 -0.999973
vn 0.007326 -0.000354 -0.999973
vn 0.007349 -0.000353 -0.999973
vn 0.002553 -0.000429 -0.999997
vn 0.002553 -0.000429 -0.999997
vn 0.001782 0.999998 0.000209
vn 0.002137 0.999998 0.000251
vn 0.001420 0.999997 0.001884
vn 0.001512 0.999997 0.001794
vn -0.999988 -0.000321 0.004844
vn -0.999988 -0.000321 0.004844
vn -0.999996 -0.000234 0.002983
vn -0.999996 -0.000235 0.002992
vn 0.001512 0.999997 0.001794
vn 0.001420 0.999997 0.001884
vn -0.000218 0.999997 0.002407
vn -0.000144 0.999999 0.001588
vn -0.999996 -0.000235 0.002992
vn -0.999996 -0.000234 0.002983
vn -1.000000 -0.000108 0.000249
vn -1.000000 -0.000108 0.000249
vn -0.000144 0.999999 0.001588
vn -0.000218 0.999997 0.002407
vn 0.000000 1.000000 0.000000
vn 0.000000 1.000000 0.000000
vn 0.110013 0.000000 0.993930
vn 0.110013 0.000000 0.993930
vn 0.318882 0.019865 0.947586
vn 0.318882 0.019865 0.947586
vn 0.000000 -1.000000 0.000000
vn 0.000000 -1.000000 0.000000
vn 0.000000 -1.000000 0.000000
vn 0.000000 -1.000000 0.000000
vn 0.083013 -0.000000 0.996548
vn 0.083013 -0.000000 0.996549
vn 0.207863 -0.000000 0.978158
vn 0.207863 -0.000000 0.978158
vn 0.000000 -1.000000 0.000000
vn 0.000000 -1.000000 0.000000
vn 0.000000 -1.000000 0.000000
vn 0.000000 -1.000000 0.000000
vn 0.073160 0.000000 0.997320
vn 0.073160 0.000000 0.997320
vn 0.170573 0.000000 0.985345
vn 0.170573 0.000000 0.985345
vn 0.000000 1.000000 0.000000
vn 0.000000 1.000000 0.000000
vn 0.000000 1.000000 0.000000
vn 0.000000 1.000000 0.000000
vn 0.000000 1.000000 0.000000
vn 0.000000 1.000000 0.000000
vn 0.000000 1.000000 0.000001
vn 0.000000 1.000000 0.000001
vn 0.170573 0.000000 0.985345
vn 0.170573 0.000000 0.985345
vn 0.660976 0.000000 0.750407
vn 0.660976 0.000000 0.750407
vn 0.000000 -1.000000 0.000000
vn 0.000000 -1.000000 0.000000
vn 0.000000 -1.000000 0.000000
vn 0.000000 -1.000000 0.000000
vn 0.207863 -0.000000 0.978158
vn 0.207863 -0.000000 0.978158
vn 0.668789 -0.000000 0.743452
vn 0.668789 -0.000000 0.743452
vn 0.000000 -1.000000 0.000000
vn 0.000000 -1.000000 0.000000
vn 0.000000 -1.000000 0.000000
vn 0.000000 -1.000000 0.000000
vn 0.318882 0.019865 0.947586
vn 0.318882 0.019865 0.947586
vn 0.679394 0.055077 0.731704
vn 0.680442 0.055067 0.730730
vn -0.000000 1.000000 -0.000000
vn -0.000000 1.000000 -0.000000
vn 0.000000 1.000000 0.000000
vn 0.000000 1.000000 0.000000
vn 0.973143 0.000000 0.230200
vn 0.973143 0.000000 0.230200
vn 0.996723 0.000000 0.080891
vn 0.996723 0.000000 0.080891
vn 0.000000 -1.000000 0.000000
vn 0.000000 -1.000000 0.000000
vn 0.000000 -1.000000 0.000000
vn 0.000000 -1.000000 0.000000
vn 0.953051 -0.151281 0.262312
vn 0.964148 -0.000000 0.265366
vn 0.995667 -0.000000 0.092995
vn 0.991244 -0.094145 0.092582
vn 0.000000 -1.000000 0.000000
vn 0.953051 -0.151281 0.262312
vn 0.991244 -0.094145 0.092582
vn 0.000000 -1.000000 0.000000
vn 0.930845 0.020109 0.364861
vn 0.930845 0.020109 0.364861
vn 0.992086 0.000000 0.125564
vn 0.992086 0.000000 0.125564
vn -0.000001 1.000000 0.000000
vn -0.000001 1.000000 0.000000
vn -0.000001 1.000000 0.000000
vn -0.000001 1.000000 0.000000
vn 0.000000 1.000000 0.000001
vn 0.000000 1.000000 0.000001
vn -0.000000 1.000000 -0.000000
vn -0.000000 1.000000 -0.000000
vn 0.660976 0.000000 0.750407
vn 0.660976 0.000000 0.750407
vn 0.973143 0.000000 0.230200
vn 0.973143 0.000000 0.230200
vn 0.000000 -1.000000 0.000000
vn 0.000000 -1.000000 0.000000
vn 0.000000 -1.000000 0.000000
vn 0.000000 -1.000000 0.000000
vn 0.668789 -0.000000 0.743452
vn 0.668789 -0.000000 0.743452
vn 0.964148 -0.000000 0.265366
vn 0.953051 -0.151281 0.262312
vn 0.000000 -1.000000 0.000000
vn 0.000000 -1.000000 0.000000
vn 0.953051 -0.151281 0.262312
vn 0.000000 -1.000000 0.000000
vn 0.680442 0.055067 0.730730
vn 0.679394 0.055077 0.731704
vn 0.930845 0.020109 0.364861
vn 0.930845 0.020109 0.364861
vn 0.930845 0.020109 0.364861
vn 0.930845 0.020109 0.364861
s off
g kitchenset:pCube16
usemtl lambert2SG
f 12/1/1 11/2/2 4/3/3 5/4/4
f 13/5/5 12/6/6 5/7/7 8/8/8
f 8/9/9 9/10/10 14/11/11 13/12/12
f 16/13/13 15/14/14 6/15/15 7/16/16
f 2/17/17 17/18/18 16/19/19 7/20/20
f 18/21/21 17/18/22 2/17/23 1/22/24
f 10/23/25 18/24/26 1/25/27 3/26/28
f 14/27/29 9/28/30 6/29/31 15/30/32
f 21/31/33 22/32/34 29/33/35 28/34/36
f 30/35/37 29/33/38 22/32/39 25/36/40
f 24/37/41 31/38/42 30/39/43 25/40/44
f 33/41/45 32/42/46 27/43/47 26/44/48
f 23/45/49 34/46/50 33/47/51 26/48/52
f 20/49/53 35/50/54 34/51/55 23/52/56
f 19/53/57 21/54/58 28/55/59 36/56/60
f 31/57/61 24/58/62 27/59/63 32/60/64
f 17/18/65 18/21/66 38/61/67 39/62/68
f 18/24/69 10/23/70 37/63/71 38/64/72
f 38/64/73 37/63/74 40/65/75 41/66/76
f 39/62/77 38/61/78 41/67/79 42/68/80
f 41/69/81 40/70/82 43/71/83 44/72/84
f 42/68/85 41/67/86 44/73/87 45/74/88
f 44/72/89 43/71/90 36/56/91 28/55/92
f 45/74/93 44/73/94 28/34/95 29/33/96
f 11/2/97 12/1/98 50/75/99 51/76/100
f 12/6/101 13/5/102 49/77/103 50/78/104
f 13/12/105 14/11/106 48/79/107 49/80/108
f 14/27/109 15/30/110 47/81/111 48/82/112
f 15/14/113 16/13/114 46/83/115 47/84/116
f 16/19/117 17/18/118 39/62/119 46/85/120
f 46/85/121 39/62/122 58/86/123 59/87/124
f 47/84/125 46/83/126 59/88/127 60/89/128
f 48/82/129 47/81/130 60/90/131 61/91/132
f 49/80/133 48/79/134 61/92/135 62/93/136
f 50/78/137 49/77/138 62/94/139 63/95/140
f 51/76/141 50/75/142 63/96/143 64/97/144
f 52/98/145 45/74/146 29/33/147 30/35/148
f 53/99/149 52/100/150 30/39/151 31/38/152
f 54/101/153 53/102/154 31/57/155 32/60/156
f 55/103/157 54/104/158 32/42/159 33/41/160
f 56/105/161 55/106/162 33/47/163 34/46/164
f 57/107/165 56/108/166 34/51/167 35/50/168
f 39/62/169 42/68/170 45/74/171 58/86/172
f 59/87/173 58/86/174 45/74/175 52/98/176
f 60/109/177 59/110/178 52/100/179 53/99/180
f 61/91/181 60/90/182 53/102/183 54/101/184
f 62/111/185 61/112/186 54/104/187 55/103/188
f 63/95/189 62/94/190 55/106/191 56/105/192
f 64/97/193 63/96/194 56/108/195 57/107/196
