# This file uses centimeters as units for non-parametric coordinates.

mtllib Let us in sign.mtl
g default
v -79.758980 147.390488 13.668080
v 79.758987 147.390503 13.668080
v -0.000015 285.506592 16.570477
v 0.000005 101.351791 12.700615
v 79.758972 239.467926 15.603012
v -79.758995 239.467896 15.603011
v -0.000003 193.429199 14.635546
v -92.097740 193.429184 14.635546
v -46.048866 113.687820 12.959846
v 0.000001 147.390503 13.668080
v -39.879498 216.448547 15.119278
v -39.879494 170.409836 14.151813
v 46.048882 113.687828 12.959846
v 92.097740 193.429214 14.635546
v 39.879486 216.448563 15.119279
v 39.879494 170.409851 14.151814
v 46.048855 273.170593 16.311245
v -46.048882 273.170563 16.311245
v -0.000008 239.467896 15.603011
v -59.819244 227.958221 15.361145
v -88.959587 217.260574 15.136343
v -65.988617 181.919510 14.393680
v -39.879494 193.429199 14.635546
v -62.903934 204.938873 14.877412
v -88.959587 169.597809 14.134748
v -65.122932 128.320633 13.267343
v -42.964180 142.048828 13.555830
v -64.446274 156.229340 13.853821
v -23.836647 104.489250 12.766545
v 0.000003 124.371140 13.184347
v -19.939747 158.900177 13.909946
v -21.482088 133.209991 13.370089
v -0.000001 170.409851 14.151813
v -19.939749 204.938873 14.877412
v -19.939749 181.919525 14.393680
v 23.836657 104.489250 12.766545
v 42.964184 142.048843 13.555830
v 19.939747 158.900177 13.909946
v 21.482094 133.209991 13.370089
v 65.122940 128.320648 13.267343
v 88.959587 169.597824 14.134748
v 65.988617 181.919540 14.393680
v 64.446274 156.229355 13.853822
v 88.959587 217.260605 15.136343
v 59.819229 227.958237 15.361145
v 39.879486 193.429199 14.635546
v 62.903923 204.938889 14.877413
v 19.939741 204.938873 14.877412
v 19.939743 181.919525 14.393680
v 65.122932 258.537781 16.003750
v 23.024424 256.319244 15.957129
v 19.939739 227.958237 15.361145
v 41.421825 242.138733 15.659137
v 23.836632 282.369141 16.504545
v -23.836662 282.369141 16.504545
v -23.024443 256.319244 15.957129
v -0.000012 267.828918 16.198996
v -65.122955 258.537750 16.003748
v -19.939753 227.958221 15.361145
v -41.421844 242.138733 15.659137
v -0.000005 216.448547 15.119279
v 4.085886 -209.657318 -7.076958
v -4.085883 -209.657318 -7.076960
v -8.171768 -209.657318 -0.000001
v -4.085885 -209.657318 7.076959
v 4.085884 -209.657318 7.076959
v 8.171768 -209.657318 0.000000
v 4.085886 209.657318 -7.076958
v -4.085883 209.657318 -7.076960
v -8.171768 209.657318 -0.000001
v -4.085885 209.657318 7.076959
v 4.085884 209.657318 7.076959
v 8.171768 209.657318 0.000000
v 0.000000 -209.657318 0.000000
v 0.000000 209.657318 0.000000
vt 0.267071 0.263918
vt 0.732929 0.263918
vt 0.500000 0.972164
vt 0.500000 0.027836
vt 0.732929 0.736082
vt 0.267071 0.736082
vt 0.500000 0.500000
vt 0.231037 0.500000
vt 0.365518 0.091094
vt 0.500000 0.263918
vt 0.383536 0.618041
vt 0.383536 0.381959
vt 0.634482 0.091094
vt 0.768963 0.500000
vt 0.616464 0.618041
vt 0.616464 0.381959
vt 0.634482 0.908906
vt 0.365518 0.908906
vt 0.500000 0.736082
vt 0.325303 0.677062
vt 0.240202 0.622205
vt 0.307286 0.440979
vt 0.383536 0.500000
vt 0.316295 0.559020
vt 0.240202 0.377795
vt 0.309814 0.166129
vt 0.374527 0.236526
vt 0.311790 0.309243
vt 0.430387 0.043924
vt 0.500000 0.145877
vt 0.441768 0.322938
vt 0.437263 0.191202
vt 0.500000 0.381959
vt 0.441768 0.559021
vt 0.441768 0.440979
vt 0.569613 0.043924
vt 0.625473 0.236526
vt 0.558232 0.322938
vt 0.562737 0.191202
vt 0.690186 0.166129
vt 0.759798 0.377795
vt 0.692714 0.440980
vt 0.688210 0.309243
vt 0.759798 0.622205
vt 0.674697 0.677062
vt 0.616464 0.500000
vt 0.683705 0.559021
vt 0.558232 0.559021
vt 0.558232 0.440980
vt 0.690186 0.833871
vt 0.567241 0.822494
vt 0.558232 0.677062
vt 0.620969 0.749778
vt 0.569613 0.956076
vt 0.430387 0.956076
vt 0.432759 0.822494
vt 0.500000 0.881515
vt 0.309814 0.833871
vt 0.441768 0.677062
vt 0.379031 0.749778
vt 0.500000 0.618041
vt 0.375000 0.312500
vt 0.416667 0.312500
vt 0.416667 0.688440
vt 0.375000 0.688440
vt 0.458333 0.312500
vt 0.458333 0.688440
vt 0.500000 0.312500
vt 0.500000 0.688440
vt 0.541667 0.312500
vt 0.541667 0.688440
vt 0.583333 0.312500
vt 0.583333 0.688440
vt 0.625000 0.312500
vt 0.625000 0.688440
vt 0.421875 0.020934
vt 0.578125 0.020934
vt 0.500000 0.150000
vt 0.343750 0.156250
vt 0.421875 0.291566
vt 0.578125 0.291566
vt 0.656250 0.156250
vt 0.578125 0.979066
vt 0.421875 0.979066
vt 0.500000 0.837500
vt 0.343750 0.843750
vt 0.421875 0.708434
vt 0.578125 0.708434
vt 0.656250 0.843750
vn 0.000000 -0.021010 0.999779
vn 0.000000 -0.021010 0.999779
vn 0.000000 -0.021010 0.999779
vn 0.000000 -0.021010 0.999779
vn 0.000000 -0.021010 0.999779
vn 0.000000 -0.021010 0.999779
vn 0.000000 -0.021010 0.999779
vn 0.000000 -0.021010 0.999779
vn -0.000000 -0.021010 0.999779
vn 0.000000 -0.021010 0.999779
vn 0.000000 -0.021010 0.999779
vn 0.000000 -0.021009 0.999779
vn -0.000000 -0.021010 0.999779
vn -0.000000 -0.021010 0.999779
vn -0.000000 -0.021010 0.999779
vn -0.000000 -0.021010 0.999779
vn -0.000000 -0.021010 0.999779
vn -0.000000 -0.021010 0.999779
vn -0.000000 -0.021010 0.999779
vn 0.000000 -0.021010 0.999779
vn 0.000000 -0.021010 0.999779
vn 0.000000 -0.021010 0.999779
vn 0.000000 -0.021010 0.999779
vn -0.000000 -0.021010 0.999779
vn 0.000000 -0.021010 0.999779
vn 0.000000 -0.021010 0.999779
vn 0.000000 -0.021010 0.999779
vn 0.000000 -0.021010 0.999779
vn 0.000000 -0.021010 0.999779
vn 0.000000 -0.021010 0.999779
vn 0.000000 -0.021010 0.999779
vn 0.000000 -0.021010 0.999779
vn 0.000000 -0.021010 0.999779
vn -0.000000 -0.021010 0.999779
vn -0.000000 -0.021010 0.999779
vn -0.000000 -0.021010 0.999779
vn 0.000000 -0.021010 0.999779
vn 0.000000 -0.021010 0.999779
vn -0.000000 -0.021010 0.999779
vn 0.000000 -0.021010 0.999779
vn -0.000000 -0.021010 0.999779
vn -0.000000 -0.021010 0.999779
vn 0.000000 -0.021010 0.999779
vn -0.000000 -0.021010 0.999779
vn -0.000000 -0.021010 0.999779
vn -0.000000 -0.021010 0.999779
vn -0.000000 -0.021010 0.999779
vn -0.000000 -0.021010 0.999779
vn -0.000000 -0.021010 0.999779
vn -0.000000 -0.021010 0.999779
vn 0.000000 -0.021010 0.999779
vn 0.000000 -0.021010 0.999779
vn 0.000000 -0.021010 0.999779
vn 0.000000 -0.021010 0.999779
vn -0.000000 -0.021010 0.999779
vn -0.000000 -0.021010 0.999779
vn -0.000000 -0.021010 0.999779
vn 0.000000 -0.021010 0.999779
vn 0.000000 -0.021010 0.999779
vn 0.000000 -0.021010 0.999779
vn 0.000000 -0.021010 0.999779
vn 0.000000 0.000000 -1.000000
vn 0.000000 0.000000 -1.000000
vn 0.000000 0.000000 -1.000000
vn 0.000000 0.000000 -1.000000
vn -0.866025 0.000000 -0.500000
vn -0.866025 0.000000 -0.500000
vn -0.866025 0.000000 -0.500000
vn -0.866025 0.000000 -0.500000
vn -0.866026 0.000000 0.500000
vn -0.866026 0.000000 0.500000
vn -0.866026 0.000000 0.500000
vn -0.866026 0.000000 0.500000
vn -0.000000 0.000000 1.000000
vn -0.000000 0.000000 1.000000
vn -0.000000 0.000000 1.000000
vn -0.000000 0.000000 1.000000
vn 0.866025 0.000000 0.500000
vn 0.866025 0.000000 0.500000
vn 0.866025 0.000000 0.500000
vn 0.866025 0.000000 0.500000
vn 0.866026 0.000000 -0.500000
vn 0.866026 0.000000 -0.500000
vn 0.866026 0.000000 -0.500000
vn 0.866026 0.000000 -0.500000
vn 0.000000 -1.000000 -0.000002
vn 0.000000 -1.000000 -0.000001
vn 0.000000 -1.000000 -0.000000
vn 0.000000 -1.000000 0.000000
vn 0.000000 -1.000000 0.000001
vn 0.000000 -1.000000 0.000001
vn 0.000000 -1.000000 0.000001
vn 0.000000 1.000000 -0.000002
vn 0.000000 1.000000 -0.000002
vn 0.000000 1.000000 -0.000000
vn 0.000000 1.000000 0.000000
vn 0.000000 1.000000 0.000001
vn 0.000000 1.000000 0.000001
vn 0.000000 1.000000 0.000000
s 1
g Let_us_in_sign
usemtl lambert2SG
f 23/23/1 11/11/2 20/20/3 24/24/4
f 20/20/3 6/6/5 21/21/6 24/24/4
f 21/21/6 8/8/7 22/22/8 24/24/4
f 22/22/8 12/12/9 23/23/1 24/24/4
f 22/22/8 8/8/7 25/25/10 28/28/11
f 25/25/10 1/1/12 26/26/13 28/28/11
f 26/26/13 9/9/14 27/27/15 28/28/11
f 27/27/15 12/12/9 22/22/8 28/28/11
f 27/27/15 9/9/14 29/29/16 32/32/17
f 29/29/16 4/4/18 30/30/19 32/32/17
f 30/30/19 10/10/20 31/31/21 32/32/17
f 31/31/21 12/12/9 27/27/15 32/32/17
f 31/31/21 10/10/20 33/33/22 35/35/23
f 33/33/22 7/7/24 34/34/25 35/35/23
f 34/34/25 11/11/2 23/23/1 35/35/23
f 23/23/1 12/12/9 31/31/21 35/35/23
f 38/38/26 10/10/20 30/30/19 39/39/27
f 30/30/19 4/4/18 36/36/28 39/39/27
f 36/36/28 13/13/29 37/37/30 39/39/27
f 37/37/30 16/16/31 38/38/26 39/39/27
f 37/37/30 13/13/29 40/40/32 43/43/33
f 40/40/32 2/2/34 41/41/35 43/43/33
f 41/41/35 14/14/36 42/42/37 43/43/33
f 42/42/37 16/16/31 37/37/30 43/43/33
f 42/42/37 14/14/36 44/44/38 47/47/39
f 44/44/38 5/5/40 45/45/41 47/47/39
f 45/45/41 15/15/42 46/46/43 47/47/39
f 46/46/43 16/16/31 42/42/37 47/47/39
f 46/46/43 15/15/42 48/48/44 49/49/45
f 48/48/44 7/7/24 33/33/22 49/49/45
f 33/33/22 10/10/20 38/38/26 49/49/45
f 38/38/26 16/16/31 46/46/43 49/49/45
f 52/52/46 15/15/42 45/45/41 53/53/47
f 45/45/41 5/5/40 50/50/48 53/53/47
f 50/50/48 17/17/49 51/51/50 53/53/47
f 51/51/50 19/19/51 52/52/46 53/53/47
f 51/51/50 17/17/49 54/54/52 57/57/53
f 54/54/52 3/3/54 55/55/55 57/57/53
f 55/55/55 18/18/56 56/56/57 57/57/53
f 56/56/57 19/19/51 51/51/50 57/57/53
f 56/56/57 18/18/56 58/58/58 60/60/59
f 58/58/58 6/6/5 20/20/3 60/60/59
f 20/20/3 11/11/2 59/59/60 60/60/59
f 59/59/60 19/19/51 56/56/57 60/60/59
f 59/59/60 11/11/2 34/34/25 61/61/61
f 34/34/25 7/7/24 48/48/44 61/61/61
f 48/48/44 15/15/42 52/52/46 61/61/61
f 52/52/46 19/19/51 59/59/60 61/61/61
s off
usemtl lambert4SG
f 62/62/62 63/63/63 69/64/64 68/65/65
f 63/63/66 64/66/67 70/67/68 69/64/69
f 64/66/70 65/68/71 71/69/72 70/67/73
f 65/68/74 66/70/75 72/71/76 71/69/77
f 66/70/78 67/72/79 73/73/80 72/71/81
f 67/72/82 62/74/83 68/75/84 73/73/85
s 2
f 63/76/86 62/77/87 74/78/88
f 64/79/89 63/76/86 74/78/88
f 65/80/90 64/79/89 74/78/88
f 66/81/91 65/80/90 74/78/88
f 67/82/92 66/81/91 74/78/88
f 62/77/87 67/82/92 74/78/88
s 3
f 68/83/93 69/84/94 75/85/95
f 69/84/94 70/86/96 75/85/95
f 70/86/96 71/87/97 75/85/95
f 71/87/97 72/88/98 75/85/95
f 72/88/98 73/89/99 75/85/95
f 73/89/99 68/83/93 75/85/95
