# This file uses centimeters as units for non-parametric coordinates.

mtllib modernstool.mtl
g default
v 0.476658 0.424196 -0.656063
v 0.425542 0.424196 -0.726417
v -0.262546 0.117438 -0.502844
v 0.051396 0.117438 -0.070741
v 1.067332 0.117438 -1.469057
v 1.381274 0.117438 -1.036953
v 0.559364 0.117438 0.094307
v 0.642071 0.424196 -0.883734
v 0.693186 0.424196 -0.813380
v 1.381274 0.117438 -0.502844
v 1.067332 0.117438 -0.070741
v 0.559364 0.424196 -0.629190
v -0.423392 2.463685 -1.567556
v -0.395375 2.430618 -1.567556
v -0.395375 2.430618 -1.454307
v -0.423392 2.463685 -1.454306
v -0.315273 2.430618 -1.567556
v -0.315272 2.430618 -1.454307
v -0.410376 2.541868 -1.454306
v -0.410376 2.541868 -1.567556
v 0.693186 0.424196 -0.726417
v -0.282206 2.458634 -1.567556
v -0.282205 2.458635 -1.454306
v -0.268349 2.541868 -1.567556
v -0.268349 2.541868 -1.454306
v 0.642071 0.424196 -0.656063
v -0.395375 2.430618 -0.100711
v -0.423392 2.463685 -0.100711
v -0.315272 2.430618 -0.100711
v -0.283321 3.785557 -1.454305
v -0.283321 3.785557 -1.567554
v -0.410552 2.540811 -0.100711
v -0.141294 3.785557 -1.567554
v -0.282205 2.458634 -0.100711
v -0.268525 2.540811 -0.100711
v -0.141294 3.907733 -1.567554
v 1.245646 3.902858 -1.567572
v -0.141294 3.785557 -1.454305
v -0.141294 3.907733 -1.454305
v 1.230394 3.785557 -1.567554
v 0.476658 3.785557 -0.883734
v 0.476658 0.424196 -0.883734
v 0.425542 0.424196 -0.813380
v 0.425542 3.785557 -0.813380
v 0.559364 3.785557 -0.910607
v 0.559364 0.424196 -0.910607
v 1.245591 3.902900 -1.454322
v 0.425542 3.785557 -0.726417
v -0.141294 3.907733 -0.100713
v 0.642071 3.785557 -0.883734
v 0.476658 3.785557 -0.656063
v 0.693186 3.785557 -0.813380
v 1.362470 3.805012 -1.567554
v 0.559364 3.785557 -0.629190
v -0.395375 2.430618 0.027759
v -0.423392 2.463685 0.027759
v 1.418940 3.897389 -1.567479
v 0.693186 3.785557 -0.726417
v 1.362470 3.805012 -1.454305
v -0.315273 2.430618 0.027759
v -0.410552 2.540811 0.027759
v 0.642071 3.785557 -0.656063
v -0.232250 3.888319 -1.454305
v -0.232250 3.888319 -1.567554
v 1.418885 3.897431 -1.454230
v 1.454792 4.155645 -1.567527
v -0.282206 2.458634 0.027759
v 1.285414 4.183506 -1.567619
v -0.268525 2.540811 0.027759
v 1.324857 4.211806 -1.567610
v 1.426492 4.195089 -1.567555
v 1.244939 3.903408 -0.100730
v -0.141294 3.907733 0.027757
v 1.362470 3.805012 -0.100713
v -0.141294 3.785557 0.027757
v 1.244877 3.903457 0.027739
v 1.230394 3.785557 0.027757
v 1.418233 3.897939 -0.100639
v -0.283321 3.785557 0.027757
v -0.283321 3.785557 -0.100713
v -0.141294 3.785557 -0.100713
v -0.232250 3.888319 -0.100713
v 1.230394 3.785557 -1.454305
v 1.362470 3.805012 0.027757
v 1.418171 3.897987 0.027832
v 1.454023 4.156244 0.027785
v 1.284645 4.184105 0.027692
v 1.324088 4.212405 0.027701
v 1.425723 4.195688 0.027756
v -0.232250 3.888319 0.027757
v 1.285359 4.183548 -1.454369
v 1.454738 4.155688 -1.454277
v 1.324803 4.211849 -1.454361
v 1.426437 4.195132 -1.454305
v 1.230394 3.785557 -0.100713
v 1.284706 4.184056 -0.100777
v 1.454085 4.156196 -0.100686
v 1.324150 4.212357 -0.100769
v 1.425784 4.195640 -0.100714
v 0.559364 0.117438 -1.634105
v -0.262546 0.117438 -1.036953
v 0.051396 0.117438 -1.469057
v -0.345706 -0.000000 -0.475824
v -0.000000 -0.000000 -0.000000
v 1.118728 -0.000000 -1.539797
v 1.464435 -0.000000 -1.063973
v 0.559364 -0.000000 0.181748
v 1.464434 -0.000000 -0.475824
v 1.118728 -0.000000 -0.000000
v 0.559364 -0.000000 -1.721545
v -0.345706 -0.000000 -1.063973
v -0.000000 -0.000000 -1.539797
vt 0.079495 0.589219
vt 0.065398 0.589097
vt 0.065483 0.579365
vt 0.079579 0.579487
vt 0.078155 0.744021
vt 0.064059 0.743899
vt 0.065518 0.575249
vt 0.079614 0.575371
vt 0.248061 0.580946
vt 0.247978 0.590546
vt 0.341874 0.931028
vt 0.063948 0.756689
vt 0.248096 0.576830
vt 0.263968 0.590684
vt 0.264051 0.581084
vt 0.246636 0.745479
vt 0.246525 0.758270
vt 0.264087 0.576968
vt 0.262627 0.745618
vt 0.262516 0.758408
vt 0.290345 0.553514
vt 0.272118 0.553183
vt 0.272361 0.539787
vt 0.290588 0.540118
vt 0.286716 0.753682
vt 0.268489 0.753352
vt 0.054264 0.549064
vt 0.054503 0.535838
vt 0.290670 0.535608
vt 0.272443 0.535278
vt 0.033587 0.548689
vt 0.033826 0.535463
vt 0.054585 0.531328
vt 0.050632 0.749402
vt 0.029955 0.749027
vt 0.033908 0.530953
vt 0.075788 0.442768
vt 0.075788 0.199002
vt 0.082095 0.199002
vt 0.082095 0.442768
vt 0.069482 0.442768
vt 0.069482 0.199002
vt 0.088401 0.199002
vt 0.088402 0.442768
vt 0.044256 0.442768
vt 0.044256 0.199002
vt 0.050562 0.199002
vt 0.050562 0.442768
vt 0.101015 0.442768
vt 0.101014 0.199002
vt 0.056869 0.199002
vt 0.056869 0.442768
vt 0.025686 0.854738
vt 0.204067 0.968186
vt 0.204363 0.935087
vt 0.025754 0.892750
vt 0.214935 0.852772
vt 0.214500 0.891273
vt 0.025765 0.899261
vt 0.204414 0.929418
vt 0.232385 0.852972
vt 0.231950 0.891472
vt 0.214424 0.897867
vt 0.231874 0.898066
vt 0.041039 0.954525
vt 0.025852 0.954550
vt 0.025798 0.919584
vt 0.204575 0.911722
vt 0.204980 0.868633
vt 0.025865 0.969069
vt 0.204524 0.917391
vt 0.025788 0.913074
vt 0.046796 0.879841
vt 0.214189 0.918451
vt 0.213599 0.968586
vt 0.214264 0.911857
vt 0.231229 0.954066
vt 0.231639 0.918651
vt 0.231049 0.968787
vt 0.231714 0.912057
vt 0.121806 0.033547
vt 0.147574 0.033704
vt 0.147526 0.038961
vt 0.121758 0.038803
vt 0.173343 0.033862
vt 0.173295 0.039119
vt 0.096038 0.033389
vt 0.095990 0.038645
vt 0.250647 0.034336
vt 0.018734 0.032916
vt 0.017824 0.038172
vt 0.250599 0.039592
vt 0.044502 0.033073
vt 0.044454 0.038330
vt 0.224879 0.034178
vt 0.224831 0.039434
vt 0.125621 0.170285
vt 0.100020 0.170285
vt 0.100020 0.042278
vt 0.125621 0.042278
vt 0.253627 0.170285
vt 0.228026 0.170285
vt 0.228026 0.042278
vt 0.151222 0.170285
vt 0.151222 0.042278
vt 0.202425 0.170285
vt 0.202425 0.042278
vt 0.176824 0.170285
vt 0.176824 0.042278
vt 0.023216 0.170285
vt 0.023216 0.042278
vt 0.074419 0.170285
vt 0.074419 0.042278
vt 0.048817 0.170285
vt 0.048817 0.042278
vt 0.269779 0.500313
vt 0.289806 0.499762
vt 0.290196 0.513928
vt 0.270168 0.514479
vt 0.030793 0.521058
vt 0.030404 0.506892
vt 0.008074 0.521682
vt 0.007685 0.507516
vt 0.002387 0.534735
vt 0.011276 0.534735
vt 0.011287 0.619449
vt 0.002398 0.619449
vt 0.279937 0.796273
vt 0.171127 0.796272
vt 0.171127 0.787387
vt 0.627838 0.728128
vt 0.163991 0.787387
vt 0.163991 0.796272
vt 0.474889 0.890101
vt 0.282539 0.775531
vt 0.475062 0.900555
vt 0.173784 0.765451
vt 0.282534 0.765452
vt 0.166648 0.765451
vt 0.314064 0.901687
vt 0.313708 0.886165
vt 0.461635 0.882772
vt 0.461992 0.898294
vt 0.382331 0.822612
vt 0.391834 0.822394
vt 0.374514 0.817202
vt 0.399395 0.816631
vt 0.310269 0.736260
vt 0.371370 0.808231
vt 0.458197 0.732867
vt 0.254679 0.812453
vt 0.253293 0.913858
vt 0.374099 0.799125
vt 0.402124 0.807525
vt 0.398980 0.798554
vt 0.264500 0.808831
vt 0.263115 0.910235
vt 0.253160 0.923621
vt 0.381660 0.793362
vt 0.391163 0.793144
vt 0.272479 0.920129
vt 0.262981 0.919999
vt 0.230375 0.733478
vt 0.218295 0.734421
vt 0.220844 0.627792
vt 0.232925 0.626849
vt 0.226714 0.742558
vt 0.219106 0.744813
vt 0.233513 0.620112
vt 0.101103 0.753607
vt 0.101622 0.743529
vt 0.230910 0.617486
vt 0.090517 0.746060
vt 0.086327 0.754293
vt 0.224096 0.618018
vt 0.099584 0.777743
vt 0.221470 0.620620
vt 0.096417 0.780412
vt 0.084992 0.776497
vt 0.087661 0.779665
vt 0.063891 0.633206
vt 0.055054 0.632252
vt 0.055506 0.554013
vt 0.064344 0.554967
vt 0.063175 0.442768
vt 0.063175 0.199002
vt 0.094708 0.199002
vt 0.094708 0.442768
vt 0.150773 0.806254
vt 0.026766 0.800325
vt 0.027322 0.789397
vt 0.150015 0.795643
vt 0.014619 0.788750
vt 0.018719 0.798174
vt 0.161740 0.797984
vt 0.166299 0.806554
vt 0.008906 0.676833
vt 0.021610 0.677480
vt 0.153053 0.831538
vt 0.008109 0.669876
vt 0.156452 0.834249
vt 0.010765 0.667045
vt 0.168330 0.829817
vt 0.017930 0.667410
vt 0.165619 0.833217
vt 0.020760 0.670067
vt 0.012841 0.540436
vt 0.021646 0.539224
vt 0.024381 0.617484
vt 0.015576 0.618696
vt 0.199111 0.034020
vt 0.199062 0.039276
vt 0.070270 0.033231
vt 0.070222 0.038488
vt 0.107321 0.442768
vt 0.107321 0.199002
vt 0.046465 0.915956
vt 0.046516 0.910287
vt 0.046355 0.927983
vt 0.046304 0.933652
vt 0.213779 0.953866
vt 0.472262 0.730771
vt 0.046008 0.966751
vt 0.046921 0.867186
vt 0.272612 0.910365
vt 0.273998 0.808961
vt 0.040975 0.913048
vt 0.040986 0.919559
vt 0.040952 0.899235
vt 0.040941 0.892725
vt 0.204855 0.881276
vt 0.279933 0.787388
vt 0.040873 0.854713
vt 0.041053 0.969045
vt 0.244788 0.923507
vt 0.244921 0.913743
vt 0.559712 0.926165
vt 0.166648 0.775530
vt 0.173784 0.775530
vt 0.246307 0.812339
vt 0.559343 0.909627
vt 0.078044 0.756811
vt 0.630640 0.897987
vt 0.630467 0.887533
vt 0.341505 0.914490
vt 0.047063 0.851597
vt 0.205122 0.853044
vt 0.276416 0.034493
vt 0.277246 0.039750
vt 0.279229 0.170285
vt 0.253627 0.042278
vt 0.279229 0.042278
vn -0.229445 0.920664 0.315804
vn -0.371250 0.920664 0.120626
vn -0.510170 0.843948 0.165764
vn -0.315302 0.843948 0.433977
vn 0.229445 0.920664 -0.315804
vn 0.371250 0.920664 -0.120626
vn 0.510170 0.843948 -0.165764
vn 0.315302 0.843948 -0.433977
vn 0.000000 0.920664 0.390355
vn -0.000000 0.843948 0.536425
vn -0.991031 -0.133630 0.000000
vn -0.292466 -0.956276 0.000000
vn -0.292466 -0.956276 0.000000
vn -0.990856 -0.134921 0.000000
vn 0.240311 -0.970696 -0.000001
vn 0.240311 -0.970696 -0.000000
vn -0.991539 0.129813 0.000000
vn -0.994433 0.105374 0.000000
vn 0.371250 0.920664 0.120627
vn 0.510170 0.843948 0.165765
vn 0.921394 -0.388631 -0.000002
vn 0.921023 -0.389509 -0.000000
vn 0.994409 -0.105601 -0.000002
vn 0.991410 -0.130791 -0.000001
vn 0.229445 0.920664 0.315804
vn 0.315302 0.843948 0.433977
vn -0.292466 -0.956276 0.000000
vn -0.990825 -0.135151 0.000000
vn 0.240311 -0.970696 0.000000
vn -0.956161 0.292841 0.000000
vn -0.991363 0.131150 0.000000
vn -0.991768 0.128046 0.000000
vn 0.000000 0.000001 -1.000000
vn -0.000003 -0.000034 -1.000000
vn 0.000000 0.000001 -1.000000
vn 0.000000 0.000001 -1.000000
vn 0.920956 -0.389666 0.000000
vn -0.000001 0.000001 -1.000000
vn -0.000001 0.000002 -1.000000
vn 0.000000 1.000000 0.000780
vn 0.000000 1.000000 0.000780
vn 0.000000 1.000000 0.000780
vn 0.000000 1.000000 0.000780
vn -0.000006 -0.000068 -1.000000
vn 0.000083 -0.000071 -1.000000
vn 0.000014 -0.000055 -1.000000
vn 0.000000 -0.000001 1.000000
vn 0.000000 -0.000001 1.000000
vn 0.000000 -0.000001 1.000000
vn 0.000000 -0.000001 1.000000
vn 0.991643 -0.129012 0.000001
vn 0.994822 -0.101631 -0.000002
vn 0.994822 -0.101631 -0.000002
vn 0.003500 0.999994 -0.000189
vn -0.009852 0.999951 -0.000177
vn -0.010026 0.999950 -0.000175
vn 0.003317 0.999995 -0.000187
vn -0.587785 0.000000 -0.809017
vn -0.587785 0.000000 -0.809017
vn -0.951057 0.000000 -0.309017
vn -0.951057 0.000000 -0.309017
vn -0.000000 0.000000 -1.000000
vn -0.000000 0.000000 -1.000000
vn -0.951056 0.000000 0.309017
vn -0.951056 0.000000 0.309017
vn -0.010057 0.999949 -0.000176
vn 0.003285 0.999995 -0.000187
vn 0.587785 0.000000 -0.809017
vn 0.587785 0.000000 -0.809017
vn -0.587785 0.000000 0.809017
vn -0.587785 0.000000 0.809017
vn 0.951057 0.000000 -0.309017
vn 0.951057 0.000000 -0.309017
vn 0.000294 0.000174 -1.000000
vn 0.000450 -0.000113 -1.000000
vn 0.000000 0.000000 1.000000
vn 0.000000 0.000000 1.000000
vn -0.292466 -0.956276 0.000000
vn -0.990648 -0.136441 0.000000
vn 0.951056 0.000000 0.309017
vn 0.951056 0.000000 0.309017
vn 0.511704 -0.859162 0.000150
vn 0.510180 -0.860068 0.000150
vn 0.967051 -0.254583 0.000471
vn 0.967319 -0.253562 0.000471
vn 0.240310 -0.970696 0.000001
vn -0.994433 0.105374 0.000000
vn 0.587785 0.000000 0.809017
vn 0.587785 0.000000 0.809017
vn -0.895504 0.445053 0.000000
vn -0.895504 0.445054 0.000000
vn 0.000000 0.000000 -1.000000
vn 0.920585 -0.390542 0.000002
vn 0.994409 -0.105601 0.000002
vn 0.000473 -0.000266 -1.000000
vn 0.000490 -0.000272 -1.000000
vn 0.000533 -0.000260 -1.000000
vn 0.000488 -0.000367 -1.000000
vn -0.208743 0.977971 0.000000
vn -0.208743 0.977971 0.000000
vn -0.010231 0.999948 -0.000182
vn 0.003102 0.999995 -0.000193
vn 0.512120 -0.858914 0.000150
vn 0.967387 -0.253304 0.000471
vn -0.000082 0.000072 1.000000
vn 0.000006 0.000069 1.000000
vn 0.000003 0.000036 1.000000
vn -0.000014 0.000057 1.000000
vn -0.991359 0.131176 0.000000
vn -0.959192 0.282757 0.000000
vn -0.000000 -0.000001 -1.000000
vn -0.000000 -0.000001 -1.000000
vn -0.000000 -0.000001 -1.000000
vn -0.000000 -0.000001 -1.000000
vn 0.000000 -1.000000 0.000000
vn 0.000000 -1.000000 0.000001
vn 0.000000 -1.000000 -0.000000
vn 0.000000 -1.000000 0.000000
vn -0.895504 0.445053 0.000000
vn 0.000000 -1.000000 0.000004
vn 0.012936 -0.999916 0.000003
vn 0.040703 -0.999171 0.000001
vn -0.000294 -0.000171 1.000000
vn -0.000450 0.000113 1.000000
vn 0.513647 -0.858002 0.000150
vn 0.967653 -0.252284 0.000470
vn 0.000000 0.000001 1.000000
vn 0.000000 0.000001 1.000000
vn 0.000000 0.000001 1.000000
vn 0.994817 -0.101685 0.000002
vn 0.994817 -0.101685 0.000002
vn -0.208743 0.977971 0.000000
vn -0.000474 0.000265 1.000000
vn -0.000491 0.000271 1.000000
vn -0.000533 0.000260 1.000000
vn -0.000481 0.000380 1.000000
vn -0.895504 0.445054 0.000000
vn 0.000000 0.000000 1.000000
vn -0.208742 0.977971 0.000000
vn -0.990109 0.140297 -0.000529
vn -0.990109 0.140297 -0.000530
vn -0.968670 0.248350 -0.000560
vn -0.968670 0.248349 -0.000559
vn 0.999678 -0.025367 0.000492
vn 0.999678 -0.025366 0.000491
vn -0.081830 0.996646 -0.000410
vn -0.081831 0.996646 -0.000414
vn 0.396750 0.917926 -0.000153
vn 0.396752 0.917926 -0.000150
vn 0.000000 -1.000000 -0.000003
vn 0.040781 -0.999168 -0.000000
vn 0.012936 -0.999916 -0.000003
vn -0.990109 0.140297 -0.000530
vn -0.968667 0.248364 -0.000560
vn 0.999678 -0.025352 0.000491
vn -0.081832 0.996646 -0.000414
vn 0.396750 0.917927 -0.000153
vn -0.000001 0.000001 1.000000
vn -0.990109 0.140297 -0.000530
vn -0.968666 0.248366 -0.000560
vn 0.999678 -0.025352 0.000491
vn -0.081830 0.996646 -0.000413
vn 0.396753 0.917926 -0.000152
vn 0.000000 -1.000000 -0.000001
vn 0.000000 -1.000000 -0.000001
vn 0.000000 -1.000000 0.000000
vn 0.000000 -1.000000 0.000000
vn -0.000000 0.920664 -0.390355
vn -0.000000 0.843948 -0.536425
vn -0.371250 0.920664 -0.120626
vn -0.510170 0.843948 -0.165764
vn -0.229445 0.920664 -0.315804
vn -0.315302 0.843948 -0.433977
vn 0.000001 0.000001 -1.000000
vn 0.000009 -0.000001 -1.000000
vn -0.000002 0.000002 1.000000
vn 0.000001 0.000001 1.000000
vn 0.000011 -0.000001 1.000000
vn 0.000000 -1.000000 0.000000
vn 0.000000 -1.000000 0.000003
vn 0.000000 -1.000000 0.000001
vn 0.000000 -1.000000 0.000000
vn 0.000000 -1.000000 0.000000
vn 0.000000 -1.000000 -0.000000
vn -0.762831 0.597205 0.247859
vn -0.471456 0.597205 0.648904
vn 0.762832 0.597205 -0.247859
vn 0.471456 0.597205 -0.648904
vn -0.000000 0.597205 0.802089
vn 0.762832 0.597205 0.247859
vn 0.471456 0.597205 0.648904
vn -0.000000 0.597204 -0.802089
vn -0.762831 0.597205 -0.247859
vn -0.471456 0.597205 -0.648904
s 1
g modernstool
usemtl Books_on_Shelf:mat6
f 1/97/1 2/98/2 3/99/3 4/100/4
f 8/101/5 9/102/6 6/103/7 5/251/8
f 12/104/9 1/97/1 4/100/4 7/105/10
s 3
f 13/3/11 14/7/12 15/8/13 16/4/14
f 15/116/13 14/117/12 17/118/15 18/119/16
f 19/1/17 20/2/18 13/3/11 16/4/14
s 1
f 9/102/6 21/106/19 10/107/20 6/103/7
s 3
f 17/29/15 22/24/21 23/23/22 18/30/16
f 24/21/23 25/22/24 23/23/22 22/24/21
s 1
f 26/108/25 12/104/9 7/105/10 11/109/26
f 21/106/19 26/108/25 11/109/26 10/107/20
s 3
f 27/13/27 28/9/28 16/4/14 15/8/13
f 29/120/29 27/121/27 15/116/13 18/119/16
f 30/5/30 31/6/31 20/2/18 19/1/17
f 28/9/28 32/10/32 19/1/17 16/4/14
s 4
f 31/163/33 33/164/34 24/165/35 20/166/36
s 3
f 34/28/37 29/33/29 18/30/16 23/23/22
s 4
f 13/169/38 24/165/35 14/172/39
s off
f 32/124/40 35/125/41 25/126/42 19/127/43
s 4
f 33/164/34 36/168/44 37/170/45 40/171/46
s off
f 38/181/47 30/182/48 19/183/49 25/184/50
s 3
f 35/27/51 34/28/37 23/23/22 25/22/24
f 33/25/52 38/26/53 25/22/24 24/21/23
s 5
f 37/128/54 36/129/55 39/130/56 47/232/57
s 6
f 41/41/58 42/42/59 43/38/60 44/37/61
f 45/185/62 46/186/63 42/42/59 41/41/58
f 44/37/61 43/38/60 2/39/64 48/40/65
s 5
f 47/131/57 39/244/56 49/134/66 72/222/67
s 6
f 50/52/68 8/51/69 46/186/63 45/185/62
f 48/40/65 2/39/64 1/43/70 51/44/71
f 52/48/72 9/47/73 8/51/69 50/52/68
s 4
f 53/173/74 40/171/46 37/170/45 57/174/75
s 6
f 51/44/71 1/43/70 12/187/76 54/188/77
s 3
f 28/9/28 27/13/27 55/18/78 56/15/79
s 6
f 58/45/80 21/46/81 9/47/73 52/48/72
s 7
f 59/234/82 53/70/83 57/66/84 65/65/85
s 3
f 27/121/27 29/120/29 60/122/86 55/123/78
f 61/14/87 32/10/32 28/9/28 56/15/79
s 6
f 54/188/77 12/187/76 26/50/88 62/49/89
s 3
f 31/6/31 30/5/30 63/242/90 64/12/91
s 4
f 64/167/92 36/168/44 33/164/34 31/163/33
s 6
f 62/49/89 26/50/88 21/216/81 58/215/80
s 3
f 29/33/29 34/28/37 67/32/93 60/36/86
f 35/27/51 69/31/94 67/32/93 34/28/37
s 4
f 37/170/45 68/176/95 57/174/75
f 68/176/95 70/178/96 57/174/75
f 57/174/75 70/178/96 66/179/97
f 70/178/96 71/180/98 66/179/97
s 5
f 63/132/99 39/130/56 36/129/55 64/133/100
f 72/135/67 49/239/66 73/137/101 76/138/102
s 7
f 74/224/103 59/69/82 65/231/85 78/73/104
s 8
f 76/189/105 73/190/106 75/191/107 77/192/108
s 3
f 79/19/109 80/16/110 32/10/32 61/14/87
s off
f 80/207/111 81/208/112 35/209/113 32/210/114
s 7
f 30/140/115 38/141/116 81/142/117 80/143/118
s 3
f 63/11/90 30/245/30 80/241/110 82/237/119
s 7
f 38/240/116 33/151/120 40/152/121 83/236/122
s 8
f 76/189/105 77/192/108 84/195/123 85/196/124
s 7
f 84/79/125 74/75/103 78/221/104 85/77/126
s 8
f 75/191/107 79/193/127 61/197/128 69/198/129
s 3
f 81/34/130 75/35/131 69/31/94 35/27/51
s 5
f 82/136/132 49/134/66 39/244/56 63/243/99
s 8
f 76/189/105 85/196/124 87/199/133
f 87/199/133 85/196/124 88/201/134
f 85/196/124 86/203/135 88/201/134
f 89/205/136 88/201/134 86/203/135
s 3
f 82/17/119 80/16/110 79/19/109 90/20/137
s 7
f 59/235/82 83/236/122 40/152/121 53/158/83
s 8
f 79/193/127 75/191/107 73/190/106 90/194/138
s 5
f 90/139/139 73/137/101 49/239/66 82/238/132
s 7
f 37/53/140 47/233/141 91/230/142 68/56/143
f 65/65/85 57/66/84 66/67/144 92/228/145
f 70/59/146 68/56/143 91/230/142 93/229/147
f 70/59/146 93/229/147 94/227/148 71/72/149
f 94/227/148 92/228/145 66/67/144 71/72/149
f 75/156/150 81/226/117 95/225/151 77/157/152
f 74/224/103 95/246/151 83/247/122 59/69/82
f 47/54/141 72/223/153 96/220/154 91/55/142
f 78/73/104 65/231/85 92/68/145 97/218/155
f 93/60/147 91/55/142 96/220/154 98/219/156
f 94/71/148 93/60/147 98/219/156 99/217/157
f 92/68/145 94/71/148 99/217/157 97/218/155
s 8
f 69/198/129 61/197/128 56/200/158
s 7
f 77/157/152 95/225/151 74/161/103 84/162/125
f 72/57/153 76/61/159 87/62/160 96/58/154
f 85/77/126 78/221/104 97/74/155 86/78/161
f 98/63/156 96/58/154 87/62/160 88/64/162
f 99/76/157 98/63/156 88/64/162 89/80/163
f 97/74/155 99/76/157 89/80/163 86/78/161
f 41/146/164 38/141/116 83/148/122 45/149/165
f 95/150/151 62/155/166 58/160/167
s 1
f 46/250/168 8/101/5 5/251/8 100/252/169
f 2/98/2 43/112/170 101/113/171 3/99/3
f 42/114/172 46/110/168 100/111/169 102/115/173
f 43/112/170 42/114/172 102/115/173 101/113/171
s 4
f 20/166/36 24/165/35 13/169/38
f 17/175/174 24/165/35 22/177/175
f 14/172/39 24/165/35 17/175/174
s 8
f 69/198/129 55/202/176 60/204/177
f 69/198/129 56/200/158 55/202/176
f 69/198/129 60/204/177 67/206/178
s 7
f 83/148/122 52/159/179 50/153/180
f 51/147/181 54/154/182 62/155/166 95/150/151
f 83/148/122 50/153/180 45/149/165
f 95/150/151 58/160/167 52/159/179 83/148/122
f 81/142/117 38/141/116 44/144/183 48/145/184
f 44/144/183 38/141/116 41/146/164
f 81/142/117 51/147/181 95/150/151
f 81/142/117 48/145/184 51/147/181
s 1
f 4/95/4 3/89/3 103/92/185 104/96/186
f 5/87/8 6/81/7 106/84/187 105/88/188
f 7/211/10 4/95/4 104/96/186 107/212/189
f 6/81/7 10/82/20 108/83/190 106/84/187
f 11/85/26 7/211/10 107/212/189 109/86/191
f 10/82/20 11/85/26 109/86/191 108/83/190
f 100/213/169 5/87/8 105/88/188 110/214/192
f 3/89/3 101/248/171 111/249/193 103/92/185
f 102/93/173 100/213/169 110/214/192 112/94/194
f 101/90/171 102/93/173 112/94/194 111/91/193
