# This file uses centimeters as units for non-parametric coordinates.

mtllib Overhead Light 1.mtl
g default
v -9.137691 42.708612 32.730546
v 22.993379 42.708612 32.730546
v 55.124449 42.708612 32.730546
v -9.137691 45.323081 32.730546
v 22.993379 45.323081 32.730546
v 55.124449 45.323081 32.730546
v -10.097918 47.937544 33.925960
v 22.993379 47.937544 33.925960
v 56.084677 47.937544 33.925960
v -10.097918 47.937544 -7.270318
v 56.084677 47.937544 -7.270318
v -10.097918 47.937544 -48.466597
v 22.993379 47.937544 -48.466597
v 56.084677 47.937544 -48.466597
v -9.137691 45.323081 -47.271183
v 22.993379 45.323081 -47.271183
v 55.124449 45.323081 -47.271183
v -9.137691 42.708612 -47.271183
v 22.993379 42.708612 -47.271183
v 55.124449 42.708612 -47.271183
v -9.137691 42.708612 -7.270318
v 55.124449 42.708612 -7.270318
v 55.124449 45.323081 -7.270318
v -9.137691 45.323081 -7.270318
v 48.698236 42.708612 32.730546
v 48.698236 42.708612 -7.270318
v 48.698236 42.708612 -47.271183
v -2.711477 42.708612 32.730546
v -2.711477 42.708612 -7.270318
v -2.711477 42.708612 -47.271183
v 48.698238 42.708612 24.730374
v 22.993379 42.708612 24.730374
v -2.711479 42.708612 24.730374
v 48.698238 42.708612 -39.271011
v 22.993379 42.708612 -39.271011
v -2.711479 42.708612 -39.271011
v 22.993379 36.779995 21.510349
v -0.124964 36.779995 21.510349
v -0.124962 36.779995 -7.270318
v 22.993379 36.779995 -7.270318
v 46.111721 36.779995 -7.270318
v 46.111723 36.779995 21.510349
v 46.111723 36.779995 -36.050986
v 22.993379 36.779995 -36.050986
v -0.124964 36.779995 -36.050986
v 22.993379 39.903214 24.730374
v -2.711479 39.903214 24.730374
v -2.711477 39.903214 -7.270318
v -2.711479 39.903214 -39.271011
v 22.993379 39.903214 -39.271011
v 48.698238 39.903214 -39.271011
v 48.698236 39.903214 -7.270318
v 48.698238 39.903214 24.730374
vt 0.467992 0.443266
vt 0.310128 0.570394
vt 0.512619 0.441710
vt 0.468139 0.477800
vt 0.490770 0.477103
vt 0.513384 0.476325
vt 0.468328 0.512489
vt 0.491266 0.511478
vt 0.514233 0.510993
vt 0.445382 0.512013
vt 0.537188 0.508989
vt 0.422424 0.512085
vt 0.399464 0.510664
vt 0.376366 0.509493
vt 0.422886 0.477392
vt 0.400315 0.476237
vt 0.558421 0.472844
vt 0.449500 0.518489
vt 0.449524 0.568415
vt 0.449548 0.618340
vt 0.445649 0.443179
vt 0.152154 0.940955
vt 0.379850 0.619330
vt 0.535957 0.474594
vt 0.445517 0.477626
vt 0.310147 0.610335
vt 0.194316 0.864978
vt 0.449543 0.608355
vt 0.310109 0.530454
vt 0.139917 0.858635
vt 0.449505 0.528474
vt 0.099609 0.868614
vt 0.112882 0.864605
vt 0.126327 0.860739
vt 0.180766 0.860973
vt 0.167198 0.858730
vt 0.153533 0.857668
vt 0.116990 0.980053
vt 0.129042 0.975675
vt 0.141230 0.974558
vt 0.189869 0.980782
vt 0.201830 0.985394
vt 0.165684 0.974809
vt 0.177856 0.976132
vt 0.153483 0.973148
vt 0.114449 0.919225
vt 0.127493 0.914854
vt 0.140544 0.913519
vt 0.153556 0.912032
vt 0.166559 0.913738
vt 0.179619 0.915341
vt 0.192630 0.919982
vt 0.101254 0.923584
vt 0.435584 0.568613
vt 0.435565 0.528672
vt 0.435604 0.608553
vt 0.324068 0.570196
vt 0.324048 0.530256
vt 0.324087 0.610137
vt 0.379807 0.529464
vt 0.379845 0.609345
vt 0.205789 0.924662
vt 0.274744 0.973490
vt 0.104993 0.984305
vt 0.152154 0.908420
vt 0.029564 0.908420
vt 0.029564 0.940955
vt 0.274744 0.940955
vt 0.274744 0.908420
vt 0.152154 0.973490
vt 0.207649 0.869492
vt 0.029564 0.973490
vt 0.418862 0.442577
vt 0.400961 0.441745
vt 0.472436 0.443197
vt 0.490299 0.442608
vt 0.383009 0.440851
vt 0.557340 0.438470
vt 0.508170 0.441955
vt 0.310152 0.620320
vt 0.534935 0.440192
vt 0.379802 0.519479
vt 0.310104 0.520468
vt 0.423339 0.442782
vt 0.377839 0.475079
vt 0.378518 0.440635
vt 0.560282 0.507199
vt 0.379802 0.519479
vt 0.379807 0.529464
vn 0.000000 0.000000 1.000000
vn 0.000000 0.000000 1.000000
vn 0.000000 0.000000 1.000000
vn 0.000000 -0.224435 0.974489
vn 0.000000 -0.226426 0.974028
vn 0.000000 0.000000 1.000000
vn 0.000000 0.000000 1.000000
vn 0.000000 0.000000 1.000000
vn 0.000000 -0.226426 0.974028
vn 0.000000 -0.224435 0.974489
vn 0.000000 -0.226426 0.974028
vn 0.000000 -0.224435 0.974489
vn 0.000000 -0.415826 0.909444
vn 0.000000 -0.415826 0.909444
vn 0.000000 -0.224435 0.974489
vn 0.000000 -0.226426 0.974028
vn 0.000000 -0.415826 0.909444
vn 0.000000 -0.415826 0.909444
vn 0.000000 -0.415826 -0.909444
vn 0.000000 -0.415826 -0.909444
vn 0.000000 -0.224435 -0.974489
vn 0.000000 -0.226426 -0.974028
vn 0.000000 -0.415826 -0.909444
vn 0.000000 -0.415826 -0.909444
vn 0.000000 -0.226426 -0.974028
vn 0.000000 -0.224435 -0.974489
vn 0.000000 -0.226426 -0.974028
vn 0.000000 -0.224435 -0.974489
vn 0.000000 0.000000 -1.000000
vn 0.000000 0.000000 -1.000000
vn 0.000000 0.000000 -1.000000
vn 0.000000 -0.224435 -0.974489
vn 0.000000 -0.226426 -0.974028
vn 0.000000 0.000000 -1.000000
vn 0.000000 0.000000 -1.000000
vn 0.000000 0.000000 -1.000000
vn 0.000000 -1.000000 0.000000
vn 0.000000 -1.000000 0.000000
vn 0.000000 -1.000000 0.000000
vn 0.000000 -1.000000 0.000000
vn 0.000000 -1.000000 0.000000
vn 0.000000 -1.000000 0.000000
vn 0.000000 -1.000000 0.000000
vn 0.000000 -1.000000 0.000000
vn 0.000000 -1.000000 0.000000
vn 0.000000 -1.000000 0.000000
vn 0.000000 -1.000000 0.000000
vn 0.000000 -1.000000 0.000000
vn 0.000000 -1.000000 0.000000
vn 0.000000 -1.000000 0.000000
vn 0.000000 -1.000000 0.000000
vn 0.000000 -1.000000 0.000000
vn 0.000000 -1.000000 0.000000
vn 0.000000 -1.000000 0.000000
vn 1.000000 0.000000 0.000000
vn 1.000000 0.000000 0.000000
vn 0.983009 -0.183556 0.000000
vn 0.983315 -0.181912 0.000000
vn 1.000000 0.000000 0.000000
vn 1.000000 0.000000 0.000000
vn 0.983315 -0.181912 0.000000
vn 0.983009 -0.183556 0.000000
vn 0.983315 -0.181912 0.000000
vn 0.983009 -0.183556 0.000000
vn 0.938692 -0.344758 0.000000
vn 0.938691 -0.344758 0.000000
vn 0.983009 -0.183556 0.000000
vn 0.983315 -0.181912 0.000000
vn 0.938691 -0.344758 0.000000
vn 0.938691 -0.344758 0.000000
vn -1.000000 0.000000 0.000000
vn -1.000000 0.000000 0.000000
vn -0.983315 -0.181912 0.000000
vn -0.983009 -0.183556 0.000000
vn -1.000000 0.000000 0.000000
vn -1.000000 0.000000 0.000000
vn -0.983009 -0.183556 0.000000
vn -0.983315 -0.181912 0.000000
vn -0.983009 -0.183556 0.000000
vn -0.983315 -0.181912 0.000000
vn -0.938691 -0.344758 0.000000
vn -0.938691 -0.344758 0.000000
vn -0.983315 -0.181912 0.000000
vn -0.983009 -0.183556 0.000000
vn -0.938692 -0.344758 0.000000
vn -0.938691 -0.344758 0.000000
vn 0.000000 -1.000000 0.000000
vn 0.000000 -1.000000 0.000000
vn 0.000000 -1.000000 0.000000
vn 0.000000 -1.000000 0.000000
vn 0.000000 -1.000000 0.000000
vn 0.000000 -1.000000 0.000000
vn 0.000000 -1.000000 0.000000
vn 0.000000 -1.000000 0.000000
vn 0.000000 -1.000000 0.000000
vn 0.000000 -1.000000 0.000000
vn 0.000000 -1.000000 0.000000
vn 0.000000 -1.000000 0.000000
vn 0.000000 -1.000000 0.000000
vn 0.000000 -1.000000 0.000000
vn 0.000000 -1.000000 0.000000
vn 0.000000 -1.000000 0.000000
vn 0.000000 -1.000000 0.000000
vn 0.000000 -1.000000 0.000000
vn 0.000000 -1.000000 0.000000
vn 0.000000 -1.000000 0.000000
vn 0.000000 -1.000000 0.000000
vn 0.000000 -1.000000 0.000000
vn 0.000000 -1.000000 0.000000
vn 0.000000 -1.000000 0.000000
vn 0.000000 -1.000000 0.000000
vn 0.000000 -1.000000 0.000000
vn 0.000000 -1.000000 0.000000
vn 0.000000 -1.000000 0.000000
vn 0.000000 -1.000000 0.000000
vn 0.000000 -1.000000 0.000000
vn 0.000000 -1.000000 0.000000
vn 0.000000 -1.000000 0.000000
vn 0.000000 -1.000000 0.000000
vn 0.000000 -1.000000 0.000000
vn 0.000000 -0.468190 0.883628
vn 0.000000 -0.460371 0.887727
vn 0.000000 -0.717814 0.696234
vn 0.000000 -0.717815 0.696235
vn -0.923110 -0.384537 -0.000000
vn -0.920130 -0.391614 -0.000000
vn -0.770178 -0.637829 -0.000000
vn -0.770178 -0.637828 -0.000000
vn 0.920130 -0.391614 -0.000000
vn 0.923110 -0.384537 -0.000000
vn 0.770178 -0.637828 -0.000000
vn 0.770178 -0.637828 -0.000000
vn 0.000000 -0.460371 0.887727
vn 0.000000 -0.468190 0.883628
vn 0.000000 -0.717815 0.696235
vn 0.000000 -0.717814 0.696234
vn 0.000000 -0.468190 -0.883628
vn 0.000000 -0.460371 -0.887727
vn 0.000000 -0.717814 -0.696234
vn 0.000000 -0.717815 -0.696235
vn 0.923110 -0.384537 0.000000
vn 0.920130 -0.391614 0.000000
vn 0.770178 -0.637829 0.000000
vn 0.770178 -0.637828 0.000000
vn -0.920130 -0.391614 0.000000
vn -0.923110 -0.384537 0.000000
vn -0.770178 -0.637828 0.000000
vn -0.770178 -0.637828 0.000000
vn 0.000000 -0.460371 -0.887727
vn 0.000000 -0.468190 -0.883628
vn 0.000000 -0.717815 -0.696235
vn 0.000000 -0.717814 -0.696234
vn 0.000000 0.000000 1.000000
vn 0.000000 0.000000 1.000000
vn 0.000000 -0.460371 0.887727
vn 0.000000 -0.468190 0.883628
vn -1.000000 0.000000 -0.000000
vn -1.000000 0.000000 -0.000000
vn -0.920130 -0.391614 -0.000000
vn -0.923110 -0.384537 -0.000000
vn -1.000000 0.000000 0.000000
vn -1.000000 0.000000 0.000000
vn -0.923110 -0.384537 0.000000
vn -0.920130 -0.391614 0.000000
vn 0.000000 0.000000 -1.000000
vn 0.000000 0.000000 -1.000000
vn 0.000000 -0.468190 -0.883628
vn 0.000000 -0.460371 -0.887727
vn 0.000000 0.000000 -1.000000
vn 0.000000 0.000000 -1.000000
vn 0.000000 -0.460371 -0.887727
vn 0.000000 -0.468190 -0.883628
vn 1.000000 0.000000 0.000000
vn 1.000000 0.000000 0.000000
vn 0.920130 -0.391614 0.000000
vn 0.923110 -0.384537 0.000000
vn 1.000000 0.000000 -0.000000
vn 1.000000 0.000000 -0.000000
vn 0.923110 -0.384537 -0.000000
vn 0.920130 -0.391614 -0.000000
vn 0.000000 0.000000 1.000000
vn 0.000000 0.000000 1.000000
vn 0.000000 -0.468190 0.883628
vn 0.000000 -0.460371 0.887727
s off
g Light_1
usemtl lambert4SG
f 1/1/1 28/75/2 2/76/3 5/5/4 4/4/5
f 2/76/6 25/79/7 3/3/8 6/6/9 5/5/10
f 4/4/11 5/5/12 8/8/13 7/7/14
f 5/5/15 6/6/16 9/9/17 8/8/18
f 12/12/19 13/13/20 16/16/21 15/15/22
f 13/13/23 14/14/24 17/85/25 16/16/26
f 15/15/27 16/16/28 19/74/29 30/73/30 18/84/31
f 16/16/32 17/85/33 20/86/34 27/77/35 19/74/36
f 35/54/37 36/55/38 30/31/39 19/19/40
f 26/61/41 34/56/42 27/28/43 20/20/44 22/23/45
f 37/70/46 38/72/47 39/67/48 40/22/49
f 25/26/50 31/59/51 26/61/52 22/23/53 3/80/54
f 22/81/55 20/78/56 17/17/57 23/24/58
f 3/3/59 22/81/60 23/24/61 6/6/62
f 23/24/63 17/17/64 14/87/65 11/11/66
f 6/6/67 23/24/68 11/11/69 9/9/70
f 18/84/71 21/21/72 24/25/73 15/15/74
f 21/21/75 1/1/76 4/4/77 24/25/78
f 15/15/79 24/25/80 10/10/81 12/12/82
f 24/25/83 4/4/84 7/7/85 10/10/86
f 40/22/87 41/68/88 42/63/89 37/70/90
f 19/19/91 27/28/92 34/56/93 35/54/94
f 21/82/95 29/89/96 33/58/97 28/29/98 1/83/99
f 18/18/100 30/31/101 36/55/102 29/60/103 21/88/104
f 32/57/105 31/59/106 25/26/107 2/2/108
f 28/29/109 33/58/110 32/57/111 2/2/112
f 44/65/113 43/69/114 41/68/115 40/22/116
f 39/67/117 45/66/118 44/65/119 40/22/120
f 46/46/121 47/47/122 38/39/123 37/38/124
f 47/47/125 48/48/126 39/40/127 38/39/128
f 52/52/129 53/62/130 42/42/131 41/41/132
f 53/53/133 46/46/134 37/38/135 42/64/136
f 50/50/137 51/51/138 43/44/139 44/43/140
f 51/51/141 52/52/142 41/41/143 43/44/144
f 48/48/145 49/49/146 45/45/147 39/40/148
f 49/49/149 50/50/150 44/43/151 45/45/152
f 32/33/153 33/34/154 47/47/155 46/46/156
f 33/34/157 29/30/158 48/48/159 47/47/160
f 29/30/161 36/37/162 49/49/163 48/48/164
f 36/37/165 35/36/166 50/50/167 49/49/168
f 35/36/169 34/35/170 51/51/171 50/50/172
f 34/35/173 26/27/174 52/52/175 51/51/176
f 26/27/177 31/71/178 53/62/179 52/52/180
f 31/32/181 32/33/182 46/46/183 53/53/184
