# This file uses inches as units for non-parametric coordinates.

mtllib Salt and pepper Shakers.mtl
g default
v -32.146861 -0.150861 28.435828
v -34.139298 -0.150861 28.435831
v -35.135521 -0.150861 30.161336
v -34.139300 -0.150861 31.886843
v -32.146861 -0.150861 31.886843
v -31.150632 -0.150861 30.161336
v -32.505379 6.022982 29.056813
v -33.780775 6.022982 29.056812
v -34.418479 6.022982 30.161337
v -33.780775 6.022982 31.265861
v -32.505379 6.022982 31.265861
v -31.867682 6.022982 30.161336
v -31.797972 6.343907 30.161335
v -32.470522 6.343907 28.996438
v -33.815632 6.343907 28.996439
v -34.488191 6.343907 30.161337
v -33.815632 6.343907 31.326234
v -32.470522 6.343907 31.326234
v -31.797972 6.848306 30.161335
v -32.470522 6.848306 28.996438
v -33.815632 6.848306 28.996439
v -34.488191 6.848306 30.161337
v -33.815632 6.848306 31.326234
v -32.470522 6.848306 31.326234
v -31.897094 7.044505 30.161337
v -32.179380 7.241657 30.161336
v -32.661232 7.241657 29.326751
v -32.520089 7.044505 29.082283
v -33.624927 7.241657 29.326748
v -33.766072 7.044505 29.082284
v -34.106784 7.241657 30.161337
v -34.389065 7.044505 30.161337
v -33.624927 7.241657 30.995924
v -33.766072 7.044505 31.240389
v -32.661232 7.241657 30.995926
v -32.520089 7.044505 31.240389
v -31.757065 6.022982 30.161335
v -32.450071 6.022982 28.961018
v -32.450071 6.343907 28.961018
v -31.757065 6.343907 30.161335
v -33.836083 6.022982 28.961016
v -33.836083 6.343907 28.961016
v -34.529094 6.022982 30.161337
v -34.529094 6.343907 30.161337
v -33.836083 6.022982 31.361656
v -33.836083 6.343907 31.361656
v -32.450071 6.022982 31.361658
v -32.450071 6.343907 31.361658
vt 0.700783 0.208402
vt 0.713918 0.208402
vt 0.713918 0.326914
vt 0.700783 0.326914
vt 0.727053 0.208402
vt 0.727053 0.326914
vt 0.740188 0.208402
vt 0.740188 0.326914
vt 0.753323 0.208402
vt 0.753323 0.326914
vt 0.766458 0.208402
vt 0.766458 0.326914
vt 0.779593 0.208402
vt 0.779593 0.326914
vt 0.764816 0.201803
vt 0.715560 0.201803
vt 0.690932 0.159146
vt 0.715560 0.116489
vt 0.764816 0.116489
vt 0.789444 0.159146
vt 0.490558 0.527570
vt 0.455926 0.587554
vt 0.455926 0.587554
vt 0.490558 0.527570
vt 0.386663 0.587554
vt 0.386663 0.587554
vt 0.352031 0.527570
vt 0.352031 0.527570
vt 0.386663 0.467587
vt 0.386663 0.467587
vt 0.455926 0.467587
vt 0.455926 0.467587
vt 0.455926 0.587554
vt 0.386663 0.587554
vt 0.386663 0.587554
vt 0.455926 0.587554
vt 0.352031 0.527570
vt 0.352031 0.527570
vt 0.386663 0.467587
vt 0.386663 0.467587
vt 0.455926 0.467587
vt 0.455926 0.467587
vt 0.490558 0.527570
vt 0.490558 0.527570
vt 0.455546 0.586897
vt 0.455926 0.587554
vt 0.490558 0.527570
vt 0.489798 0.527570
vt 0.387042 0.586897
vt 0.386663 0.587554
vt 0.352791 0.527570
vt 0.352031 0.527570
vt 0.387042 0.468244
vt 0.386663 0.467587
vt 0.455546 0.468244
vt 0.455926 0.467587
vt 0.490558 0.527570
vt 0.455926 0.587554
vt 0.386663 0.587554
vt 0.352031 0.527570
vt 0.386663 0.467587
vt 0.455926 0.467587
vn 0.000000 0.100078 -0.994980
vn 0.000000 0.100078 -0.994980
vn 0.000000 0.100078 -0.994980
vn 0.000000 0.100078 -0.994980
vn -0.861677 0.100077 -0.497492
vn -0.861677 0.100077 -0.497492
vn -0.861677 0.100077 -0.497492
vn -0.861677 0.100077 -0.497492
vn -0.861677 0.100077 0.497491
vn -0.861677 0.100077 0.497491
vn -0.861677 0.100077 0.497491
vn -0.861677 0.100077 0.497491
vn 0.000000 0.100078 0.994980
vn 0.000000 0.100078 0.994980
vn 0.000000 0.100078 0.994980
vn 0.000000 0.100078 0.994980
vn 0.861677 0.100077 0.497490
vn 0.861677 0.100077 0.497490
vn 0.861677 0.100077 0.497490
vn 0.861677 0.100077 0.497490
vn 0.861677 0.100077 -0.497491
vn 0.861677 0.100077 -0.497491
vn 0.861677 0.100077 -0.497491
vn 0.861677 0.100077 -0.497491
vn 0.000000 -1.000000 0.000000
vn 0.000000 -1.000000 0.000000
vn 0.000000 -1.000000 0.000000
vn 0.000000 -1.000000 0.000000
vn 0.000000 -1.000000 0.000000
vn 0.000000 -1.000000 0.000000
vn 1.000000 0.000000 0.000000
vn 0.500000 0.000000 -0.866025
vn 0.500000 0.000000 -0.866025
vn 1.000000 0.000000 0.000000
vn 0.500000 0.000000 -0.866025
vn -0.499999 0.000000 -0.866026
vn -0.499999 0.000000 -0.866026
vn 0.500000 0.000000 -0.866025
vn -0.499999 0.000000 -0.866026
vn -1.000000 0.000000 0.000000
vn -1.000000 0.000000 0.000000
vn -0.499999 0.000000 -0.866026
vn -1.000000 0.000000 0.000000
vn -0.499999 0.000000 0.866026
vn -0.499999 0.000000 0.866026
vn -1.000000 0.000000 0.000000
vn -0.499999 0.000000 0.866026
vn 0.500000 0.000000 0.866025
vn 0.500000 0.000000 0.866025
vn -0.499999 0.000000 0.866026
vn 0.500000 0.000000 0.866025
vn 1.000000 0.000000 0.000000
vn 1.000000 0.000000 0.000000
vn 0.500000 0.000000 0.866025
vn 0.500000 0.000000 -0.866025
vn -0.499999 0.000000 -0.866026
vn -0.476088 0.305532 -0.824615
vn 0.476094 0.305533 -0.824611
vn -0.499999 0.000000 -0.866026
vn -1.000000 0.000000 0.000000
vn -0.952182 0.305531 -0.000000
vn -0.476088 0.305532 -0.824615
vn -1.000000 0.000000 0.000000
vn -0.499999 0.000000 0.866026
vn -0.476088 0.305532 0.824615
vn -0.952182 0.305531 -0.000000
vn -0.499999 0.000000 0.866026
vn 0.500000 0.000000 0.866025
vn 0.476094 0.305533 0.824611
vn -0.476088 0.305532 0.824615
vn 0.952181 0.305535 0.000000
vn 1.000000 0.000000 0.000000
vn 0.500000 0.000000 -0.866025
vn 0.476094 0.305533 -0.824611
vn 0.365620 0.682121 -0.633272
vn 0.123587 0.968971 -0.214059
vn 0.247174 0.968971 0.000000
vn 0.731238 0.682122 0.000000
vn 0.952181 0.305535 0.000000
vn 0.476094 0.305533 -0.824611
vn -0.365620 0.682118 -0.633274
vn -0.123587 0.968971 -0.214059
vn 0.123587 0.968971 -0.214059
vn 0.365620 0.682121 -0.633272
vn 0.476094 0.305533 -0.824611
vn -0.476088 0.305532 -0.824615
vn -0.731242 0.682118 -0.000000
vn -0.247176 0.968971 -0.000000
vn -0.123587 0.968971 -0.214059
vn -0.365620 0.682118 -0.633274
vn -0.476088 0.305532 -0.824615
vn -0.952182 0.305531 -0.000000
vn -0.365621 0.682118 0.633274
vn -0.123587 0.968971 0.214059
vn -0.247176 0.968971 -0.000000
vn -0.731242 0.682118 -0.000000
vn -0.952182 0.305531 -0.000000
vn -0.476088 0.305532 0.824615
vn 0.365620 0.682120 0.633272
vn 0.123587 0.968971 0.214059
vn -0.123587 0.968971 0.214059
vn -0.365621 0.682118 0.633274
vn -0.476088 0.305532 0.824615
vn 0.476094 0.305533 0.824611
vn -0.123587 0.968971 0.214059
vn 0.123587 0.968971 0.214059
vn 0.247174 0.968971 0.000000
vn 0.123587 0.968971 -0.214059
vn -0.123587 0.968971 -0.214059
vn -0.247176 0.968971 -0.000000
vn 0.365620 0.682120 0.633272
vn 0.476094 0.305533 0.824611
vn 0.952181 0.305535 0.000000
vn 0.731238 0.682122 0.000000
vn 0.247174 0.968971 0.000000
vn 0.123587 0.968971 0.214059
vn 0.000000 -1.000000 0.000000
vn 0.000000 -1.000000 0.000000
vn 0.000000 -1.000000 0.000000
vn 0.000000 -1.000000 0.000000
vn 0.000000 1.000000 0.000001
vn 0.000000 1.000000 0.000001
vn 0.000000 1.000000 0.000001
vn 0.000000 1.000000 0.000001
vn 0.000000 -1.000000 -0.000002
vn 0.000000 -1.000000 -0.000002
vn 0.000000 -1.000000 -0.000002
vn 0.000000 -1.000000 -0.000002
vn 0.000000 1.000000 0.000004
vn 0.000000 1.000000 0.000004
vn 0.000000 1.000000 0.000004
vn 0.000000 1.000000 0.000004
vn 0.000000 -1.000000 0.000001
vn 0.000000 -1.000000 0.000001
vn 0.000000 -1.000000 0.000001
vn 0.000000 -1.000000 0.000001
vn 0.000000 1.000000 0.000000
vn 0.000000 1.000000 0.000000
vn 0.000000 1.000000 0.000000
vn 0.000000 1.000000 0.000000
vn 0.000000 -1.000000 -0.000001
vn 0.000000 -1.000000 -0.000001
vn 0.000000 -1.000000 -0.000001
vn 0.000000 -1.000000 -0.000001
vn 0.000000 1.000000 -0.000002
vn 0.000000 1.000000 -0.000002
vn 0.000000 1.000000 -0.000002
vn 0.000000 1.000000 -0.000002
vn 0.000000 -1.000000 0.000002
vn 0.000000 -1.000000 0.000002
vn 0.000000 -1.000000 0.000002
vn 0.000000 -1.000000 0.000002
vn 0.000000 1.000000 -0.000005
vn 0.000000 1.000000 -0.000005
vn 0.000000 1.000000 -0.000005
vn 0.000000 1.000000 -0.000005
vn 0.000000 -1.000000 -0.000001
vn 0.000000 -1.000000 -0.000001
vn 0.000000 -1.000000 -0.000001
vn 0.000000 -1.000000 -0.000001
vn 0.000000 1.000000 0.000002
vn 0.000000 1.000000 0.000002
vn 0.000000 1.000000 0.000002
vn 0.000000 1.000000 0.000002
vn 0.952181 0.305535 0.000000
vn 0.476094 0.305533 0.824611
vn 0.500000 0.000000 0.866025
vn 1.000000 0.000000 0.000000
s off
g Salt_and_Pepper_Shakers:pCylinder3Salt_and_Pepper_Shakers Salt_and_Pepper_Shaker
usemtl lambert5SG
f 1/1/1 2/2/2 8/3/3 7/4/4
f 2/2/5 3/5/6 9/6/7 8/3/8
f 3/5/9 4/7/10 10/8/11 9/6/12
f 4/7/13 5/9/14 11/10/15 10/8/16
f 5/9/17 6/11/18 12/12/19 11/10/20
f 6/11/21 1/13/22 7/14/23 12/12/24
f 5/15/25 4/16/26 3/17/27 2/18/28 1/19/29 6/20/30
f 37/21/31 38/22/32 39/23/33 40/24/34
f 38/22/35 41/25/36 42/26/37 39/23/38
f 41/25/39 43/27/40 44/28/41 42/26/42
f 43/27/43 45/29/44 46/30/45 44/28/46
f 45/29/47 47/31/48 48/32/49 46/30/50
f 47/31/51 37/21/52 40/24/53 48/32/54
f 14/33/55 15/34/56 21/35/57 20/36/58
f 15/34/59 16/37/60 22/38/61 21/35/62
f 16/37/63 17/39/64 23/40/65 22/38/66
f 17/39/67 18/41/68 24/42/69 23/40/70
f 19/43/71 13/44/72 14/33/73 20/36/74
f 28/45/75 27/46/76 26/47/77 25/48/78 19/43/79 20/36/80
f 30/49/81 29/50/82 27/46/83 28/45/84 20/36/85 21/35/86
f 32/51/87 31/52/88 29/50/89 30/49/90 21/35/91 22/38/92
f 34/53/93 33/54/94 31/52/95 32/51/96 22/38/97 23/40/98
f 36/55/99 35/56/100 33/54/101 34/53/102 23/40/103 24/42/104
f 33/54/105 35/56/106 26/47/107 27/46/108 29/50/109 31/52/110
f 36/55/111 24/42/112 19/43/113 25/48/114 26/47/115 35/56/116
f 12/57/117 7/58/118 38/22/119 37/21/120
f 14/33/121 13/44/122 40/24/123 39/23/124
f 7/58/125 8/59/126 41/25/127 38/22/128
f 15/34/129 14/33/130 39/23/131 42/26/132
f 8/59/133 9/60/134 43/27/135 41/25/136
f 16/37/137 15/34/138 42/26/139 44/28/140
f 9/60/141 10/61/142 45/29/143 43/27/144
f 17/39/145 16/37/146 44/28/147 46/30/148
f 10/61/149 11/62/150 47/31/151 45/29/152
f 18/41/153 17/39/154 46/30/155 48/32/156
f 11/62/157 12/57/158 37/21/159 47/31/160
f 13/44/161 18/41/162 48/32/163 40/24/164
f 19/43/165 24/42/166 18/41/167 13/44/168
g default
v -38.151136 -0.150861 28.435831
v -40.143575 -0.150861 28.435830
v -41.139800 -0.150861 30.161337
v -40.143576 -0.150861 31.886844
v -38.151136 -0.150861 31.886843
v -37.154911 -0.150861 30.161337
v -38.509655 6.022982 29.056813
v -39.785053 6.022982 29.056812
v -40.422755 6.022982 30.161338
v -39.785052 6.022982 31.265861
v -38.509655 6.022982 31.265861
v -37.871959 6.022982 30.161336
v -37.802248 6.343907 30.161337
v -38.474800 6.343907 28.996439
v -39.819907 6.343907 28.996439
v -40.492467 6.343907 30.161338
v -39.819907 6.343907 31.326235
v -38.474800 6.343907 31.326234
v -37.802248 6.848306 30.161337
v -38.474800 6.848306 28.996439
v -39.819907 6.848306 28.996439
v -40.492467 6.848306 30.161338
v -39.819907 6.848306 31.326235
v -38.474800 6.848306 31.326234
v -37.901373 7.044505 30.161337
v -38.183655 7.241657 30.161336
v -38.665505 7.241657 29.326750
v -38.524366 7.044505 29.082284
v -39.629205 7.241657 29.326748
v -39.770346 7.044505 29.082284
v -40.111061 7.241657 30.161336
v -40.393341 7.044505 30.161336
v -39.629205 7.241657 30.995923
v -39.770346 7.044505 31.240390
v -38.665507 7.241657 30.995925
v -38.524366 7.044505 31.240389
v -37.761345 6.022982 30.161337
v -38.454347 6.022982 28.961018
v -38.454347 6.343907 28.961018
v -37.761345 6.343907 30.161337
v -39.840356 6.022982 28.961016
v -39.840356 6.343907 28.961016
v -40.533371 6.022982 30.161338
v -40.533371 6.343907 30.161338
v -39.840357 6.022982 31.361655
v -39.840357 6.343907 31.361655
v -38.454347 6.022982 31.361658
v -38.454347 6.343907 31.361658
vt 0.040901 0.780975
vt 0.050093 0.780975
vt 0.050093 0.863907
vt 0.040901 0.863907
vt 0.059284 0.780975
vt 0.059284 0.863907
vt 0.068476 0.780975
vt 0.068476 0.863907
vt 0.077668 0.780975
vt 0.077668 0.863907
vt 0.086859 0.780975
vt 0.086859 0.863907
vt 0.096051 0.780975
vt 0.096051 0.863907
vt 0.085710 0.776357
vt 0.051242 0.776357
vt 0.034007 0.746507
vt 0.051242 0.716656
vt 0.085710 0.716656
vt 0.102945 0.746507
vt 0.549256 0.511286
vt 0.507666 0.583323
vt 0.507666 0.583323
vt 0.549256 0.511286
vt 0.424485 0.583323
vt 0.424485 0.583323
vt 0.382894 0.511286
vt 0.382894 0.511286
vt 0.424485 0.439250
vt 0.424485 0.439250
vt 0.507666 0.439250
vt 0.507666 0.439250
vt 0.507666 0.583323
vt 0.424485 0.583323
vt 0.424485 0.583323
vt 0.507666 0.583323
vt 0.382894 0.511286
vt 0.382894 0.511286
vt 0.424485 0.439250
vt 0.424485 0.439250
vt 0.507666 0.439250
vt 0.507666 0.439250
vt 0.549256 0.511286
vt 0.549256 0.511286
vt 0.507210 0.582534
vt 0.507666 0.583323
vt 0.549256 0.511286
vt 0.548344 0.511286
vt 0.424940 0.582534
vt 0.424485 0.583323
vt 0.383806 0.511286
vt 0.382894 0.511286
vt 0.424941 0.440039
vt 0.424485 0.439250
vt 0.507210 0.440039
vt 0.507666 0.439250
vt 0.549256 0.511286
vt 0.507666 0.583323
vt 0.424485 0.583323
vt 0.382894 0.511286
vt 0.424485 0.439250
vt 0.507666 0.439250
vn 0.000000 0.100078 -0.994980
vn 0.000000 0.100078 -0.994980
vn 0.000000 0.100078 -0.994980
vn 0.000000 0.100078 -0.994980
vn -0.861677 0.100077 -0.497492
vn -0.861677 0.100077 -0.497492
vn -0.861677 0.100077 -0.497492
vn -0.861677 0.100077 -0.497492
vn -0.861677 0.100077 0.497491
vn -0.861677 0.100077 0.497491
vn -0.861677 0.100077 0.497491
vn -0.861677 0.100077 0.497491
vn 0.000000 0.100078 0.994980
vn 0.000000 0.100078 0.994980
vn 0.000000 0.100078 0.994980
vn 0.000000 0.100078 0.994980
vn 0.861677 0.100077 0.497490
vn 0.861677 0.100077 0.497490
vn 0.861677 0.100077 0.497490
vn 0.861677 0.100077 0.497490
vn 0.861677 0.100077 -0.497491
vn 0.861677 0.100077 -0.497491
vn 0.861677 0.100077 -0.497491
vn 0.861677 0.100077 -0.497491
vn 0.000000 -1.000000 0.000000
vn 0.000000 -1.000000 0.000000
vn 0.000000 -1.000000 0.000000
vn 0.000000 -1.000000 0.000000
vn 0.000000 -1.000000 0.000000
vn 0.000000 -1.000000 0.000000
vn 1.000000 0.000000 0.000000
vn 0.500000 0.000000 -0.866025
vn 0.500000 0.000000 -0.866025
vn 1.000000 0.000000 0.000000
vn 0.500000 0.000000 -0.866025
vn -0.499999 0.000000 -0.866026
vn -0.499999 0.000000 -0.866026
vn 0.500000 0.000000 -0.866025
vn -0.499999 0.000000 -0.866026
vn -1.000000 0.000000 0.000000
vn -1.000000 0.000000 0.000000
vn -0.499999 0.000000 -0.866026
vn -1.000000 0.000000 0.000000
vn -0.499999 0.000000 0.866026
vn -0.499999 0.000000 0.866026
vn -1.000000 0.000000 0.000000
vn -0.499999 0.000000 0.866026
vn 0.500000 0.000000 0.866025
vn 0.500000 0.000000 0.866025
vn -0.499999 0.000000 0.866026
vn 0.500000 0.000000 0.866025
vn 1.000000 0.000000 0.000000
vn 1.000000 0.000000 0.000000
vn 0.500000 0.000000 0.866025
vn 0.500000 0.000000 -0.866025
vn -0.499999 0.000000 -0.866026
vn -0.476088 0.305532 -0.824615
vn 0.476094 0.305533 -0.824611
vn -0.499999 0.000000 -0.866026
vn -1.000000 0.000000 0.000000
vn -0.952182 0.305531 -0.000000
vn -0.476088 0.305532 -0.824615
vn -1.000000 0.000000 0.000000
vn -0.499999 0.000000 0.866026
vn -0.476088 0.305532 0.824615
vn -0.952182 0.305531 -0.000000
vn -0.499999 0.000000 0.866026
vn 0.500000 0.000000 0.866025
vn 0.476094 0.305533 0.824611
vn -0.476088 0.305532 0.824615
vn 0.952181 0.305535 0.000000
vn 1.000000 0.000000 0.000000
vn 0.500000 0.000000 -0.866025
vn 0.476094 0.305533 -0.824611
vn 0.365620 0.682121 -0.633272
vn 0.123587 0.968971 -0.214059
vn 0.247174 0.968971 0.000000
vn 0.731238 0.682122 0.000000
vn 0.952181 0.305535 0.000000
vn 0.476094 0.305533 -0.824611
vn -0.365620 0.682118 -0.633274
vn -0.123587 0.968971 -0.214059
vn 0.123587 0.968971 -0.214059
vn 0.365620 0.682121 -0.633272
vn 0.476094 0.305533 -0.824611
vn -0.476088 0.305532 -0.824615
vn -0.731242 0.682118 -0.000000
vn -0.247176 0.968971 -0.000000
vn -0.123587 0.968971 -0.214059
vn -0.365620 0.682118 -0.633274
vn -0.476088 0.305532 -0.824615
vn -0.952182 0.305531 -0.000000
vn -0.365621 0.682118 0.633274
vn -0.123587 0.968971 0.214059
vn -0.247176 0.968971 -0.000000
vn -0.731242 0.682118 -0.000000
vn -0.952182 0.305531 -0.000000
vn -0.476088 0.305532 0.824615
vn 0.365620 0.682120 0.633272
vn 0.123587 0.968971 0.214059
vn -0.123587 0.968971 0.214059
vn -0.365621 0.682118 0.633274
vn -0.476088 0.305532 0.824615
vn 0.476094 0.305533 0.824611
vn -0.123587 0.968971 0.214059
vn 0.123587 0.968971 0.214059
vn 0.247174 0.968971 0.000000
vn 0.123587 0.968971 -0.214059
vn -0.123587 0.968971 -0.214059
vn -0.247176 0.968971 -0.000000
vn 0.365620 0.682120 0.633272
vn 0.476094 0.305533 0.824611
vn 0.952181 0.305535 0.000000
vn 0.731238 0.682122 0.000000
vn 0.247174 0.968971 0.000000
vn 0.123587 0.968971 0.214059
vn 0.000000 -1.000000 0.000000
vn 0.000000 -1.000000 0.000000
vn 0.000000 -1.000000 0.000000
vn 0.000000 -1.000000 0.000000
vn 0.000000 1.000000 0.000001
vn 0.000000 1.000000 0.000001
vn 0.000000 1.000000 0.000001
vn 0.000000 1.000000 0.000001
vn 0.000000 -1.000000 -0.000002
vn 0.000000 -1.000000 -0.000002
vn 0.000000 -1.000000 -0.000002
vn 0.000000 -1.000000 -0.000002
vn 0.000000 1.000000 0.000004
vn 0.000000 1.000000 0.000004
vn 0.000000 1.000000 0.000004
vn 0.000000 1.000000 0.000004
vn 0.000000 -1.000000 0.000001
vn 0.000000 -1.000000 0.000001
vn 0.000000 -1.000000 0.000001
vn 0.000000 -1.000000 0.000001
vn 0.000000 1.000000 0.000000
vn 0.000000 1.000000 0.000000
vn 0.000000 1.000000 0.000000
vn 0.000000 1.000000 0.000000
vn 0.000000 -1.000000 -0.000001
vn 0.000000 -1.000000 -0.000001
vn 0.000000 -1.000000 -0.000001
vn 0.000000 -1.000000 -0.000001
vn 0.000000 1.000000 -0.000002
vn 0.000000 1.000000 -0.000002
vn 0.000000 1.000000 -0.000002
vn 0.000000 1.000000 -0.000002
vn 0.000000 -1.000000 0.000002
vn 0.000000 -1.000000 0.000002
vn 0.000000 -1.000000 0.000002
vn 0.000000 -1.000000 0.000002
vn 0.000000 1.000000 -0.000005
vn 0.000000 1.000000 -0.000005
vn 0.000000 1.000000 -0.000005
vn 0.000000 1.000000 -0.000005
vn 0.000000 -1.000000 -0.000001
vn 0.000000 -1.000000 -0.000001
vn 0.000000 -1.000000 -0.000001
vn 0.000000 -1.000000 -0.000001
vn 0.000000 1.000000 0.000002
vn 0.000000 1.000000 0.000002
vn 0.000000 1.000000 0.000002
vn 0.000000 1.000000 0.000002
vn 0.952181 0.305535 0.000000
vn 0.476094 0.305533 0.824611
vn 0.500000 0.000000 0.866025
vn 1.000000 0.000000 0.000000
s off
g Salt_and_Pepper_Shaker Salt_and_Pepper_Shakers:Salt_and_Pepper_ShakerspCylinder2
usemtl lambert5SG
f 49/63/169 50/64/170 56/65/171 55/66/172
f 50/64/173 51/67/174 57/68/175 56/65/176
f 51/67/177 52/69/178 58/70/179 57/68/180
f 52/69/181 53/71/182 59/72/183 58/70/184
f 53/71/185 54/73/186 60/74/187 59/72/188
f 54/73/189 49/75/190 55/76/191 60/74/192
f 53/77/193 52/78/194 51/79/195 50/80/196 49/81/197 54/82/198
f 85/83/199 86/84/200 87/85/201 88/86/202
f 86/84/203 89/87/204 90/88/205 87/85/206
f 89/87/207 91/89/208 92/90/209 90/88/210
f 91/89/211 93/91/212 94/92/213 92/90/214
f 93/91/215 95/93/216 96/94/217 94/92/218
f 95/93/219 85/83/220 88/86/221 96/94/222
f 62/95/223 63/96/224 69/97/225 68/98/226
f 63/96/227 64/99/228 70/100/229 69/97/230
f 64/99/231 65/101/232 71/102/233 70/100/234
f 65/101/235 66/103/236 72/104/237 71/102/238
f 67/105/239 61/106/240 62/95/241 68/98/242
f 76/107/243 75/108/244 74/109/245 73/110/246 67/105/247 68/98/248
f 78/111/249 77/112/250 75/108/251 76/107/252 68/98/253 69/97/254
f 80/113/255 79/114/256 77/112/257 78/111/258 69/97/259 70/100/260
f 82/115/261 81/116/262 79/114/263 80/113/264 70/100/265 71/102/266
f 84/117/267 83/118/268 81/116/269 82/115/270 71/102/271 72/104/272
f 81/116/273 83/118/274 74/109/275 75/108/276 77/112/277 79/114/278
f 84/117/279 72/104/280 67/105/281 73/110/282 74/109/283 83/118/284
f 60/119/285 55/120/286 86/84/287 85/83/288
f 62/95/289 61/106/290 88/86/291 87/85/292
f 55/120/293 56/121/294 89/87/295 86/84/296
f 63/96/297 62/95/298 87/85/299 90/88/300
f 56/121/301 57/122/302 91/89/303 89/87/304
f 64/99/305 63/96/306 90/88/307 92/90/308
f 57/122/309 58/123/310 93/91/311 91/89/312
f 65/101/313 64/99/314 92/90/315 94/92/316
f 58/123/317 59/124/318 95/93/319 93/91/320
f 66/103/321 65/101/322 94/92/323 96/94/324
f 59/124/325 60/119/326 85/83/327 95/93/328
f 61/106/329 66/103/330 96/94/331 88/86/332
f 67/105/333 72/104/334 66/103/335 61/106/336
