# This file uses centimeters as units for non-parametric coordinates.

mtllib Sculpture.mtl
g default
v -41.955108 26.829854 -31.990555
v -41.068366 26.829854 -31.990555
v -41.955108 27.716596 -31.990555
v -41.068366 27.716596 -31.990555
v -41.955108 27.716596 -32.877297
v -41.068366 27.716596 -32.877297
v -41.955108 26.829854 -32.877297
v -41.068366 26.829854 -32.877297
v -41.955108 30.121553 -31.990555
v -41.068366 30.121553 -31.990555
v -41.068366 30.121553 -32.877297
v -41.955108 30.121553 -32.877297
v -36.398365 26.830112 -32.877696
v -36.400283 26.830313 -31.976098
v -36.398365 27.716564 -32.877696
v -36.400283 27.716539 -31.976098
v -41.955108 29.193063 -31.990555
v -41.068366 29.193063 -31.990555
v -41.068366 29.193063 -32.877297
v -41.955108 29.193063 -32.877297
v -41.068366 29.193063 -37.018342
v -41.955108 29.193063 -37.018342
v -41.955108 30.121553 -37.018342
v -41.068366 30.121553 -37.018342
v -41.068366 29.193063 -36.140171
v -41.955108 29.193063 -36.140171
v -41.955108 30.121553 -36.140171
v -41.068366 30.121553 -36.140171
v -32.819654 30.121553 -36.140171
v -32.819654 29.193063 -36.140171
v -32.819654 29.193063 -37.018342
v -32.819654 30.121553 -37.018342
v -33.809689 30.121553 -36.140171
v -33.809689 29.193063 -36.140171
v -33.809689 29.193063 -37.018342
v -33.809689 30.121553 -37.018342
v -33.809689 22.899246 -36.140171
v -33.809689 22.899246 -37.018342
v -32.819654 22.899246 -37.018342
v -32.819654 22.899246 -36.140171
v -33.809689 24.006945 -36.140171
v -33.809689 24.006945 -37.018342
v -32.819654 24.006945 -37.018342
v -32.819654 24.006945 -36.140171
v -32.819654 24.006945 -33.099266
v -33.809689 24.006945 -33.099266
v -33.809689 22.899246 -33.099266
v -32.819654 22.899246 -33.099266
v -32.819654 24.006945 -34.143105
v -33.809689 24.006945 -34.143105
v -33.809689 22.899246 -34.143105
v -32.819654 22.899246 -34.143105
v -38.722333 24.006945 -34.143105
v -38.722333 22.899246 -34.143105
v -38.722333 22.899246 -33.099266
v -38.722333 24.006945 -33.099266
v -37.634821 24.006945 -34.143105
v -37.634821 22.899246 -34.143105
v -37.634821 22.899246 -33.099266
v -37.634821 24.006945 -33.099266
v -37.634821 32.638481 -33.099266
v -37.634821 32.638481 -34.143105
v -38.722333 32.638481 -34.143105
v -38.722333 32.638481 -33.099266
v -37.634821 31.535018 -33.099266
v -37.634821 31.535018 -34.143105
v -38.722333 31.535018 -34.143105
v -38.722333 31.535018 -33.099266
v -37.634821 31.535018 -40.398531
v -38.722333 31.535018 -40.398531
v -38.722333 32.638481 -40.398531
v -37.634821 32.638481 -40.398531
v -37.634821 31.535018 -39.339576
v -38.722333 31.535018 -39.339576
v -38.722333 32.638481 -39.339576
v -37.634821 32.638481 -39.339576
v -35.372168 32.638481 -39.339576
v -35.372168 31.535018 -39.339576
v -35.372168 31.535018 -40.398531
v -35.372168 32.638481 -40.398531
v -36.404653 32.638481 -39.339576
v -36.404653 31.535018 -39.339576
v -36.404653 31.535018 -40.398531
v -36.404653 32.638481 -40.398531
v -36.404653 26.830772 -39.339576
v -36.404653 26.830772 -40.398531
v -35.372168 26.830772 -40.398531
v -35.372168 26.830772 -39.339576
v -36.404653 27.716483 -39.339576
v -36.404653 27.716483 -40.398531
v -35.372168 27.716483 -40.398531
v -35.372168 27.716483 -39.339576
v -35.372168 27.716483 -31.961640
v -35.372168 26.830772 -31.961640
v -35.372168 27.716483 -32.865408
v -35.372168 26.830772 -32.865408
vt 0.523916 0.666347
vt 0.565723 0.666347
vt 0.523916 0.680282
vt 0.565723 0.680282
vt 0.523916 0.694218
vt 0.565723 0.694218
vt 0.523916 0.708153
vt 0.565723 0.708153
vt 0.523916 0.722089
vt 0.565723 0.722089
vt 0.607529 0.666347
vt 0.607529 0.680282
vt 0.482110 0.666347
vt 0.482110 0.680282
vt 0.523916 0.680282
vt 0.565723 0.680282
vt 0.565723 0.694218
vt 0.523916 0.694218
vt 0.565723 0.666347
vt 0.607529 0.666347
vt 0.607529 0.680282
vt 0.565723 0.680282
vt 0.523916 0.680282
vt 0.565723 0.680282
vt 0.565723 0.694218
vt 0.523916 0.694218
vt 0.565723 0.694218
vt 0.523916 0.694218
vt 0.523916 0.694218
vt 0.565723 0.694218
vt 0.565723 0.694218
vt 0.523916 0.694218
vt 0.523916 0.694218
vt 0.565723 0.694218
vt 0.565723 0.694218
vt 0.565723 0.694218
vt 0.565723 0.694218
vt 0.565723 0.694218
vt 0.565723 0.694218
vt 0.565723 0.694218
vt 0.565723 0.694218
vt 0.565723 0.694218
vt 0.565723 0.694218
vt 0.565723 0.694218
vt 0.565723 0.694218
vt 0.565723 0.694218
vt 0.565723 0.694218
vt 0.565723 0.694218
vt 0.565723 0.694218
vt 0.565723 0.694218
vt 0.565723 0.694218
vt 0.565723 0.694218
vt 0.565723 0.694218
vt 0.565723 0.694218
vt 0.565723 0.694218
vt 0.565723 0.694218
vt 0.565723 0.694218
vt 0.565723 0.694218
vt 0.565723 0.694218
vt 0.565723 0.694218
vt 0.565723 0.694218
vt 0.565723 0.694218
vt 0.565723 0.694218
vt 0.565723 0.694218
vt 0.565723 0.694218
vt 0.565723 0.694218
vt 0.565723 0.694218
vt 0.565723 0.694218
vt 0.565723 0.694218
vt 0.565723 0.694218
vt 0.565723 0.694218
vt 0.565723 0.694218
vt 0.565723 0.694218
vt 0.565723 0.694218
vt 0.565723 0.694218
vt 0.565723 0.694218
vt 0.565723 0.694218
vt 0.565723 0.694218
vt 0.565723 0.694218
vt 0.565723 0.694218
vt 0.565723 0.694218
vt 0.565723 0.694218
vt 0.565723 0.694218
vt 0.565723 0.694218
vt 0.565723 0.694218
vt 0.565723 0.694218
vt 0.565723 0.694218
vt 0.565723 0.694218
vt 0.565723 0.694218
vt 0.565723 0.694218
vt 0.565723 0.694218
vt 0.565723 0.694218
vt 0.565723 0.694218
vt 0.565723 0.694218
vt 0.565723 0.694218
vt 0.565723 0.694218
vt 0.565723 0.694218
vt 0.565723 0.694218
vt 0.565723 0.694218
vt 0.565723 0.694218
vt 0.565723 0.694218
vt 0.565723 0.694218
vt 0.565723 0.694218
vt 0.565723 0.694218
vt 0.565723 0.694218
vt 0.565723 0.694218
vn 0.000000 0.000000 1.000000
vn -0.002603 0.000000 0.999997
vn -0.002056 0.000000 0.999998
vn 0.000000 0.000000 1.000000
vn 0.000000 1.000000 0.000000
vn 0.000000 1.000000 0.000000
vn 0.000000 1.000000 0.000000
vn 0.000000 1.000000 0.000000
vn 0.000000 0.000000 -1.000000
vn -0.000057 0.000000 -1.000000
vn -0.000072 0.000000 -1.000000
vn 0.000000 0.000000 -1.000000
vn 0.000000 -1.000000 0.000000
vn 0.000064 -1.000000 0.000095
vn 0.000064 -1.000000 0.000095
vn 0.000000 -1.000000 0.000000
vn 0.999998 0.000000 0.002127
vn 0.999998 0.000000 0.002127
vn 0.999998 0.000000 0.002127
vn 0.999998 0.000000 0.002127
vn -1.000000 0.000000 0.000000
vn -1.000000 0.000000 0.000000
vn -1.000000 0.000000 0.000000
vn -1.000000 0.000000 0.000000
vn 0.000000 0.000000 1.000000
vn 0.000000 0.000000 1.000000
vn 0.000000 0.000000 1.000000
vn 0.000000 0.000000 1.000000
vn 1.000000 0.000000 0.000000
vn 1.000000 0.000000 0.000000
vn 1.000000 0.000000 0.000000
vn 1.000000 0.000000 0.000000
vn 0.000000 0.000000 -1.000000
vn 0.000000 0.000000 -1.000000
vn 0.000000 0.000000 -1.000000
vn 0.000000 0.000000 -1.000000
vn -1.000000 0.000000 0.000000
vn -1.000000 0.000000 0.000000
vn -1.000000 0.000000 0.000000
vn -1.000000 0.000000 0.000000
vn 0.000064 -1.000000 0.000095
vn 0.000064 -1.000000 0.000095
vn 0.000077 -1.000000 0.000113
vn 0.000077 -1.000000 0.000113
vn -0.000072 0.000000 -1.000000
vn -0.000057 0.000000 -1.000000
vn -0.000085 0.000000 -1.000000
vn -0.000085 0.000000 -1.000000
vn 0.000009 1.000000 0.000014
vn 0.000009 1.000000 0.000014
vn 0.000009 1.000000 0.000014
vn 0.000009 1.000000 0.000014
vn -0.002056 0.000000 0.999998
vn -0.002603 0.000000 0.999997
vn -0.003097 0.000000 0.999995
vn -0.003097 0.000000 0.999995
vn 0.000000 0.000000 1.000000
vn -0.002056 0.000000 0.999998
vn 0.000000 0.000000 1.000000
vn 0.000000 0.000000 1.000000
vn 1.000000 0.000000 0.000000
vn 1.000000 0.000000 0.000000
vn 1.000000 0.000000 0.000000
vn 1.000000 0.000000 0.000000
vn -0.000057 0.000000 -1.000000
vn 0.000000 0.000000 -1.000000
vn 0.000000 0.000000 -1.000000
vn 0.000000 0.000000 -1.000000
vn -1.000000 0.000000 0.000000
vn -1.000000 0.000000 0.000000
vn -1.000000 0.000000 0.000000
vn -1.000000 0.000000 0.000000
vn 0.000000 -1.000000 0.000000
vn 0.000000 -1.000000 0.000000
vn 0.000000 -1.000000 0.000000
vn 0.000000 -1.000000 0.000000
vn -1.000000 0.000000 0.000000
vn -1.000000 0.000000 0.000000
vn -1.000000 0.000000 0.000000
vn -1.000000 0.000000 0.000000
vn 0.000000 1.000000 0.000000
vn 0.000000 1.000000 0.000000
vn 0.000000 1.000000 0.000000
vn 0.000000 1.000000 0.000000
vn 1.000000 0.000000 0.000000
vn 1.000000 0.000000 0.000000
vn 1.000000 0.000000 0.000000
vn 1.000000 0.000000 0.000000
vn 0.000000 -1.000000 0.000000
vn 0.000000 -1.000000 0.000000
vn 0.000000 -1.000000 0.000000
vn 0.000000 -1.000000 0.000000
vn -1.000000 0.000000 0.000000
vn -1.000000 0.000000 0.000000
vn -1.000000 0.000000 0.000000
vn -1.000000 0.000000 0.000000
vn 0.000000 1.000000 0.000000
vn 0.000000 1.000000 0.000000
vn 0.000000 1.000000 0.000000
vn 0.000000 1.000000 0.000000
vn 1.000000 0.000000 0.000000
vn 1.000000 0.000000 0.000000
vn 1.000000 0.000000 0.000000
vn 1.000000 0.000000 0.000000
vn 0.000000 0.000000 1.000000
vn 0.000000 0.000000 1.000000
vn 0.000000 0.000000 1.000000
vn 0.000000 0.000000 1.000000
vn 0.000000 -1.000000 0.000000
vn 0.000000 -1.000000 0.000000
vn 0.000000 -1.000000 0.000000
vn 0.000000 -1.000000 0.000000
vn 0.000000 0.000000 -1.000000
vn 0.000000 0.000000 -1.000000
vn 0.000000 0.000000 -1.000000
vn 0.000000 0.000000 -1.000000
vn 0.000000 1.000000 0.000000
vn 0.000000 1.000000 0.000000
vn 0.000000 1.000000 0.000000
vn 0.000000 1.000000 0.000000
vn 0.000000 0.000000 1.000000
vn 0.000000 0.000000 1.000000
vn 0.000000 0.000000 1.000000
vn 0.000000 0.000000 1.000000
vn 0.000000 -1.000000 0.000000
vn 0.000000 -1.000000 0.000000
vn 0.000000 -1.000000 0.000000
vn 0.000000 -1.000000 0.000000
vn 0.000000 0.000000 -1.000000
vn 0.000000 0.000000 -1.000000
vn 0.000000 0.000000 -1.000000
vn 0.000000 0.000000 -1.000000
vn 0.000000 1.000000 0.000000
vn 0.000000 1.000000 0.000000
vn 0.000000 1.000000 0.000000
vn 0.000000 1.000000 0.000000
vn -1.000000 0.000000 0.000000
vn -1.000000 0.000000 0.000000
vn -1.000000 0.000000 0.000000
vn -1.000000 0.000000 0.000000
vn 0.000000 0.000000 -1.000000
vn 0.000000 0.000000 -1.000000
vn 0.000000 0.000000 -1.000000
vn 0.000000 0.000000 -1.000000
vn 1.000000 0.000000 0.000000
vn 1.000000 0.000000 0.000000
vn 1.000000 0.000000 0.000000
vn 1.000000 0.000000 0.000000
vn 0.000000 0.000000 1.000000
vn 0.000000 0.000000 1.000000
vn 0.000000 0.000000 1.000000
vn 0.000000 0.000000 1.000000
vn -1.000000 0.000000 0.000000
vn -1.000000 0.000000 0.000000
vn -1.000000 0.000000 0.000000
vn -1.000000 0.000000 0.000000
vn 0.000000 0.000000 -1.000000
vn 0.000000 0.000000 -1.000000
vn 0.000000 0.000000 -1.000000
vn 0.000000 0.000000 -1.000000
vn 1.000000 0.000000 0.000000
vn 1.000000 0.000000 0.000000
vn 1.000000 0.000000 0.000000
vn 1.000000 0.000000 0.000000
vn 0.000000 0.000000 1.000000
vn 0.000000 0.000000 1.000000
vn 0.000000 0.000000 1.000000
vn 0.000000 0.000000 1.000000
vn 0.000000 1.000000 0.000000
vn 0.000000 1.000000 0.000000
vn 0.000000 1.000000 0.000000
vn 0.000000 1.000000 0.000000
vn -1.000000 0.000000 0.000000
vn -1.000000 0.000000 0.000000
vn -1.000000 0.000000 0.000000
vn -1.000000 0.000000 0.000000
vn 0.000000 -1.000000 0.000000
vn 0.000000 -1.000000 0.000000
vn 0.000000 -1.000000 0.000000
vn 0.000000 -1.000000 0.000000
vn 1.000000 0.000000 0.000000
vn 1.000000 0.000000 0.000000
vn 1.000000 0.000000 0.000000
vn 1.000000 0.000000 0.000000
vn 0.000000 1.000000 0.000000
vn 0.000000 1.000000 0.000000
vn 0.000000 1.000000 0.000000
vn 0.000000 1.000000 0.000000
vn -1.000000 0.000000 0.000000
vn -1.000000 0.000000 0.000000
vn -1.000000 0.000000 0.000000
vn -1.000000 0.000000 0.000000
vn 0.000000 -1.000000 0.000000
vn 0.000000 -1.000000 0.000000
vn 0.000000 -1.000000 0.000000
vn 0.000000 -1.000000 0.000000
vn 1.000000 0.000000 0.000000
vn 1.000000 0.000000 0.000000
vn 1.000000 0.000000 0.000000
vn 1.000000 0.000000 0.000000
vn 0.000000 0.000000 -1.000000
vn 0.000000 0.000000 -1.000000
vn 0.000000 0.000000 -1.000000
vn 0.000000 0.000000 -1.000000
vn 0.000000 -1.000000 0.000000
vn 0.000000 -1.000000 0.000000
vn 0.000000 -1.000000 0.000000
vn 0.000000 -1.000000 0.000000
vn 0.000000 0.000000 1.000000
vn 0.000000 0.000000 1.000000
vn 0.000000 0.000000 1.000000
vn 0.000000 0.000000 1.000000
vn 0.000000 1.000000 0.000000
vn 0.000000 1.000000 0.000000
vn 0.000000 1.000000 0.000000
vn 0.000000 1.000000 0.000000
vn 0.000000 0.000000 -1.000000
vn 0.000000 0.000000 -1.000000
vn 0.000000 0.000000 -1.000000
vn 0.000000 0.000000 -1.000000
vn 0.000000 -1.000000 0.000000
vn 0.000000 -1.000000 0.000000
vn 0.000000 -1.000000 0.000000
vn 0.000000 -1.000000 0.000000
vn 0.000000 0.000000 1.000000
vn 0.000000 0.000000 1.000000
vn 0.000000 0.000000 1.000000
vn 0.000000 0.000000 1.000000
vn 0.000000 1.000000 0.000000
vn 0.000000 1.000000 0.000000
vn 0.000000 1.000000 0.000000
vn 0.000000 1.000000 0.000000
vn 1.000000 0.000000 0.000000
vn 1.000000 0.000000 0.000000
vn 1.000000 0.000000 0.000000
vn 1.000000 0.000000 0.000000
vn 0.000000 0.000000 -1.000000
vn 0.000000 0.000000 -1.000000
vn 0.000000 0.000000 -1.000000
vn 0.000000 0.000000 -1.000000
vn -1.000000 0.000000 0.000000
vn -1.000000 0.000000 0.000000
vn -1.000000 0.000000 0.000000
vn -1.000000 0.000000 0.000000
vn 0.000000 0.000000 1.000000
vn 0.000000 0.000000 1.000000
vn 0.000000 0.000000 1.000000
vn 0.000000 0.000000 1.000000
vn 1.000000 0.000000 0.000000
vn 1.000000 0.000000 0.000000
vn 1.000000 0.000000 0.000000
vn 1.000000 0.000000 0.000000
vn 0.000000 0.000000 -1.000000
vn 0.000000 0.000000 -1.000000
vn 0.000000 0.000000 -1.000000
vn 0.000000 0.000000 -1.000000
vn -1.000000 0.000000 0.000000
vn -1.000000 0.000000 0.000000
vn -1.000000 0.000000 0.000000
vn -1.000000 0.000000 0.000000
vn 0.000000 0.000000 1.000000
vn 0.000000 0.000000 1.000000
vn 0.000000 0.000000 1.000000
vn 0.000000 0.000000 1.000000
vn 0.000000 -1.000000 0.000000
vn 0.000000 -1.000000 0.000000
vn 0.000000 -1.000000 0.000000
vn 0.000000 -1.000000 0.000000
vn -1.000000 0.000000 0.000000
vn -1.000000 0.000000 0.000000
vn -1.000000 0.000000 0.000000
vn -1.000000 0.000000 0.000000
vn 0.000000 1.000000 0.000000
vn 0.000000 1.000000 0.000000
vn 0.000000 1.000000 0.000000
vn 0.000000 1.000000 0.000000
vn 1.000000 0.000000 0.000000
vn 1.000000 0.000000 0.000000
vn 1.000000 0.000000 0.000000
vn 1.000000 0.000000 0.000000
vn 0.000000 -1.000000 0.000000
vn 0.000000 -1.000000 0.000000
vn 0.000000 -1.000000 0.000000
vn 0.000000 -1.000000 0.000000
vn -1.000000 0.000000 0.000000
vn -1.000000 0.000000 0.000000
vn -1.000000 0.000000 0.000000
vn -1.000000 0.000000 0.000000
vn 0.000000 1.000000 0.000000
vn 0.000000 1.000000 0.000000
vn 0.000000 1.000000 0.000000
vn 0.000000 1.000000 0.000000
vn 1.000000 0.000000 0.000000
vn 1.000000 0.000000 0.000000
vn 1.000000 0.000000 0.000000
vn 1.000000 0.000000 0.000000
vn 0.000000 0.000000 1.000000
vn 0.000000 0.000000 1.000000
vn 0.000000 0.000000 1.000000
vn 0.000000 0.000000 1.000000
vn 0.000276 -1.000000 -0.000044
vn 0.000000 -1.000000 0.000000
vn 0.000000 -1.000000 0.000000
vn 0.000276 -1.000000 -0.000044
vn 0.000000 0.000000 -1.000000
vn 0.000000 0.000000 -1.000000
vn 0.000000 0.000000 -1.000000
vn 0.000000 0.000000 -1.000000
vn 0.000000 1.000000 0.000000
vn 0.000000 1.000000 0.000000
vn 0.000000 1.000000 0.000000
vn 0.000000 1.000000 0.000000
vn 0.000000 0.000000 1.000000
vn 0.000000 0.000000 1.000000
vn 0.000000 0.000000 1.000000
vn 0.000000 0.000000 1.000000
vn 0.000000 -1.000000 0.000000
vn 0.000000 -1.000000 0.000000
vn 0.000000 -1.000000 0.000000
vn 0.000000 -1.000000 0.000000
vn 0.000000 0.000000 -1.000000
vn 0.000000 0.000000 -1.000000
vn 0.000000 0.000000 -1.000000
vn 0.000000 0.000000 -1.000000
vn 0.000000 1.000000 0.000000
vn 0.000000 1.000000 0.000000
vn 0.000000 1.000000 0.000000
vn 0.000000 1.000000 0.000000
vn -1.000000 0.000000 0.000520
vn -1.000000 0.000000 0.000000
vn -1.000000 0.000000 0.000000
vn -1.000000 0.000000 0.000836
vn 0.000000 0.000000 -1.000000
vn 0.000000 0.000000 -1.000000
vn 0.000000 0.000000 -1.000000
vn 0.000000 0.000000 -1.000000
vn 1.000000 0.000000 0.000000
vn 1.000000 0.000000 0.000000
vn 1.000000 0.000000 0.000000
vn 1.000000 0.000000 0.000000
vn -0.014061 0.000000 0.999901
vn -0.014061 0.000000 0.999901
vn -0.014061 0.000000 0.999901
vn -0.014061 0.000000 0.999901
vn -1.000000 0.000000 0.000000
vn -1.000000 0.000000 0.000000
vn -1.000000 0.000000 0.000000
vn -1.000000 0.000000 0.000520
vn 0.000000 0.000000 -1.000000
vn 0.000000 0.000000 -1.000000
vn 0.000000 0.000000 -1.000000
vn 0.000000 0.000000 -1.000000
vn 1.000000 0.000000 0.000000
vn 1.000000 0.000000 0.000000
vn 1.000000 0.000000 0.000000
vn 1.000000 0.000000 0.000000
vn 0.000000 0.000000 1.000000
vn 0.000000 0.000000 1.000000
vn 0.000000 0.000000 1.000000
vn 0.000000 0.000000 1.000000
vn 0.000043 1.000000 -0.000004
vn 0.000043 1.000000 -0.000004
vn 0.000067 1.000000 0.000014
vn 0.000067 1.000000 0.000014
vn -0.999998 0.000000 -0.002127
vn -0.999998 0.000000 -0.002127
vn -0.999998 0.000000 -0.002127
vn -0.999998 0.000000 -0.002127
vn 0.000348 -1.000000 -0.000031
vn 0.000349 -1.000000 -0.000031
vn 0.000543 -1.000000 0.000112
vn 0.000543 -1.000000 0.000112
vn 1.000000 0.000000 0.000000
vn 1.000000 0.000000 0.000000
vn 1.000000 0.000000 0.000000
vn 1.000000 0.000000 0.000000
vn 0.000039 1.000000 -0.000006
vn 0.000039 1.000000 -0.000006
vn 0.000043 1.000000 -0.000004
vn 0.000043 1.000000 -0.000004
vn -1.000000 0.000000 0.000520
vn -1.000000 0.000000 0.000836
vn -1.000000 0.000000 0.000973
vn -1.000000 0.000000 0.000973
vn 0.000276 -1.000000 -0.000044
vn 0.000276 -1.000000 -0.000044
vn 0.000349 -1.000000 -0.000031
vn 0.000348 -1.000000 -0.000031
vn 1.000000 0.000000 0.000000
vn 1.000000 0.000000 0.000000
vn 1.000000 0.000000 0.000000
vn 1.000000 0.000000 0.000000
s off
g pCube6 Sculpture_1
usemtl lambert5SG
f 1/1/1 2/2/2 4/4/3 3/3/4
f 9/15/5 10/16/6 11/17/7 12/18/8
f 5/5/9 6/6/10 8/8/11 7/7/12
f 7/7/13 8/8/14 2/10/15 1/9/16
f 14/19/17 13/20/18 15/21/19 16/22/20
f 7/13/21 1/1/22 3/3/23 5/14/24
f 17/23/25 18/24/26 10/16/27 9/15/28
f 18/24/29 19/25/30 11/17/31 10/16/32
f 21/27/33 22/28/34 23/29/35 24/30/36
f 20/26/37 17/23/38 9/15/39 12/18/40
f 2/2/41 8/11/42 13/20/43 14/19/44
f 8/11/45 6/12/46 15/21/47 13/20/48
f 6/12/49 4/4/50 16/22/51 15/21/52
f 4/4/53 2/2/54 14/19/55 16/22/56
f 3/3/57 4/4/58 18/24/59 17/23/60
f 4/4/61 6/6/62 19/25/63 18/24/64
f 6/6/65 5/5/66 20/26/67 19/25/68
f 5/5/69 3/3/70 17/23/71 20/26/72
f 25/31/73 26/32/74 22/28/75 21/27/76
f 26/32/77 27/33/78 23/29/79 22/28/80
f 27/33/81 28/34/82 24/30/83 23/29/84
f 29/35/85 30/36/86 31/37/87 32/38/88
f 19/25/89 20/26/90 26/32/91 25/31/92
f 20/26/93 12/18/94 27/33/95 26/32/96
f 12/18/97 11/17/98 28/34/99 27/33/100
f 11/17/101 19/25/102 25/31/103 28/34/104
f 33/39/105 34/40/106 30/36/107 29/35/108
f 37/43/109 38/44/110 39/45/111 40/46/112
f 35/41/113 36/42/114 32/38/115 31/37/116
f 36/42/117 33/39/118 29/35/119 32/38/120
f 28/34/121 25/31/122 34/40/123 33/39/124
f 25/31/125 21/27/126 35/41/127 34/40/128
f 21/27/129 24/30/130 36/42/131 35/41/132
f 24/30/133 28/34/134 33/39/135 36/42/136
f 41/47/137 42/48/138 38/44/139 37/43/140
f 42/48/141 43/49/142 39/45/143 38/44/144
f 43/49/145 44/50/146 40/46/147 39/45/148
f 45/51/149 46/52/150 47/53/151 48/54/152
f 34/40/153 35/41/154 42/48/155 41/47/156
f 35/41/157 31/37/158 43/49/159 42/48/160
f 31/37/161 30/36/162 44/50/163 43/49/164
f 30/36/165 34/40/166 41/47/167 44/50/168
f 49/55/169 50/56/170 46/52/171 45/51/172
f 53/59/173 54/60/174 55/61/175 56/62/176
f 51/57/177 52/58/178 48/54/179 47/53/180
f 52/58/181 49/55/182 45/51/183 48/54/184
f 44/50/185 41/47/186 50/56/187 49/55/188
f 41/47/189 37/43/190 51/57/191 50/56/192
f 37/43/193 40/46/194 52/58/195 51/57/196
f 40/46/197 44/50/198 49/55/199 52/58/200
f 57/63/201 58/64/202 54/60/203 53/59/204
f 58/64/205 59/65/206 55/61/207 54/60/208
f 59/65/209 60/66/210 56/62/211 55/61/212
f 61/67/213 62/68/214 63/69/215 64/70/216
f 50/56/217 51/57/218 58/64/219 57/63/220
f 51/57/221 47/53/222 59/65/223 58/64/224
f 47/53/225 46/52/226 60/66/227 59/65/228
f 46/52/229 50/56/230 57/63/231 60/66/232
f 65/71/233 66/72/234 62/68/235 61/67/236
f 69/75/237 70/76/238 71/77/239 72/78/240
f 67/73/241 68/74/242 64/70/243 63/69/244
f 68/74/245 65/71/246 61/67/247 64/70/248
f 60/66/249 57/63/250 66/72/251 65/71/252
f 57/63/253 53/59/254 67/73/255 66/72/256
f 53/59/257 56/62/258 68/74/259 67/73/260
f 56/62/261 60/66/262 65/71/263 68/74/264
f 73/79/265 74/80/266 70/76/267 69/75/268
f 74/80/269 75/81/270 71/77/271 70/76/272
f 75/81/273 76/82/274 72/78/275 71/77/276
f 77/83/277 78/84/278 79/85/279 80/86/280
f 66/72/281 67/73/282 74/80/283 73/79/284
f 67/73/285 63/69/286 75/81/287 74/80/288
f 63/69/289 62/68/290 76/82/291 75/81/292
f 62/68/293 66/72/294 73/79/295 76/82/296
f 81/87/297 82/88/298 78/84/299 77/83/300
f 85/91/301 86/92/302 87/93/303 88/94/304
f 83/89/305 84/90/306 80/86/307 79/85/308
f 84/90/309 81/87/310 77/83/311 80/86/312
f 76/82/313 73/79/314 82/88/315 81/87/316
f 73/79/317 69/75/318 83/89/319 82/88/320
f 69/75/321 72/78/322 84/90/323 83/89/324
f 72/78/325 76/82/326 81/87/327 84/90/328
f 89/95/329 90/96/330 86/92/331 85/91/332
f 90/96/333 91/97/334 87/93/335 86/92/336
f 91/97/337 92/98/338 88/94/339 87/93/340
f 93/99/341 16/100/342 14/101/343 94/102/344
f 82/88/345 83/89/346 90/96/347 89/95/348
f 83/89/349 79/85/350 91/97/351 90/96/352
f 79/85/353 78/84/354 92/98/355 91/97/356
f 78/84/357 82/88/358 89/95/359 92/98/360
f 95/103/361 15/104/362 16/100/363 93/99/364
f 15/104/365 13/105/366 14/101/367 16/100/368
f 13/105/369 96/106/370 94/102/371 14/101/372
f 96/106/373 95/103/374 93/99/375 94/102/376
f 92/98/377 89/95/378 15/104/379 95/103/380
f 89/95/381 85/91/382 13/105/383 15/104/384
f 85/91/385 88/94/386 96/106/387 13/105/388
f 88/94/389 92/98/390 95/103/391 96/106/392
g default
v -42.732002 0.000000 -31.379799
v -32.129210 0.000000 -31.379799
v -42.732002 23.184511 -31.379799
v -32.129210 23.184511 -31.379799
v -42.732002 23.184511 -41.982592
v -32.129210 23.184511 -41.982592
v -42.732002 0.000000 -41.982592
v -32.129210 0.000000 -41.982592
vt 0.134072 0.294553
vt 0.211895 0.294553
vt 0.134072 0.372377
vt 0.211895 0.372377
vt 0.134072 0.450201
vt 0.211895 0.450201
vt 0.134072 0.528024
vt 0.211895 0.528024
vt 0.134072 0.605848
vt 0.211895 0.605848
vt 0.289719 0.294553
vt 0.289719 0.372377
vt 0.056248 0.294553
vt 0.056248 0.372377
vn 0.000000 0.000000 1.000000
vn 0.000000 0.000000 1.000000
vn 0.000000 0.000000 1.000000
vn 0.000000 0.000000 1.000000
vn 0.000000 1.000000 0.000000
vn 0.000000 1.000000 0.000000
vn 0.000000 1.000000 0.000000
vn 0.000000 1.000000 0.000000
vn 0.000000 0.000000 -1.000000
vn 0.000000 0.000000 -1.000000
vn 0.000000 0.000000 -1.000000
vn 0.000000 0.000000 -1.000000
vn 0.000000 -1.000000 0.000000
vn 0.000000 -1.000000 0.000000
vn 0.000000 -1.000000 0.000000
vn 0.000000 -1.000000 0.000000
vn 1.000000 0.000000 0.000000
vn 1.000000 0.000000 0.000000
vn 1.000000 0.000000 0.000000
vn 1.000000 0.000000 0.000000
vn -1.000000 0.000000 0.000000
vn -1.000000 0.000000 0.000000
vn -1.000000 0.000000 0.000000
vn -1.000000 0.000000 0.000000
s off
g Sculpture_1 pCube7
usemtl lambert5SG
f 97/107/393 98/108/394 100/110/395 99/109/396
f 99/109/397 100/110/398 102/112/399 101/111/400
f 101/111/401 102/112/402 104/114/403 103/113/404
f 103/113/405 104/114/406 98/116/407 97/115/408
f 98/108/409 104/117/410 102/118/411 100/110/412
f 103/119/413 97/107/414 99/109/415 101/120/416
