# This file uses centimeters as units for non-parametric coordinates.

mtllib set1.mtl
g default
v -0.000000 0.000000 -0.032012
v 0.000234 0.407063 -0.032012
v 0.000234 0.407063 -0.438894
v 0.005121 0.000000 -0.438894
v 0.091024 0.000000 -0.032012
v 0.095541 0.407063 -0.438894
v 0.095541 0.407063 -0.032012
v 0.161935 0.000000 -0.032012
v 0.161935 0.406882 -0.032012
v 0.233291 0.000000 -0.032012
v 0.233291 0.493369 -0.032012
v 0.233291 0.493369 -0.438894
v 0.290134 -0.000188 -0.032012
v 0.290134 0.493369 -0.032012
v 0.290134 0.493369 -0.438894
v -0.000000 0.000000 -0.000000
v 0.090314 0.000000 -0.000000
v 0.093077 0.407063 -0.000000
v 0.000999 0.407063 -0.000000
v 0.100898 0.591178 -0.032012
v 0.100898 0.591178 -0.438894
v 0.161935 0.591178 -0.032012
v 0.161935 0.591178 -0.438894
v 0.233291 0.591178 -0.032012
v 0.233291 0.591178 -0.438894
v 0.161935 0.650121 -0.032012
v 0.161935 0.650121 -0.438894
v 0.233291 0.650121 -0.032012
v 0.233291 0.650121 -0.438894
v 0.161935 0.000000 0.082242
v 0.161935 0.406882 0.082242
v 0.233291 0.000000 0.082242
v 0.233291 0.406882 0.082242
v 0.233291 0.591178 0.082242
v 0.161935 0.591178 0.082242
v 0.233291 0.650121 0.082242
v 0.161935 0.650121 0.082242
v 0.290134 -0.000375 -0.438894
vt 0.011664 0.684127
vt 0.108039 0.684025
vt 0.108156 0.795177
vt 0.011782 0.795279
vt 0.134067 0.683998
vt 0.134185 0.795150
vt 0.182296 0.683947
vt 0.182413 0.795099
vt 0.156385 0.795126
vt 0.156267 0.683974
vt 0.301856 0.761419
vt 0.418904 0.764585
vt 0.417470 0.817602
vt 0.300422 0.814435
vt 0.655125 0.711826
vt 0.770088 0.712563
vt 0.769911 0.740198
vt 0.654948 0.739461
vt 0.769624 0.784980
vt 0.654661 0.784242
vt 0.622666 0.739254
vt 0.623000 0.687182
vt 0.622379 0.784035
vt 0.656020 0.572426
vt 0.623738 0.572219
vt 0.455260 0.738180
vt 0.570223 0.738917
vt 0.569936 0.783699
vt 0.454973 0.782961
vt 0.602505 0.739124
vt 0.602217 0.783906
vt 0.570557 0.686846
vt 0.602839 0.687053
vt 0.571294 0.571883
vt 0.603576 0.572090
vt 0.134228 0.835955
vt 0.156428 0.835932
vt 0.156530 0.932307
vt 0.134329 0.932330
vt 0.414303 0.934649
vt 0.435028 0.818077
vt 0.431862 0.935124
vt 0.601273 0.931150
vt 0.602010 0.816188
vt 0.622172 0.816317
vt 0.621434 0.931280
vt 0.836792 0.846129
vt 0.837081 0.743745
vt 0.854111 0.744528
vt 0.853821 0.846911
vt 0.439629 0.648013
vt 0.436463 0.765060
vt 0.837433 0.619599
vt 0.854462 0.620382
vt 0.422071 0.647538
vt 0.850736 0.745986
vt 0.839010 0.745974
vt 0.839140 0.611989
vt 0.850866 0.612001
vn -0.999964 -0.005714 -0.006293
vn -0.999964 -0.005714 -0.006293
vn -0.999964 -0.005714 -0.006293
vn -0.999964 -0.005714 -0.006293
vn 0.000000 1.000000 0.000000
vn 0.000000 1.000000 0.000000
vn 0.000000 1.000000 0.000000
vn 0.000000 1.000000 0.000000
vn 0.000000 0.000000 1.000000
vn 0.000000 0.000000 1.000000
vn 0.000000 0.000000 1.000000
vn 0.000000 0.000000 1.000000
vn 0.000001 -0.000000 1.000000
vn 0.000001 -0.000000 1.000000
vn 0.000001 -0.000000 1.000000
vn 0.000001 -0.000000 1.000000
vn 0.000000 1.000000 0.000000
vn 0.000000 1.000000 0.000000
vn 0.000000 1.000000 0.000000
vn 0.000000 1.000000 0.000000
vn 0.000001 0.000000 1.000000
vn 0.000001 0.000000 1.000000
vn 0.000001 0.000000 1.000000
vn 0.000001 0.000000 1.000000
vn 0.000000 1.000000 0.000000
vn 0.000000 1.000000 0.000000
vn 0.000000 1.000000 0.000000
vn 0.000000 1.000000 0.000000
vn 0.000000 0.000000 1.000000
vn 0.000000 0.000000 1.000000
vn 0.000000 0.000000 1.000000
vn 0.000000 0.000000 1.000000
vn 0.000000 1.000000 0.000000
vn 0.000000 1.000000 0.000000
vn 0.000000 1.000000 0.000000
vn 0.000000 1.000000 0.000000
vn 0.998733 -0.008930 0.049519
vn 0.998733 -0.008930 0.049519
vn 0.998733 -0.008930 0.049519
vn 0.998733 -0.008930 0.049519
vn 0.000000 1.000000 0.000000
vn 0.000000 1.000000 0.000000
vn 0.000000 1.000000 0.000000
vn 0.000000 1.000000 0.000000
vn -0.999928 0.001515 0.011938
vn -0.999928 0.001515 0.011938
vn -0.999928 0.001515 0.011938
vn -0.999928 0.001515 0.011938
vn -0.999577 0.029080 0.000000
vn -0.999577 0.029080 0.000000
vn -0.999577 0.029080 0.000000
vn -0.999577 0.029080 0.000000
vn 0.000001 0.000000 1.000000
vn 0.000001 0.000000 1.000000
vn 0.000001 0.000000 1.000000
vn 0.000001 0.000000 1.000000
vn 0.000001 0.000000 1.000000
vn 0.000001 0.000000 1.000000
vn 0.000001 0.000000 1.000000
vn 0.000001 0.000000 1.000000
vn 1.000000 0.000000 0.000000
vn 1.000000 0.000000 0.000000
vn 1.000000 0.000000 0.000000
vn 1.000000 0.000000 0.000000
vn -1.000000 0.000000 0.000000
vn -1.000000 0.000000 0.000000
vn -1.000000 0.000000 0.000000
vn -1.000000 0.000000 0.000000
vn 0.000001 0.000000 1.000000
vn 0.000001 0.000000 1.000000
vn 0.000001 0.000000 1.000000
vn 0.000001 0.000000 1.000000
vn 1.000000 0.000000 0.000000
vn 1.000000 0.000000 0.000000
vn 1.000000 0.000000 0.000000
vn 1.000000 0.000000 0.000000
vn -1.000000 0.000000 0.000000
vn -1.000000 0.000000 0.000000
vn -1.000000 0.000000 0.000000
vn -1.000000 0.000000 0.000000
vn 1.000000 0.000000 0.000000
vn 1.000000 0.000000 0.000000
vn 1.000000 0.000000 0.000000
vn 1.000000 0.000000 0.000000
vn 1.000000 -0.000000 0.000000
vn 1.000000 -0.000000 0.000000
vn 1.000000 -0.000000 0.000000
vn 1.000000 -0.000000 0.000000
vn -1.000000 0.000000 0.000000
vn -1.000000 0.000000 0.000000
vn -1.000000 0.000000 0.000000
vn -1.000000 0.000000 0.000000
vn 1.000000 0.000000 0.000000
vn 1.000000 0.000000 0.000000
vn 1.000000 0.000000 0.000000
vn 1.000000 0.000000 0.000000
vn 0.000000 1.000000 0.000000
vn 0.000000 1.000000 0.000000
vn 0.000000 1.000000 0.000000
vn 0.000000 1.000000 0.000000
vn -1.000000 0.000000 0.000000
vn -1.000000 0.000000 0.000000
vn -1.000000 0.000000 0.000000
vn -1.000000 0.000000 0.000000
vn 1.000000 0.000000 0.000000
vn 1.000000 0.000000 0.000000
vn 1.000000 0.000000 0.000000
vn 1.000000 0.000000 0.000000
s off
g pCube10 set2
usemtl lambert2SG
f 4/1/1 1/2/2 2/3/3 3/4/4
f 2/36/5 7/37/6 6/38/7 3/39/8
f 16/5/9 17/10/10 18/9/11 19/6/12
f 7/12/13 5/55/14 8/51/15 9/52/16
f 21/40/17 20/13/18 22/41/19 23/42/20
f 31/33/21 30/35/22 32/25/23 33/22/24
f 27/43/25 26/44/26 28/45/27 29/46/28
f 11/48/29 10/53/30 13/54/31 14/49/32
f 12/47/33 11/48/34 14/49/35 15/50/36
f 5/7/37 7/8/38 18/9/39 17/10/40
f 7/37/41 2/36/42 19/6/43 18/9/44
f 2/3/45 1/2/46 16/5/47 19/6/48
f 6/11/49 7/12/50 20/13/51 21/14/52
f 7/12/53 9/52/54 22/41/55 20/13/56
f 31/33/57 33/22/58 34/21/59 35/30/60
f 11/15/61 12/16/62 25/17/63 24/18/64
f 23/26/65 22/27/66 26/28/67 27/29/68
f 35/30/69 34/21/70 36/23/71 37/31/72
f 24/18/73 25/17/74 29/19/75 28/20/76
f 9/32/77 8/34/78 30/35/79 31/33/80
f 10/24/81 11/15/82 33/22/83 32/25/84
f 11/15/85 24/18/86 34/21/87 33/22/88
f 22/27/89 9/32/90 31/33/91 35/30/92
f 24/18/93 28/20/94 36/23/95 34/21/96
f 28/45/97 26/44/98 37/31/99 36/23/100
f 26/28/101 22/27/102 35/30/103 37/31/104
f 15/56/105 14/57/106 13/58/107 38/59/108
