# This file uses centimeters as units for non-parametric coordinates.

mtllib set2.mtl
g default
v 0.000000 -0.000000 -0.109889
v 0.000000 0.406882 -0.109889
v 0.000000 0.406882 -0.516771
v 0.000000 -0.000000 -0.516771
v 0.093727 -0.000000 -0.109889
v 0.093727 0.395043 -0.516771
v 0.093727 0.395043 -0.109889
v 0.358915 -0.000000 -0.109889
v 0.358915 0.395043 -0.109889
v 0.358915 0.395043 -0.516771
v 0.419953 -0.000000 -0.109889
v 0.419953 0.406882 -0.109889
v 0.491309 -0.000000 -0.109889
v 0.491309 0.535476 -0.109889
v 0.491309 0.535476 -0.516771
v 0.751200 -0.000188 -0.109889
v 0.751200 0.535476 -0.109889
v 0.751200 0.535476 -0.516771
v 0.000000 -0.000000 0.000000
v 0.093727 -0.000000 0.000000
v 0.093727 0.406882 0.000000
v 0.000000 0.406882 0.000000
v 0.000000 0.649672 -0.109889
v 0.093727 0.649672 -0.109889
v 0.093727 0.649672 -0.516771
v 0.000000 0.649672 -0.516771
v 0.000000 0.649672 0.000000
v 0.093727 0.649672 0.000000
v 0.358915 0.591177 -0.109889
v 0.358915 0.591177 -0.516771
v 0.419953 0.591177 -0.109889
v 0.419953 0.591177 -0.516771
v 0.491309 0.591177 -0.109889
v 0.491309 0.591177 -0.516771
v 0.419953 0.689970 -0.109889
v 0.419953 0.689970 -0.516771
v 0.491309 0.689970 -0.109889
v 0.491309 0.689970 -0.516771
v 0.419953 -0.000000 0.004365
v 0.419953 0.406882 0.004365
v 0.491309 -0.000000 0.004365
v 0.491309 0.406882 0.004365
v 0.491309 0.591177 0.004365
v 0.419953 0.591177 0.004365
v 0.491309 0.689970 0.004365
v 0.419953 0.689970 0.004365
v 0.751200 -0.000375 -0.516771
vt 0.011664 0.684127
vt 0.108039 0.684025
vt 0.108141 0.780400
vt 0.011766 0.780502
vt 0.134067 0.683998
vt 0.134169 0.780372
vt 0.108172 0.809955
vt 0.011797 0.810057
vt 0.134200 0.809927
vt 0.182296 0.683947
vt 0.182398 0.780321
vt 0.156369 0.780349
vt 0.156267 0.683974
vt 0.182429 0.809876
vt 0.156401 0.809904
vt 0.278772 0.780219
vt 0.278804 0.809774
vt 0.301856 0.761419
vt 0.418904 0.764585
vt 0.417470 0.817602
vt 0.300422 0.814435
vt 0.655125 0.711826
vt 0.770088 0.712563
vt 0.769911 0.740198
vt 0.654948 0.739461
vt 0.769624 0.784980
vt 0.654661 0.784242
vt 0.622666 0.739254
vt 0.623000 0.687182
vt 0.622379 0.784035
vt 0.656020 0.572426
vt 0.623738 0.572219
vt 0.455260 0.738180
vt 0.570223 0.738917
vt 0.569936 0.783699
vt 0.454973 0.782961
vt 0.602505 0.739124
vt 0.602217 0.783906
vt 0.570557 0.686846
vt 0.602839 0.687053
vt 0.571294 0.571883
vt 0.603576 0.572090
vt 0.237622 0.754387
vt 0.237826 0.666493
vt 0.295112 0.666626
vt 0.294907 0.754520
vt 0.134228 0.835955
vt 0.156428 0.835932
vt 0.156530 0.932307
vt 0.134329 0.932330
vt 0.414303 0.934649
vt 0.435028 0.818077
vt 0.431862 0.935124
vt 0.601273 0.931150
vt 0.602010 0.816188
vt 0.622172 0.816317
vt 0.621434 0.931280
vt 0.820412 0.846129
vt 0.821580 0.743745
vt 0.890190 0.744528
vt 0.889022 0.846911
vt 0.238030 0.578598
vt 0.295316 0.578731
vt 0.439629 0.648013
vt 0.436463 0.765060
vt 0.822996 0.619599
vt 0.891606 0.620382
vt 0.422071 0.647538
vt 0.880150 0.611995
vt 0.891876 0.611995
vt 0.891876 0.745980
vt 0.880150 0.745980
vn 0.000000 0.000000 1.000000
vn 0.000000 0.000000 1.000000
vn 0.000000 0.000000 1.000000
vn 0.000000 0.000000 1.000000
vn 0.000000 1.000000 0.000000
vn 0.000000 1.000000 0.000000
vn 0.000000 1.000000 0.000000
vn 0.000000 1.000000 0.000000
vn -1.000000 0.000000 0.000000
vn -1.000000 0.000000 0.000000
vn -1.000000 0.000000 0.000000
vn -1.000000 0.000000 0.000000
vn 0.000000 1.000000 0.000000
vn 0.000000 1.000000 0.000000
vn 0.000000 1.000000 0.000000
vn 0.000000 1.000000 0.000000
vn 0.000000 0.000000 1.000000
vn 0.000000 0.000000 1.000000
vn 0.000000 0.000000 1.000000
vn 0.000000 0.000000 1.000000
vn 0.000000 0.000000 1.000000
vn 0.000000 0.000000 1.000000
vn 0.000000 0.000000 1.000000
vn 0.000000 0.000000 1.000000
vn 0.000000 1.000000 0.000000
vn 0.000000 1.000000 0.000000
vn 0.000000 1.000000 0.000000
vn 0.000000 1.000000 0.000000
vn 0.000001 0.000000 1.000000
vn 0.000001 0.000000 1.000000
vn 0.000001 0.000000 1.000000
vn 0.000001 0.000000 1.000000
vn 0.000000 1.000000 0.000000
vn 0.000000 1.000000 0.000000
vn 0.000000 1.000000 0.000000
vn 0.000000 1.000000 0.000000
vn 0.000000 0.000000 1.000000
vn 0.000000 0.000000 1.000000
vn 0.000000 0.000000 1.000000
vn 0.000000 0.000000 1.000000
vn 0.000000 1.000000 0.000000
vn 0.000000 1.000000 0.000000
vn 0.000000 1.000000 0.000000
vn 0.000000 1.000000 0.000000
vn 1.000000 0.000000 0.000000
vn 1.000000 0.000000 0.000000
vn 1.000000 0.000000 0.000000
vn 1.000000 0.000000 0.000000
vn 0.000000 1.000000 0.000000
vn 0.000000 1.000000 0.000000
vn 0.000000 1.000000 0.000000
vn 0.000000 1.000000 0.000000
vn -1.000000 0.000000 0.000000
vn -1.000000 0.000000 0.000000
vn -1.000000 0.000000 0.000000
vn -1.000000 0.000000 0.000000
vn 1.000000 0.000000 0.000000
vn 1.000000 0.000000 0.000000
vn 1.000000 0.000000 0.000000
vn 1.000000 0.000000 0.000000
vn -1.000000 0.000000 0.000000
vn -1.000000 0.000000 0.000000
vn -1.000000 0.000000 0.000000
vn -1.000000 0.000000 0.000000
vn -1.000000 0.000000 0.000000
vn -1.000000 0.000000 0.000000
vn -1.000000 0.000000 0.000000
vn -1.000000 0.000000 0.000000
vn 0.000000 0.000000 1.000000
vn 0.000000 0.000000 1.000000
vn 0.000000 0.000000 1.000000
vn 0.000000 0.000000 1.000000
vn 1.000000 0.000000 0.000000
vn 1.000000 0.000000 0.000000
vn 1.000000 0.000000 0.000000
vn 1.000000 0.000000 0.000000
vn -1.000000 0.000000 0.000000
vn -1.000000 0.000000 0.000000
vn -1.000000 0.000000 0.000000
vn -1.000000 0.000000 0.000000
vn 0.000000 0.000000 1.000000
vn 0.000000 0.000000 1.000000
vn 0.000000 0.000000 1.000000
vn 0.000000 0.000000 1.000000
vn 0.000001 0.000000 1.000000
vn 0.000001 0.000000 1.000000
vn 0.000001 0.000000 1.000000
vn 0.000001 0.000000 1.000000
vn 1.000000 0.000000 0.000000
vn 1.000000 0.000000 0.000000
vn 1.000000 0.000000 0.000000
vn 1.000000 0.000000 0.000000
vn -1.000000 0.000000 0.000000
vn -1.000000 0.000000 0.000000
vn -1.000000 0.000000 0.000000
vn -1.000000 0.000000 0.000000
vn 0.000001 0.000000 1.000000
vn 0.000001 0.000000 1.000000
vn 0.000001 0.000000 1.000000
vn 0.000001 0.000000 1.000000
vn 1.000000 0.000000 0.000000
vn 1.000000 0.000000 0.000000
vn 1.000000 0.000000 0.000000
vn 1.000000 0.000000 0.000000
vn -1.000000 0.000000 0.000000
vn -1.000000 0.000000 0.000000
vn -1.000000 0.000000 0.000000
vn -1.000000 0.000000 0.000000
vn 1.000000 0.000000 0.000000
vn 1.000000 0.000000 0.000000
vn 1.000000 0.000000 0.000000
vn 1.000000 0.000000 0.000000
vn 1.000000 -0.000000 0.000000
vn 1.000000 -0.000000 0.000000
vn 1.000000 -0.000000 0.000000
vn 1.000000 -0.000000 0.000000
vn -1.000000 0.000000 0.000000
vn -1.000000 0.000000 0.000000
vn -1.000000 0.000000 0.000000
vn -1.000000 0.000000 0.000000
vn 1.000000 0.000000 0.000000
vn 1.000000 0.000000 0.000000
vn 1.000000 0.000000 0.000000
vn 1.000000 0.000000 0.000000
vn 0.000000 1.000000 0.000000
vn 0.000000 1.000000 0.000000
vn 0.000000 1.000000 0.000000
vn 0.000000 1.000000 0.000000
vn -1.000000 0.000000 0.000000
vn -1.000000 0.000000 0.000000
vn -1.000000 0.000000 0.000000
vn -1.000000 0.000000 0.000000
vn 1.000000 0.000000 0.000000
vn 1.000000 0.000000 0.000000
vn 1.000000 0.000000 0.000000
vn 1.000000 0.000000 0.000000
s off
g pCube9 set2
usemtl lambert2SG
f 7/44/1 5/62/2 8/63/3 9/45/4
f 6/43/5 7/44/6 9/45/7 10/46/8
f 4/1/9 1/2/10 2/3/11 3/4/12
f 23/47/13 24/48/14 25/49/15 26/50/16
f 19/5/17 20/13/18 21/12/19 22/6/20
f 9/19/21 8/68/22 11/64/23 12/65/24
f 30/51/25 29/20/26 31/52/27 32/53/28
f 40/40/29 39/42/30 41/32/31 42/29/32
f 36/54/33 35/55/34 37/56/35 38/57/36
f 14/59/37 13/66/38 16/67/39 17/60/40
f 15/58/41 14/59/42 17/60/43 18/61/44
f 5/10/45 7/11/46 21/12/47 20/13/48
f 24/48/49 23/47/50 27/9/51 28/15/52
f 2/3/53 1/2/54 19/5/55 22/6/56
f 7/11/57 6/16/58 25/17/59 24/14/60
f 3/4/61 2/3/62 23/7/63 26/8/64
f 2/3/65 22/6/66 27/9/67 23/7/68
f 22/6/69 21/12/70 28/15/71 27/9/72
f 21/12/73 7/11/74 24/14/75 28/15/76
f 10/18/77 9/19/78 29/20/79 30/21/80
f 9/19/81 12/65/82 31/52/83 29/20/84
f 40/40/85 42/29/86 43/28/87 44/37/88
f 14/22/89 15/23/90 34/24/91 33/25/92
f 32/33/93 31/34/94 35/35/95 36/36/96
f 44/37/97 43/28/98 45/30/99 46/38/100
f 33/25/101 34/24/102 38/26/103 37/27/104
f 12/39/105 11/41/106 39/42/107 40/40/108
f 13/31/109 14/22/110 42/29/111 41/32/112
f 14/22/113 33/25/114 43/28/115 42/29/116
f 31/34/117 12/39/118 40/40/119 44/37/120
f 33/25/121 37/27/122 45/30/123 43/28/124
f 37/56/125 35/55/126 46/38/127 45/30/128
f 35/35/129 31/34/130 44/37/131 46/38/132
f 18/69/133 17/70/134 16/71/135 47/72/136
