# This file uses centimeters as units for non-parametric coordinates.

mtllib set6.mtl
g default
v -0.000000 0.580238 -0.470155
v 0.249947 0.578076 -0.470155
v -0.000000 -0.000000 -0.000000
v 0.250613 -0.002170 0.000000
v 0.249947 0.578076 0.000000
v -0.000000 0.580238 -0.000000
v -0.000000 0.002067 -0.470155
v 0.251279 -0.002178 -0.470155
vt 0.802721 0.527758
vt 0.905354 0.526680
vt 0.905591 0.475021
vt 0.916156 0.660039
vt 0.990261 0.659995
vt 0.990180 0.528106
vt 0.990706 0.365339
vt 0.802957 0.476282
vt 0.979621 0.369420
vt 0.979621 0.516024
vt 0.989180 0.369420
vt 0.989180 0.516024
vt 0.916566 0.365666
vt 0.916111 0.528297
vn 0.008649 0.999963 0.000000
vn 0.008649 0.999963 0.000000
vn 0.008649 0.999963 0.000000
vn 0.008649 0.999963 0.000000
vn -0.000001 -0.000000 1.000000
vn -0.000001 -0.000000 1.000000
vn -0.000001 -0.000000 1.000000
vn -0.000001 -0.000000 1.000000
vn -1.000000 0.000000 0.000000
vn -1.000000 0.000000 0.000000
vn -1.000000 0.000000 0.000000
vn -1.000000 0.000000 0.000000
vn 0.999998 0.001721 0.000708
vn 0.999998 0.001721 0.000708
vn 0.999998 0.001721 0.000708
vn 0.999998 0.001721 0.000708
s off
g pCube16 set2
usemtl lambert2SG
f 2/5/1 1/4/2 6/14/3 5/6/4
f 5/6/5 6/14/6 3/13/7 4/7/8
f 1/1/9 7/8/10 3/3/11 6/2/12
f 4/12/13 8/10/14 2/9/15 5/11/16
