# This file uses centimeters as units for non-parametric coordinates.

mtllib set7.mtl
g default
v 0.330324 0.002162 -0.063273
v 0.330324 0.409044 -0.063273
v 0.330324 0.409044 -0.470155
v 0.412474 0.002162 -0.063273
v 0.412474 0.409044 -0.063273
v 0.412474 0.409044 -0.470155
v 0.500424 0.004337 -0.063273
v 0.500424 0.409044 -0.063273
v 0.500424 0.409044 -0.470155
v -0.000000 0.580238 -0.063273
v -0.000000 0.580238 -0.470933
v 0.330324 0.582399 -0.063273
v 0.330324 0.582399 -0.470155
v -0.000000 -0.000000 0.000000
v -0.000000 0.406882 -0.000000
v 0.330324 0.002162 -0.000000
v 0.330324 0.409044 -0.000000
v -0.000000 0.580238 -0.000000
v 0.330324 0.582399 -0.000000
v 0.412474 0.582332 -0.063273
v 0.412474 0.582332 -0.470155
v 0.500424 0.582332 -0.063273
v 0.500424 0.582332 -0.470155
v 0.412474 0.002162 0.024974
v 0.412474 0.409044 0.024974
v 0.500424 0.002162 0.024974
v 0.500424 0.409044 0.024974
v 0.500424 0.582332 0.024974
v 0.412474 0.582332 0.024974
v 0.500424 0.006512 -0.470155
v -0.000000 0.406882 -0.471389
v -0.000000 -0.000000 -0.471068
v -0.000000 0.580238 -0.470933
vt 0.372100 0.161175
vt 0.467392 0.161692
vt 0.467172 0.202291
vt 0.371880 0.201775
vt 0.357062 0.214246
vt 0.357282 0.161094
vt 0.372617 0.065883
vt 0.357798 0.065803
vt 0.505223 0.296424
vt 0.603560 0.296506
vt 0.603159 0.334270
vt 0.504890 0.334187
vt 0.622917 0.296524
vt 0.622457 0.334288
vt 0.604504 0.207837
vt 0.623999 0.207855
vt 0.682144 0.296560
vt 0.770445 0.296642
vt 0.770113 0.334406
vt 0.681742 0.334323
vt 0.652418 0.334306
vt 0.652879 0.296542
vt 0.683087 0.207891
vt 0.653960 0.207873
vt 0.279525 0.236886
vt 0.356884 0.237811
vt 0.355744 0.311798
vt 0.279702 0.213320
vt 0.473149 0.280526
vt 0.473830 0.160992
vt 0.497964 0.161130
vt 0.497282 0.280663
vt 0.621140 0.442188
vt 0.622222 0.353519
vt 0.652183 0.353537
vt 0.651102 0.442206
vt 0.279923 0.160169
vt 0.280439 0.064877
vt 0.474512 0.041459
vt 0.498645 0.041597
vt 0.607817 0.214176
vt 0.678513 0.214176
vt 0.678513 0.328556
vt 0.607817 0.328556
vt 0.290043 0.161118
vt 0.290156 0.200691
vt 0.269826 0.202307
vt 0.269694 0.162736
vt 0.289779 0.068238
vt 0.269444 0.069854
vt 0.278385 0.310872
vn 0.000000 0.000000 1.000000
vn 0.000000 0.000000 1.000000
vn 0.000000 0.000000 1.000000
vn 0.000000 0.000000 1.000000
vn -0.006545 0.999979 0.000000
vn -0.006545 0.999979 0.000000
vn -0.006545 0.999979 0.000000
vn -0.006545 0.999979 0.000000
vn 0.000000 0.000000 1.000000
vn 0.000000 0.000000 1.000000
vn 0.000000 0.000000 1.000000
vn 0.000000 0.000000 1.000000
vn 0.000000 1.000000 0.000000
vn 0.000000 1.000000 0.000000
vn 0.000000 1.000000 0.000000
vn 0.000000 1.000000 0.000000
vn 0.000000 0.000000 1.000000
vn 0.000000 0.000000 1.000000
vn 0.000000 0.000000 1.000000
vn 0.000000 0.000000 1.000000
vn 0.000000 1.000000 0.000000
vn 0.000000 1.000000 0.000000
vn 0.000000 1.000000 0.000000
vn 0.000000 1.000000 0.000000
vn 0.000000 0.000000 1.000000
vn 0.000000 0.000000 1.000000
vn 0.000000 0.000000 1.000000
vn 0.000000 0.000000 1.000000
vn 1.000000 0.000001 0.000000
vn 1.000000 0.000001 0.000000
vn 1.000000 0.000001 0.000000
vn 1.000000 0.000001 0.000000
vn 1.000000 0.000000 0.000000
vn 1.000000 0.000000 0.000000
vn 1.000000 0.000000 0.000000
vn 1.000000 0.000000 0.000000
vn 1.000000 -0.000001 0.000000
vn 1.000000 -0.000001 0.000000
vn 1.000000 -0.000001 0.000000
vn 1.000000 -0.000001 0.000000
vn -0.006545 0.999979 0.000000
vn -0.006545 0.999979 0.000000
vn -0.006545 0.999979 0.000000
vn -0.006545 0.999979 0.000000
vn -1.000000 0.000000 0.000000
vn -1.000000 0.000000 0.000000
vn -1.000000 0.000000 0.000000
vn -1.000000 0.000000 0.000000
vn 0.000000 0.000000 1.000000
vn 0.000000 0.000000 1.000000
vn 0.000000 0.000000 1.000000
vn 0.000000 0.000000 1.000000
vn 1.000000 0.000000 0.000000
vn 1.000000 0.000000 0.000000
vn 1.000000 0.000000 0.000000
vn 1.000000 0.000000 0.000000
vn -1.000000 0.000000 0.000000
vn -1.000000 0.000000 0.000000
vn -1.000000 0.000000 0.000000
vn -1.000000 0.000000 0.000000
vn 1.000000 0.000000 0.000000
vn 1.000000 0.000000 0.000000
vn 1.000000 0.000000 0.000000
vn 1.000000 0.000000 0.000000
vn 1.000000 0.000000 0.000000
vn 1.000000 0.000000 0.000000
vn 1.000000 0.000000 0.000000
vn 1.000000 0.000000 0.000000
vn 0.000000 1.000000 0.000000
vn 0.000000 1.000000 0.000000
vn 0.000000 1.000000 0.000000
vn 0.000000 1.000000 0.000000
vn -1.000000 0.000000 0.000000
vn -1.000000 0.000000 0.000000
vn -1.000000 0.000000 0.000000
vn -1.000000 0.000000 0.000000
vn 1.000000 0.000000 0.000000
vn 1.000000 0.000000 0.000000
vn 1.000000 0.000000 0.000000
vn 1.000000 0.000000 0.000000
vn -1.000000 -0.000001 0.000000
vn -1.000000 -0.000001 0.000000
vn -1.000000 -0.000001 0.000000
vn -1.000000 -0.000001 0.000000
vn -1.000000 0.000000 0.000000
vn -1.000000 0.000000 0.000000
vn -1.000000 0.000000 0.000000
vn -1.000000 0.000000 0.000000
s off
g pCube15 set2
usemtl lambert2SG
f 15/37/1 14/38/2 16/8/3 17/6/4
f 33/51/5 10/25/6 12/26/7 13/27/8
f 2/30/9 1/39/10 4/40/11 5/31/12
f 3/29/13 2/30/14 5/31/15 6/32/16
f 25/13/17 24/16/18 26/24/19 27/22/20
f 21/33/21 20/34/22 22/35/23 23/36/24
f 15/37/25 17/6/26 19/5/27 18/28/28
f 2/1/29 3/2/30 13/3/31 12/4/32
f 1/7/33 2/1/34 17/6/35 16/8/36
f 2/1/37 12/4/38 19/5/39 17/6/40
f 12/26/41 10/25/42 18/28/43 19/5/44
f 6/9/45 5/10/46 20/11/47 21/12/48
f 25/13/49 27/22/50 28/21/51 29/14/52
f 8/17/53 9/18/54 23/19/55 22/20/56
f 5/10/57 4/15/58 24/16/59 25/13/60
f 7/23/61 8/17/62 27/22/63 26/24/64
f 8/17/65 22/20/66 28/21/67 27/22/68
f 22/35/69 20/34/70 29/14/71 28/21/72
f 20/11/73 5/10/74 25/13/75 29/14/76
f 9/41/77 8/42/78 7/43/79 30/44/80
f 15/45/81 18/46/82 11/47/83 31/48/84
f 14/49/85 15/45/86 31/48/87 32/50/88
