# This file uses centimeters as units for non-parametric coordinates.

mtllib shelf.mtl
g default
v -2.509825 0.066455 0.518587
v 2.548450 0.066455 0.518587
v -2.509825 6.654043 0.518587
v 2.548450 6.654043 0.518587
v -2.509825 6.654043 -0.570302
v 2.548450 6.654043 -0.570302
v -2.509825 0.066455 -0.570302
v 2.548450 0.066455 -0.570302
v -2.399699 0.066455 0.518587
v -2.399699 0.066455 -0.570302
v -2.399699 6.654043 -0.570302
v -2.399699 6.654043 0.518587
v 2.438322 0.066455 0.518587
v 2.438322 0.066455 -0.570302
v 2.438322 6.654043 -0.570302
v 2.438322 6.654043 0.518587
v -2.509825 0.204680 0.518587
v -2.399699 0.204675 0.518587
v 2.438322 0.204675 0.518587
v 2.548450 0.204680 0.518587
v 2.548450 0.204680 -0.570302
v 2.438322 0.204680 -0.570302
v -2.399699 0.204680 -0.570302
v -2.509825 0.204680 -0.570302
v -2.509825 6.534605 0.518587
v -2.399699 6.534610 0.518587
v 2.438322 6.534610 0.518587
v 2.548450 6.534605 0.518587
v 2.548450 6.534605 -0.570302
v 2.438322 6.534605 -0.570302
v -2.399699 6.534605 -0.570302
v -2.509825 6.534605 -0.570302
v -2.509825 1.458170 0.518587
v -2.399699 1.458169 0.518587
v 2.438322 1.458169 0.518587
v 2.548450 1.458170 0.518587
v 2.548450 1.458170 -0.570302
v 2.438322 1.458170 -0.570302
v -2.399699 1.458170 -0.570302
v -2.509825 1.458170 -0.570302
v -2.509825 1.585817 0.518587
v -2.399699 1.585816 0.518587
v 2.438322 1.585816 0.518587
v 2.548450 1.585817 0.518587
v 2.548450 1.585817 -0.570302
v 2.438322 1.585817 -0.570302
v -2.399699 1.585817 -0.570302
v -2.509825 1.585817 -0.570302
v -2.509825 3.073487 0.518587
v -2.399699 3.073487 0.518587
v 2.438322 3.073487 0.518587
v 2.548450 3.073487 0.518587
v 2.548450 3.073487 -0.570302
v 2.438322 3.073487 -0.570302
v -2.399699 3.073487 -0.570302
v -2.509825 3.073487 -0.570302
v -2.509825 3.188025 0.518587
v -2.399699 3.188025 0.518587
v 2.438322 3.188025 0.518587
v 2.548450 3.188025 0.518587
v 2.548450 3.188025 -0.570302
v 2.438322 3.188025 -0.570302
v -2.399699 3.188025 -0.570302
v -2.509825 3.188025 -0.570302
v -2.509825 4.799365 0.518587
v -2.399699 4.799366 0.518587
v 2.438322 4.799366 0.518587
v 2.548450 4.799365 0.518587
v 2.548450 4.799365 -0.570302
v 2.438322 4.799365 -0.570302
v -2.399699 4.799365 -0.570302
v -2.509825 4.799365 -0.570302
v -2.509825 4.908741 0.518587
v -2.399699 4.908743 0.518587
v 2.438322 4.908743 0.518587
v 2.548450 4.908741 0.518587
v 2.548450 4.908742 -0.570302
v 2.438322 4.908741 -0.570302
v -2.399699 4.908741 -0.570302
v -2.509825 4.908742 -0.570302
v -2.399699 6.534609 -0.381501
v 2.438322 6.534609 -0.381501
v -2.399699 4.908743 -0.381501
v 2.438322 4.908743 -0.381501
v -2.399699 1.458169 -0.381501
v 2.438322 1.458169 -0.381501
v -2.399699 0.204675 -0.381501
v 2.438322 0.204675 -0.381501
v -2.399699 3.073487 -0.381501
v 2.438322 3.073487 -0.381501
v -2.399699 1.585816 -0.381501
v 2.438322 1.585816 -0.381501
v -2.399699 4.799366 -0.381501
v 2.438322 4.799366 -0.381501
v -2.399699 3.188025 -0.381501
v 2.438322 3.188025 -0.381501
vt 0.164915 0.303740
vt 0.165287 0.240020
vt 0.189610 0.239365
vt 0.189238 0.303085
vt 0.163800 0.494900
vt 0.188123 0.494246
vt 0.187751 0.557966
vt 0.163428 0.558620
vt 0.162684 0.686061
vt 0.187007 0.685406
vt 0.262579 0.237401
vt 0.262207 0.301121
vt 0.043671 0.243294
vt 0.043299 0.307014
vt 0.161569 0.877221
vt 0.185892 0.876567
vt 0.116640 0.241330
vt 0.116268 0.305050
vt 0.137246 0.877876
vt 0.112923 0.878531
vt 0.114038 0.687371
vt 0.138361 0.686716
vt 0.115153 0.496210
vt 0.139476 0.495555
vt 0.139104 0.559275
vt 0.114781 0.559930
vt 0.140591 0.304395
vt 0.140963 0.240675
vt 0.117384 0.113889
vt 0.141707 0.113235
vt 0.141335 0.176955
vt 0.117012 0.177609
vt 0.165658 0.176300
vt 0.166030 0.112580
vt 0.189981 0.175645
vt 0.190353 0.111925
vt 0.262951 0.173680
vt 0.263323 0.109960
vt 0.163056 0.622341
vt 0.187379 0.621686
vt 0.138733 0.622996
vt 0.114410 0.623651
vt 0.044414 0.115854
vt 0.044042 0.179574
vt 0.116693 0.232227
vt 0.141016 0.231572
vt 0.165287 0.240020
vt 0.140963 0.240675
vt 0.141016 0.231572
vt 0.165340 0.230917
vt 0.165340 0.230917
vt 0.189663 0.230262
vt 0.262632 0.228298
vt 0.187698 0.567069
vt 0.163375 0.567723
vt 0.139051 0.568378
vt 0.114728 0.569033
vt 0.043724 0.234191
vt 0.141282 0.186058
vt 0.116959 0.186712
vt 0.165605 0.185403
vt 0.141282 0.186058
vt 0.141335 0.176955
vt 0.165658 0.176300
vt 0.189928 0.184748
vt 0.165605 0.185403
vt 0.262898 0.182783
vt 0.163109 0.613238
vt 0.187432 0.612583
vt 0.138786 0.613893
vt 0.114463 0.614548
vt 0.043989 0.188677
vt 0.141229 0.195161
vt 0.116906 0.195815
vt 0.165552 0.194506
vt 0.189875 0.193851
vt 0.262845 0.191886
vt 0.163162 0.604135
vt 0.187485 0.603480
vt 0.138839 0.604790
vt 0.114516 0.605444
vt 0.043936 0.197780
vt 0.141176 0.204264
vt 0.116852 0.204918
vt 0.165499 0.203609
vt 0.141176 0.204264
vt 0.141229 0.195161
vt 0.165552 0.194506
vt 0.189822 0.202954
vt 0.165499 0.203609
vt 0.262792 0.200989
vt 0.163215 0.595032
vt 0.187538 0.594377
vt 0.138892 0.595687
vt 0.114569 0.596342
vt 0.043883 0.206883
vt 0.141122 0.213366
vt 0.116799 0.214021
vt 0.165446 0.212711
vt 0.189769 0.212056
vt 0.262739 0.210092
vt 0.163269 0.585930
vt 0.187591 0.585275
vt 0.138945 0.586584
vt 0.114622 0.587239
vt 0.043830 0.215985
vt 0.141069 0.222469
vt 0.116746 0.223124
vt 0.165393 0.221814
vt 0.141069 0.222469
vt 0.141122 0.213366
vt 0.165446 0.212711
vt 0.189716 0.221159
vt 0.165393 0.221814
vt 0.262685 0.219195
vt 0.163322 0.576827
vt 0.187645 0.576172
vt 0.138998 0.577481
vt 0.114675 0.578136
vt 0.043777 0.225088
vn 0.000000 0.000000 1.000000
vn 0.000000 0.000000 1.000000
vn 0.000000 0.000000 1.000000
vn 0.000000 0.000000 1.000000
vn 0.000000 0.000000 -1.000000
vn 0.000000 0.000000 -1.000000
vn 0.000000 0.000000 -1.000000
vn 0.000000 0.000000 -1.000000
vn 0.000000 1.000000 0.000000
vn 0.000000 1.000000 0.000000
vn 0.000000 1.000000 0.000000
vn 0.000000 1.000000 0.000000
vn 1.000000 -0.000001 0.000000
vn 1.000000 0.000000 0.000000
vn 1.000000 0.000000 0.000000
vn 1.000000 0.000000 0.000000
vn 0.000000 -1.000000 0.000000
vn 0.000000 -1.000000 0.000000
vn 0.000000 -1.000000 0.000000
vn 0.000000 -1.000000 0.000000
vn -1.000000 0.000000 0.000000
vn -1.000000 -0.000001 0.000000
vn -1.000000 0.000000 0.000000
vn -1.000000 0.000000 0.000000
vn 0.000000 -1.000000 0.000000
vn 0.000000 -1.000000 0.000000
vn 0.000000 -1.000000 0.000000
vn 0.000000 -1.000000 0.000000
vn 0.000000 0.000000 -1.000000
vn 0.000000 0.000000 -1.000000
vn 0.000000 0.000000 -1.000000
vn 0.000000 0.000000 -1.000000
vn 0.000000 1.000000 0.000000
vn 0.000000 1.000000 0.000000
vn 0.000000 1.000000 0.000000
vn 0.000000 1.000000 0.000000
vn 0.000000 0.000000 1.000000
vn 0.000000 0.000000 1.000000
vn 0.000000 0.000000 1.000000
vn 0.000000 0.000000 1.000000
vn 0.000000 -1.000000 0.000000
vn 0.000000 -1.000000 0.000000
vn 0.000000 -1.000000 0.000000
vn 0.000000 -1.000000 0.000000
vn 0.000000 0.000000 -1.000000
vn 0.000000 0.000000 -1.000000
vn 0.000000 0.000000 -1.000000
vn 0.000000 0.000000 -1.000000
vn 0.000000 1.000000 0.000000
vn 0.000000 1.000000 0.000000
vn 0.000000 1.000000 0.000000
vn 0.000000 1.000000 0.000000
vn 0.000000 0.000000 1.000000
vn 0.000000 0.000000 1.000000
vn 0.000000 0.000000 1.000000
vn 0.000000 0.000000 1.000000
vn 0.000000 0.000000 1.000000
vn 0.000000 0.000000 1.000000
vn 0.000000 0.000000 1.000000
vn 0.000000 0.000000 1.000000
vn 0.000000 0.000000 1.000000
vn 0.000000 0.000000 1.000000
vn 0.000000 0.000000 1.000000
vn 0.000000 0.000000 1.000000
vn 0.000000 0.000000 1.000000
vn 0.000000 0.000000 1.000000
vn 0.000000 0.000000 1.000000
vn 0.000000 0.000000 1.000000
vn 1.000000 0.000000 0.000000
vn 1.000000 0.000000 0.000000
vn 1.000000 0.000000 0.000000
vn 1.000000 0.000000 0.000000
vn 0.000000 0.000000 -1.000000
vn 0.000000 0.000000 -1.000000
vn 0.000000 0.000000 -1.000000
vn 0.000000 0.000000 -1.000000
vn 0.000000 0.000000 -1.000000
vn 0.000000 0.000000 -1.000000
vn 0.000000 0.000000 -1.000000
vn 0.000000 0.000000 -1.000000
vn 0.000000 0.000000 -1.000000
vn 0.000000 0.000000 -1.000000
vn 0.000000 0.000000 -1.000000
vn 0.000000 0.000000 -1.000000
vn -1.000000 0.000000 0.000000
vn -1.000000 0.000000 0.000000
vn -1.000000 0.000000 0.000000
vn -1.000000 0.000000 0.000000
vn 0.000000 0.000000 1.000000
vn 0.000000 0.000000 1.000000
vn 0.000000 0.000000 1.000000
vn 0.000000 0.000000 1.000000
vn 0.000000 0.000000 1.000000
vn 0.000000 0.000000 1.000000
vn 0.000000 0.000000 1.000000
vn 0.000000 0.000000 1.000000
vn 0.000000 0.000000 1.000000
vn 0.000000 0.000000 1.000000
vn 0.000000 0.000000 1.000000
vn 0.000000 0.000000 1.000000
vn 1.000000 0.000000 0.000000
vn 1.000000 0.000000 0.000000
vn 1.000000 0.000000 0.000000
vn 1.000000 0.000000 0.000000
vn 0.000000 0.000000 -1.000000
vn 0.000000 0.000000 -1.000000
vn 0.000000 0.000000 -1.000000
vn 0.000000 0.000000 -1.000000
vn 0.000000 0.000000 -1.000000
vn 0.000000 0.000000 -1.000000
vn 0.000000 0.000000 -1.000000
vn 0.000000 0.000000 -1.000000
vn 0.000000 0.000000 -1.000000
vn 0.000000 0.000000 -1.000000
vn 0.000000 0.000000 -1.000000
vn 0.000000 0.000000 -1.000000
vn -1.000000 0.000000 0.000000
vn -1.000000 0.000000 0.000000
vn -1.000000 0.000000 0.000000
vn -1.000000 0.000000 0.000000
vn 0.000000 0.000000 1.000000
vn 0.000000 0.000000 1.000000
vn 0.000000 0.000000 1.000000
vn 0.000000 0.000000 1.000000
vn 0.000000 0.000000 1.000000
vn 0.000000 0.000000 1.000000
vn 0.000000 0.000000 1.000000
vn 0.000000 0.000000 1.000000
vn 0.000000 0.000000 1.000000
vn 0.000000 0.000000 1.000000
vn 0.000000 0.000000 1.000000
vn 0.000000 0.000000 1.000000
vn 1.000000 0.000000 0.000000
vn 1.000000 0.000000 0.000000
vn 1.000000 0.000000 0.000000
vn 1.000000 0.000000 0.000000
vn 0.000000 0.000000 -1.000000
vn 0.000000 0.000000 -1.000000
vn 0.000000 0.000000 -1.000000
vn 0.000000 0.000000 -1.000000
vn 0.000000 0.000000 -1.000000
vn 0.000000 0.000000 -1.000000
vn 0.000000 0.000000 -1.000000
vn 0.000000 0.000000 -1.000000
vn 0.000000 0.000000 -1.000000
vn 0.000000 0.000000 -1.000000
vn 0.000000 0.000000 -1.000000
vn 0.000000 0.000000 -1.000000
vn -1.000000 0.000000 0.000000
vn -1.000000 0.000000 0.000000
vn -1.000000 0.000000 0.000000
vn -1.000000 0.000000 0.000000
vn 0.000000 0.000000 1.000000
vn 0.000000 0.000000 1.000000
vn 0.000000 0.000000 1.000000
vn 0.000000 0.000000 1.000000
vn 0.000000 0.000000 1.000000
vn 0.000000 0.000000 1.000000
vn 0.000000 0.000000 1.000000
vn 0.000000 0.000000 1.000000
vn 0.000000 0.000000 1.000000
vn 0.000000 0.000000 1.000000
vn 0.000000 0.000000 1.000000
vn 0.000000 0.000000 1.000000
vn 1.000000 0.000000 0.000000
vn 1.000000 0.000000 0.000000
vn 1.000000 0.000000 0.000000
vn 1.000000 0.000000 0.000000
vn 0.000000 0.000000 -1.000000
vn 0.000000 0.000000 -1.000000
vn 0.000000 0.000000 -1.000000
vn 0.000000 0.000000 -1.000000
vn 0.000000 0.000000 -1.000000
vn 0.000000 0.000000 -1.000000
vn 0.000000 0.000000 -1.000000
vn 0.000000 0.000000 -1.000000
vn 0.000000 0.000000 -1.000000
vn 0.000000 0.000000 -1.000000
vn 0.000000 0.000000 -1.000000
vn 0.000000 0.000000 -1.000000
vn -1.000000 0.000000 0.000000
vn -1.000000 0.000000 0.000000
vn -1.000000 0.000000 0.000000
vn -1.000000 0.000000 0.000000
vn 0.000000 0.000000 1.000000
vn 0.000000 0.000000 1.000000
vn 0.000000 0.000000 1.000000
vn 0.000000 0.000000 1.000000
vn 0.000000 0.000000 1.000000
vn 0.000000 0.000000 1.000000
vn 0.000000 0.000000 1.000000
vn 0.000000 0.000000 1.000000
vn 0.000000 0.000000 1.000000
vn 0.000000 0.000000 1.000000
vn 0.000000 0.000000 1.000000
vn 0.000000 0.000000 1.000000
vn 1.000000 0.000000 0.000000
vn 1.000000 0.000000 0.000000
vn 1.000000 0.000000 0.000000
vn 1.000000 0.000000 0.000000
vn 0.000000 0.000000 -1.000000
vn 0.000000 0.000000 -1.000000
vn 0.000000 0.000000 -1.000000
vn 0.000000 0.000000 -1.000000
vn 0.000000 0.000000 -1.000000
vn 0.000000 0.000000 -1.000000
vn 0.000000 0.000000 -1.000000
vn 0.000000 0.000000 -1.000000
vn 0.000000 0.000000 -1.000000
vn 0.000000 0.000000 -1.000000
vn 0.000000 0.000000 -1.000000
vn 0.000000 0.000000 -1.000000
vn -1.000000 0.000000 0.000000
vn -1.000000 0.000000 0.000000
vn -1.000000 0.000000 0.000000
vn -1.000000 0.000000 0.000000
vn 0.000000 0.000000 1.000000
vn 0.000000 0.000000 1.000000
vn 0.000000 0.000000 1.000000
vn 0.000000 0.000000 1.000000
vn 0.000000 0.000000 1.000000
vn 0.000000 0.000000 1.000000
vn 0.000000 0.000000 1.000000
vn 0.000000 0.000000 1.000000
vn 0.000000 0.000000 1.000000
vn 0.000000 0.000000 1.000000
vn 0.000000 0.000000 1.000000
vn 0.000000 0.000000 1.000000
vn 1.000000 0.000000 0.000000
vn 1.000000 0.000000 0.000000
vn 1.000000 0.000000 0.000000
vn 1.000000 0.000000 0.000000
vn 0.000000 0.000000 -1.000000
vn 0.000000 0.000000 -1.000000
vn 0.000000 0.000000 -1.000000
vn 0.000000 0.000000 -1.000000
vn 0.000000 0.000000 -1.000000
vn 0.000000 0.000000 -1.000000
vn 0.000000 0.000000 -1.000000
vn 0.000000 0.000000 -1.000000
vn 0.000000 0.000000 -1.000000
vn 0.000000 0.000000 -1.000000
vn 0.000000 0.000000 -1.000000
vn 0.000000 0.000000 -1.000000
vn -1.000000 0.000000 0.000000
vn -1.000000 0.000000 0.000000
vn -1.000000 0.000000 0.000000
vn -1.000000 0.000000 0.000000
vn 0.000000 0.000000 1.000000
vn 0.000000 0.000000 1.000000
vn 0.000000 0.000000 1.000000
vn 0.000000 0.000000 1.000000
vn 0.000000 0.000000 1.000000
vn 0.000000 0.000000 1.000000
vn 0.000000 0.000000 1.000000
vn 0.000000 0.000000 1.000000
vn 0.000000 0.000000 1.000000
vn 0.000000 0.000000 1.000000
vn 0.000000 0.000000 1.000000
vn 0.000000 0.000000 1.000000
vn 1.000000 0.000000 0.000000
vn 1.000000 0.000000 0.000000
vn 1.000000 0.000000 0.000000
vn 1.000000 0.000000 0.000000
vn 0.000000 0.000000 -1.000000
vn 0.000000 0.000000 -1.000000
vn 0.000000 0.000000 -1.000000
vn 0.000000 0.000000 -1.000000
vn 0.000000 0.000000 -1.000000
vn 0.000000 0.000000 -1.000000
vn 0.000000 0.000000 -1.000000
vn 0.000000 0.000000 -1.000000
vn 0.000000 0.000000 -1.000000
vn 0.000000 0.000000 -1.000000
vn 0.000000 0.000000 -1.000000
vn 0.000000 0.000000 -1.000000
vn -1.000000 0.000000 0.000000
vn -1.000000 0.000000 0.000000
vn -1.000000 0.000000 0.000000
vn -1.000000 0.000000 0.000000
vn 0.000000 0.000000 1.000000
vn 0.000000 0.000000 1.000000
vn 0.000000 0.000000 1.000000
vn 0.000000 0.000000 1.000000
vn 0.000000 0.000000 1.000000
vn 0.000000 0.000000 1.000000
vn 0.000000 0.000000 1.000000
vn 0.000000 0.000000 1.000000
vn 0.000000 0.000000 1.000000
vn 0.000000 0.000000 1.000000
vn 0.000000 0.000000 1.000000
vn 0.000000 0.000000 1.000000
vn 1.000000 0.000000 0.000000
vn 1.000000 0.000000 0.000000
vn 1.000000 0.000000 0.000000
vn 1.000000 0.000000 0.000000
vn 0.000000 0.000000 -1.000000
vn 0.000000 0.000000 -1.000000
vn 0.000000 0.000000 -1.000000
vn 0.000000 0.000000 -1.000000
vn 0.000000 0.000000 -1.000000
vn 0.000000 0.000000 -1.000000
vn 0.000000 0.000000 -1.000000
vn 0.000000 0.000000 -1.000000
vn 0.000000 0.000000 -1.000000
vn 0.000000 0.000000 -1.000000
vn 0.000000 0.000000 -1.000000
vn 0.000000 0.000000 -1.000000
vn -1.000000 0.000000 0.000000
vn -1.000000 0.000000 0.000000
vn -1.000000 0.000000 0.000000
vn -1.000000 0.000000 0.000000
vn 0.000000 -1.000000 0.000000
vn 0.000000 -1.000000 0.000000
vn 0.000000 -1.000000 0.000000
vn 0.000000 -1.000000 0.000000
vn 1.000000 0.000000 0.000000
vn 1.000000 0.000000 0.000000
vn 1.000000 0.000000 0.000000
vn 1.000000 0.000000 0.000000
vn 0.000000 1.000000 0.000000
vn 0.000000 1.000000 0.000000
vn 0.000000 1.000000 0.000000
vn 0.000000 1.000000 0.000000
vn -1.000000 0.000000 0.000000
vn -1.000000 0.000000 0.000000
vn -1.000000 0.000000 0.000000
vn -1.000000 0.000000 0.000000
vn 0.000000 -1.000000 0.000000
vn 0.000000 -1.000000 0.000000
vn 0.000000 -1.000000 0.000000
vn 0.000000 -1.000000 0.000000
vn 1.000000 0.000000 0.000000
vn 1.000000 0.000000 0.000000
vn 1.000000 0.000000 0.000000
vn 1.000000 0.000000 0.000000
vn 0.000000 1.000000 0.000000
vn 0.000000 1.000000 0.000000
vn 0.000000 1.000000 0.000000
vn 0.000000 1.000000 0.000000
vn -1.000000 0.000000 0.000000
vn -1.000000 0.000000 0.000000
vn -1.000000 0.000000 0.000000
vn -1.000000 0.000000 0.000000
vn 0.000000 -1.000000 0.000000
vn 0.000000 -1.000000 0.000000
vn 0.000000 -1.000000 0.000000
vn 0.000000 -1.000000 0.000000
vn 1.000000 0.000000 0.000000
vn 1.000000 0.000000 0.000000
vn 1.000000 0.000000 0.000000
vn 1.000000 0.000000 0.000000
vn 0.000000 1.000000 0.000000
vn 0.000000 1.000000 0.000000
vn 0.000000 1.000000 0.000000
vn 0.000000 1.000000 0.000000
vn -1.000000 0.000000 0.000000
vn -1.000000 0.000000 0.000000
vn -1.000000 0.000000 0.000000
vn -1.000000 0.000000 0.000000
vn 0.000000 -1.000000 0.000000
vn 0.000000 -1.000000 0.000000
vn 0.000000 -1.000000 0.000000
vn 0.000000 -1.000000 0.000000
vn 1.000000 0.000000 0.000000
vn 1.000000 0.000000 0.000000
vn 1.000000 0.000000 0.000000
vn 1.000000 0.000000 0.000000
vn 0.000000 1.000000 0.000000
vn 0.000000 1.000000 0.000000
vn 0.000000 1.000000 0.000000
vn 0.000000 1.000000 0.000000
vn -1.000000 0.000000 0.000000
vn -1.000000 0.000000 0.000000
vn -1.000000 0.000000 0.000000
vn -1.000000 0.000000 0.000000
s off
g Bookshelf
usemtl BookshelfSG
f 16/1/1 27/2/2 28/3/3 4/4/4
f 29/7/5 30/8/6 15/5/7 6/6/8
f 16/1/9 4/4/10 6/6/11 15/5/12
f 4/4/13 28/3/14 29/11/15 6/12/16
f 2/16/17 13/15/18 14/9/19 8/10/20
f 25/17/21 3/18/22 5/14/23 32/13/24
f 9/19/25 1/20/26 7/21/27 10/22/28
f 5/23/29 11/24/30 31/25/31 32/26/32
f 11/24/33 5/23/34 3/18/35 12/27/36
f 25/17/37 26/28/38 12/27/39 3/18/40
f 14/9/41 13/15/42 9/19/43 10/22/44
f 30/8/45 31/25/46 11/24/47 15/5/48
f 16/1/49 15/5/50 11/24/51 12/27/52
f 12/27/53 26/28/54 27/2/55 16/1/56
f 1/29/57 9/30/58 18/31/59 17/32/60
f 19/33/61 18/31/62 9/30/63 13/34/64
f 20/35/65 19/33/66 13/34/67 2/36/68
f 20/35/69 2/36/70 8/38/71 21/37/72
f 14/9/73 22/39/74 21/40/75 8/10/76
f 10/22/77 23/41/78 22/39/79 14/9/80
f 24/42/81 23/41/82 10/22/83 7/21/84
f 24/44/85 7/43/86 1/29/87 17/32/88
f 73/45/89 74/46/90 26/28/91 25/17/92
f 82/47/93 81/48/94 83/49/95 84/50/96
f 28/3/97 27/2/98 75/51/99 76/52/100
f 29/11/101 28/3/102 76/52/103 77/53/104
f 77/54/105 78/55/106 30/8/107 29/7/108
f 78/55/109 79/56/110 31/25/111 30/8/112
f 32/26/113 31/25/114 79/56/115 80/57/116
f 25/17/117 32/13/118 80/58/119 73/45/120
f 17/32/121 18/31/122 34/59/123 33/60/124
f 86/61/125 85/62/126 87/63/127 88/64/128
f 36/65/129 35/66/130 19/33/131 20/35/132
f 36/65/133 20/35/134 21/37/135 37/67/136
f 21/40/137 22/39/138 38/68/139 37/69/140
f 22/39/141 23/41/142 39/70/143 38/68/144
f 40/71/145 39/70/146 23/41/147 24/42/148
f 40/72/149 24/44/150 17/32/151 33/60/152
f 33/60/153 34/59/154 42/73/155 41/74/156
f 43/75/157 42/73/158 34/59/159 35/66/160
f 44/76/161 43/75/162 35/66/163 36/65/164
f 44/76/165 36/65/166 37/67/167 45/77/168
f 37/69/169 38/68/170 46/78/171 45/79/172
f 38/68/173 39/70/174 47/80/175 46/78/176
f 48/81/177 47/80/178 39/70/179 40/71/180
f 48/82/181 40/72/182 33/60/183 41/74/184
f 41/74/185 42/73/186 50/83/187 49/84/188
f 90/85/189 89/86/190 91/87/191 92/88/192
f 52/89/193 51/90/194 43/75/195 44/76/196
f 52/89/197 44/76/198 45/77/199 53/91/200
f 45/79/201 46/78/202 54/92/203 53/93/204
f 46/78/205 47/80/206 55/94/207 54/92/208
f 56/95/209 55/94/210 47/80/211 48/81/212
f 56/96/213 48/82/214 41/74/215 49/84/216
f 49/84/217 50/83/218 58/97/219 57/98/220
f 59/99/221 58/97/222 50/83/223 51/90/224
f 60/100/225 59/99/226 51/90/227 52/89/228
f 60/100/229 52/89/230 53/91/231 61/101/232
f 53/93/233 54/92/234 62/102/235 61/103/236
f 54/92/237 55/94/238 63/104/239 62/102/240
f 64/105/241 63/104/242 55/94/243 56/95/244
f 64/106/245 56/96/246 49/84/247 57/98/248
f 57/98/249 58/97/250 66/107/251 65/108/252
f 94/109/253 93/110/254 95/111/255 96/112/256
f 68/113/257 67/114/258 59/99/259 60/100/260
f 68/113/261 60/100/262 61/101/263 69/115/264
f 61/103/265 62/102/266 70/116/267 69/117/268
f 62/102/269 63/104/270 71/118/271 70/116/272
f 72/119/273 71/118/274 63/104/275 64/105/276
f 72/120/277 64/106/278 57/98/279 65/108/280
f 65/108/281 66/107/282 74/46/283 73/45/284
f 75/51/285 74/46/286 66/107/287 67/114/288
f 76/52/289 75/51/290 67/114/291 68/113/292
f 77/53/293 76/52/294 68/113/295 69/115/296
f 69/117/297 70/116/298 78/55/299 77/54/300
f 70/116/301 71/118/302 79/56/303 78/55/304
f 80/57/305 79/56/306 71/118/307 72/119/308
f 73/45/309 80/58/310 72/120/311 65/108/312
f 27/2/313 26/28/314 81/48/315 82/47/316
f 26/28/317 74/46/318 83/49/319 81/48/320
f 74/46/321 75/51/322 84/50/323 83/49/324
f 75/51/325 27/2/326 82/47/327 84/50/328
f 35/66/329 34/59/330 85/62/331 86/61/332
f 34/59/333 18/31/334 87/63/335 85/62/336
f 18/31/337 19/33/338 88/64/339 87/63/340
f 19/33/341 35/66/342 86/61/343 88/64/344
f 51/90/345 50/83/346 89/86/347 90/85/348
f 50/83/349 42/73/350 91/87/351 89/86/352
f 42/73/353 43/75/354 92/88/355 91/87/356
f 43/75/357 51/90/358 90/85/359 92/88/360
f 67/114/361 66/107/362 93/110/363 94/109/364
f 66/107/365 58/97/366 95/111/367 93/110/368
f 58/97/369 59/99/370 96/112/371 95/111/372
f 59/99/373 67/114/374 94/109/375 96/112/376
