# This file uses centimeters as units for non-parametric coordinates.

mtllib tombStone.mtl
g default
v -18.161489 2.768539 -4.471793
v -18.086734 3.240542 -4.472288
v -17.869783 3.666340 -4.473724
v -17.531874 4.004256 -4.475961
v -17.106085 4.221211 -4.478780
v -16.634094 4.295969 -4.481904
v -16.162103 4.221211 -4.485029
v -15.736314 4.004256 -4.487847
v -15.398406 3.666340 -4.490084
v -15.181454 3.240541 -4.491520
v -15.106699 2.768539 -4.492015
v -16.634094 2.768539 -4.481904
v -16.638449 2.768541 -5.139750
v -15.106699 -0.134951 -4.492015
v -15.161858 -0.134951 -5.149525
v -18.161489 -0.134951 -4.471793
v -18.115042 -0.134951 -5.129976
v -15.106639 0.105383 -4.482912
v -18.161429 0.105383 -4.462690
v -18.105536 0.108502 -5.120235
v -15.171233 0.108502 -5.139660
v -14.528746 0.105383 -5.144611
v -14.519180 0.105383 -4.486801
v -14.519240 -0.134951 -4.495904
v -14.528806 -0.134951 -5.153716
v -18.748890 0.105383 -4.458801
v -18.748032 0.105383 -5.116680
v -18.748092 -0.134951 -5.125785
v -18.748950 -0.134951 -4.467905
v -18.088858 2.152249 -5.104234
v -18.131354 2.768541 -4.932526
v -18.065095 2.751418 -5.113138
v -17.966052 2.768541 -5.130962
v -18.057484 3.240542 -4.933015
v -17.995189 3.192321 -5.102007
v -17.901073 3.178800 -5.131392
v -17.859099 3.666340 -4.934328
v -17.792462 3.590065 -5.092718
v -17.712501 3.548901 -5.132640
v -17.534923 4.004256 -4.936474
v -17.476700 3.905717 -5.077099
v -17.418794 3.842616 -5.134585
v -17.109134 4.221211 -4.939291
v -17.078964 4.108378 -5.079732
v -17.048700 4.031193 -5.137035
v -16.637143 4.295969 -4.942416
v -16.638071 4.178211 -5.082650
v -16.638449 4.096171 -5.139750
v -16.165152 4.221211 -4.945540
v -16.197178 4.108378 -5.085569
v -16.228198 4.031193 -5.142466
v -15.739363 4.004256 -4.948360
v -15.799443 3.905717 -5.088202
v -15.858104 3.842616 -5.144916
v -15.415187 3.666340 -4.950506
v -15.483916 3.590065 -5.108000
v -15.564397 3.548902 -5.146860
v -15.216801 3.240541 -4.951819
v -15.281330 3.192321 -5.119972
v -15.375825 3.178800 -5.148109
v -15.187697 2.152249 -5.123439
v -15.310848 2.768541 -5.148539
v -15.211576 2.751418 -5.132027
v -15.142933 2.768541 -4.952308
v -18.161484 2.160328 -4.470926
v -15.106693 2.160328 -4.491148
vt 0.072939 0.235618
vt 0.068069 0.220414
vt 0.100662 0.203547
vt 0.080523 0.247683
vt 0.090078 0.255428
vt 0.100669 0.258094
vt 0.111259 0.255421
vt 0.120812 0.247670
vt 0.128393 0.235600
vt 0.133258 0.220392
vt 0.134934 0.203535
vt 0.077700 0.356596
vt 0.077700 0.294548
vt 0.080767 0.295406
vt 0.080767 0.357454
vt 0.134921 0.108416
vt 0.066377 0.108438
vt 0.066376 0.099724
vt 0.134920 0.099701
vt 0.073848 0.357454
vt 0.073848 0.295406
vt 0.076915 0.294548
vt 0.076915 0.356596
vt 0.229942 0.108410
vt 0.164212 0.108415
vt 0.164000 0.099585
vt 0.230153 0.099580
vt 0.115666 0.301308
vt 0.116672 0.340603
vt 0.110088 0.355942
vt 0.108565 0.301774
vt 0.064797 0.356530
vt 0.065566 0.294548
vt 0.073063 0.294548
vt 0.072997 0.356596
vt 0.148102 0.099697
vt 0.148103 0.108411
vt 0.149820 0.108286
vt 0.149820 0.099586
vt 0.063244 0.294548
vt 0.064013 0.356530
vt 0.055813 0.356596
vt 0.055747 0.294548
vt 0.244333 0.099578
vt 0.244334 0.108278
vt 0.053195 0.108443
vt 0.053194 0.099728
vt 0.176441 0.357411
vt 0.170126 0.341788
vt 0.171819 0.302530
vt 0.178908 0.303320
vt 0.163832 0.358478
vt 0.164226 0.355531
vt 0.169358 0.357146
vt 0.168883 0.359417
vt 0.164704 0.341129
vt 0.121256 0.300916
vt 0.122105 0.340176
vt 0.126864 0.300634
vt 0.127422 0.339870
vt 0.132485 0.300455
vt 0.132695 0.339690
vt 0.138116 0.300384
vt 0.138061 0.339636
vt 0.143751 0.300430
vt 0.143418 0.339687
vt 0.149387 0.300596
vt 0.148771 0.339891
vt 0.155017 0.300874
vt 0.154130 0.340208
vt 0.160636 0.301331
vt 0.159395 0.340599
vt 0.166238 0.301880
vt 0.225364 0.218335
vt 0.221140 0.231530
vt 0.197080 0.203711
vt 0.214561 0.242002
vt 0.206271 0.248725
vt 0.197082 0.251042
vt 0.187892 0.248727
vt 0.179601 0.242004
vt 0.173022 0.231534
vt 0.168797 0.218339
vt 0.167341 0.203713
vt 0.117610 0.358275
vt 0.117175 0.355985
vt 0.122333 0.354591
vt 0.122676 0.357553
vt 0.127531 0.353435
vt 0.127790 0.357114
vt 0.132760 0.351808
vt 0.132935 0.356977
vt 0.138027 0.351799
vt 0.138088 0.356909
vt 0.143305 0.351922
vt 0.143258 0.356960
vt 0.148583 0.352050
vt 0.148428 0.357154
vt 0.153850 0.352302
vt 0.153582 0.357460
vt 0.159050 0.354154
vt 0.158726 0.357820
vt 0.086534 0.359122
vt 0.084802 0.302977
vt 0.134931 0.181815
vt 0.066386 0.181837
vt 0.202641 0.305577
vt 0.199931 0.361627
vt 0.229573 0.181321
vt 0.164586 0.181327
vt 0.226819 0.203708
vt 0.066389 0.203558
vn 0.006620 -0.000000 0.999978
vn 0.006620 0.000000 0.999978
vn 0.006620 0.000989 0.999978
vn 0.006620 -0.000000 0.999978
vn 0.006620 -0.000000 0.999978
vn 0.006620 0.000989 0.999978
vn 0.006620 -0.000000 0.999978
vn 0.006620 -0.000000 0.999978
vn 0.006620 0.000989 0.999978
vn 0.006620 -0.000000 0.999978
vn 0.006620 -0.000000 0.999978
vn 0.006620 0.000989 0.999978
vn 0.006620 -0.000000 0.999978
vn 0.006620 -0.000000 0.999978
vn 0.006620 0.000989 0.999978
vn 0.006620 -0.000000 0.999978
vn 0.006620 -0.000000 0.999978
vn 0.006620 0.000989 0.999978
vn 0.006620 -0.000000 0.999978
vn 0.006620 -0.000000 0.999978
vn 0.006620 0.000989 0.999978
vn 0.006620 -0.000000 0.999978
vn 0.006620 -0.000000 0.999978
vn 0.006620 0.000989 0.999978
vn 0.006620 0.000989 0.999978
vn 0.006620 0.000839 0.999978
vn 0.006620 -0.000000 0.999978
vn 0.999894 0.000300 -0.014542
vn 0.999894 0.000300 -0.014542
vn 0.999894 0.000300 -0.014542
vn 0.999894 0.000300 -0.014542
vn 0.006620 -0.000378 0.999978
vn 0.006620 -0.000378 0.999978
vn 0.006615 -0.037855 0.999261
vn 0.006615 -0.037855 0.999261
vn -0.999999 0.000300 -0.001303
vn -0.999999 0.000300 -0.001303
vn -0.999999 0.000300 -0.001303
vn -0.999999 0.000300 -0.001303
vn -0.006619 0.011448 -0.999913
vn -0.006619 0.011448 -0.999913
vn -0.006614 0.040232 -0.999169
vn -0.006614 0.040232 -0.999169
vn -0.995465 0.048422 -0.081886
vn -0.991722 0.042732 -0.121087
vn -0.994525 0.002530 -0.104470
vn -0.995191 -0.000922 -0.097944
vn 0.002552 0.999994 0.002228
vn 0.002552 0.999994 0.002228
vn 0.002552 0.999994 0.002228
vn 0.002552 0.999994 0.002228
vn 0.006615 -0.037855 0.999261
vn 0.006615 -0.037855 0.999261
vn 0.006615 -0.037855 0.999261
vn 0.006615 -0.037855 0.999261
vn -0.007066 0.039043 -0.999213
vn -0.007066 0.039043 -0.999213
vn -0.007066 0.039043 -0.999213
vn -0.007066 0.039043 -0.999213
vn -0.002522 0.999994 0.002262
vn -0.002522 0.999994 0.002262
vn -0.002522 0.999994 0.002262
vn -0.002522 0.999994 0.002262
vn -0.006164 0.039043 -0.999218
vn -0.006164 0.039043 -0.999218
vn -0.006164 0.039043 -0.999218
vn -0.006164 0.039043 -0.999218
vn 0.006615 -0.037855 0.999261
vn 0.006615 -0.037855 0.999261
vn 0.006615 -0.037855 0.999261
vn 0.006615 -0.037855 0.999261
vn 0.993055 0.002530 -0.117627
vn 0.990032 0.042732 -0.134206
vn 0.994293 0.048422 -0.095058
vn 0.993808 -0.000922 -0.111111
vn 0.035501 0.017532 -0.999216
vn 0.265417 0.110374 -0.957795
vn 0.225140 0.049910 -0.973047
vn 0.012926 -0.022000 -0.999674
vn 0.867115 0.260295 -0.424686
vn 0.939893 0.296843 -0.168773
vn 0.990032 0.042732 -0.134206
vn 0.923215 0.100876 -0.370808
vn -0.995465 0.048422 -0.081886
vn -0.952926 0.298726 -0.051906
vn -0.942045 0.296843 -0.156315
vn -0.991722 0.042732 -0.121087
vn -0.952926 0.298726 -0.051906
vn -0.817220 0.575875 -0.022781
vn -0.805217 0.569153 -0.166404
vn -0.942045 0.296843 -0.156315
vn -0.817220 0.575875 -0.022781
vn -0.591273 0.806470 -0.001455
vn -0.582165 0.793940 -0.175339
vn -0.805217 0.569153 -0.166404
vn -0.591273 0.806470 -0.001455
vn -0.309010 0.951057 0.002047
vn -0.304788 0.934892 -0.181881
vn -0.582165 0.793940 -0.175339
vn -0.309010 0.951057 0.002047
vn 0.000000 1.000000 0.000001
vn -0.001226 0.982711 -0.185140
vn -0.304788 0.934892 -0.181881
vn 0.000000 1.000000 0.000001
vn 0.309010 0.951057 -0.002045
vn 0.302353 0.934892 -0.185901
vn -0.001226 0.982711 -0.185140
vn 0.309010 0.951057 -0.002045
vn 0.591202 0.806470 -0.009282
vn 0.579793 0.793940 -0.183030
vn 0.302353 0.934892 -0.185901
vn 0.591202 0.806470 -0.009282
vn 0.816847 0.575875 -0.033598
vn 0.802944 0.569152 -0.177050
vn 0.579793 0.793940 -0.183030
vn 0.816847 0.575875 -0.033598
vn 0.952156 0.298725 -0.064517
vn 0.939893 0.296843 -0.168773
vn 0.802944 0.569152 -0.177050
vn 0.952156 0.298725 -0.064517
vn 0.994293 0.048422 -0.095058
vn 0.990032 0.042732 -0.134206
vn 0.939893 0.296843 -0.168773
vn -0.048727 0.017532 -0.998658
vn -0.056419 0.041672 -0.997537
vn -0.006616 -0.031026 -0.999497
vn -0.056419 0.041672 -0.997537
vn -0.052659 0.067950 -0.996298
vn -0.006616 -0.031026 -0.999497
vn -0.052659 0.067950 -0.996298
vn -0.033807 0.084285 -0.995868
vn -0.006616 -0.031026 -0.999497
vn -0.033807 0.084285 -0.995868
vn -0.006594 0.088662 -0.996040
vn -0.006616 -0.031026 -0.999497
vn -0.006594 0.088662 -0.996040
vn 0.020620 0.084285 -0.996228
vn -0.006616 -0.031026 -0.999497
vn 0.020620 0.084285 -0.996228
vn 0.039465 0.067950 -0.996908
vn -0.006616 -0.031026 -0.999497
vn 0.039465 0.067950 -0.996908
vn 0.043207 0.041672 -0.998197
vn -0.006616 -0.031026 -0.999497
vn 0.043207 0.041672 -0.998197
vn 0.035501 0.017532 -0.999216
vn -0.006616 -0.031026 -0.999497
vn 0.012926 -0.022000 -0.999674
vn -0.006616 -0.031026 -0.999497
vn 0.035501 0.017532 -0.999216
vn -0.026159 -0.022000 -0.999416
vn -0.238002 0.049910 -0.969982
vn -0.278074 0.110374 -0.954197
vn -0.048727 0.017532 -0.998658
vn -0.928043 0.100876 -0.358553
vn -0.991722 0.042732 -0.121087
vn -0.942045 0.296843 -0.156315
vn -0.872661 0.260296 -0.413169
vn -0.048727 0.017532 -0.998658
vn -0.278074 0.110374 -0.954197
vn -0.331458 0.272367 -0.903301
vn -0.056419 0.041672 -0.997537
vn -0.872661 0.260296 -0.413169
vn -0.942045 0.296843 -0.156315
vn -0.805217 0.569153 -0.166404
vn -0.707284 0.479290 -0.519644
vn -0.056419 0.041672 -0.997537
vn -0.331458 0.272367 -0.903301
vn -0.301529 0.438263 -0.846762
vn -0.052659 0.067950 -0.996298
vn -0.707284 0.479290 -0.519644
vn -0.805217 0.569153 -0.166404
vn -0.582165 0.793940 -0.175339
vn -0.477001 0.634973 -0.607684
vn -0.052659 0.067950 -0.996298
vn -0.301529 0.438263 -0.846762
vn -0.181811 0.539201 -0.822318
vn -0.033807 0.084285 -0.995868
vn -0.477001 0.634973 -0.607684
vn -0.582165 0.793940 -0.175339
vn -0.304788 0.934892 -0.181881
vn -0.242156 0.730302 -0.638764
vn -0.033807 0.084285 -0.995868
vn -0.181811 0.539201 -0.822318
vn -0.005433 0.571269 -0.820745
vn -0.006594 0.088662 -0.996040
vn -0.242156 0.730302 -0.638764
vn -0.304788 0.934892 -0.181881
vn -0.001226 0.982711 -0.185140
vn -0.004257 0.765814 -0.643048
vn -0.006594 0.088662 -0.996040
vn -0.005433 0.571269 -0.820745
vn 0.170910 0.539201 -0.824653
vn 0.020620 0.084285 -0.996228
vn -0.004257 0.765814 -0.643048
vn -0.001226 0.982711 -0.185140
vn 0.302353 0.934892 -0.185901
vn 0.233678 0.730302 -0.641914
vn 0.020620 0.084285 -0.996228
vn 0.170910 0.539201 -0.824653
vn 0.290292 0.438263 -0.850680
vn 0.039465 0.067950 -0.996908
vn 0.233678 0.730302 -0.641914
vn 0.302353 0.934892 -0.185901
vn 0.579793 0.793940 -0.183030
vn 0.468914 0.634973 -0.613945
vn 0.039465 0.067950 -0.996908
vn 0.290292 0.438263 -0.850680
vn 0.319470 0.272366 -0.907610
vn 0.043207 0.041672 -0.998197
vn 0.468914 0.634973 -0.613945
vn 0.579793 0.793940 -0.183030
vn 0.802944 0.569152 -0.177050
vn 0.700343 0.479289 -0.528963
vn 0.043207 0.041672 -0.998197
vn 0.319470 0.272366 -0.907610
vn 0.265417 0.110374 -0.957795
vn 0.035501 0.017532 -0.999216
vn 0.700343 0.479289 -0.528963
vn 0.802944 0.569152 -0.177050
vn 0.939893 0.296843 -0.168773
vn 0.867115 0.260295 -0.424686
vn -0.991722 0.042732 -0.121087
vn -0.928043 0.100876 -0.358553
vn -0.994525 0.002530 -0.104470
vn -0.006522 0.004140 -0.999970
vn 0.012926 -0.022000 -0.999674
vn 0.162787 -0.007654 -0.986632
vn 0.993055 0.002530 -0.117627
vn 0.923215 0.100876 -0.370808
vn 0.990032 0.042732 -0.134206
vn -0.006718 0.004140 -0.999969
vn -0.175834 -0.007654 -0.984390
vn -0.026159 -0.022000 -0.999416
vn -0.995191 -0.000922 -0.097944
vn -0.994525 0.002530 -0.104470
vn -0.995070 0.004223 -0.099087
vn -0.995070 0.004223 -0.099087
vn 0.006620 0.003791 0.999971
vn 0.006620 0.003791 0.999971
vn 0.006620 -0.000378 0.999978
vn 0.006620 -0.000378 0.999978
vn 0.993055 0.002530 -0.117627
vn 0.993808 -0.000922 -0.111111
vn 0.993671 0.004223 -0.112252
vn 0.993671 0.004223 -0.112252
vn -0.006718 0.004140 -0.999969
vn -0.006522 0.004140 -0.999970
vn -0.006619 0.011448 -0.999913
vn -0.006619 0.011448 -0.999913
vn -0.026159 -0.022000 -0.999416
vn -0.048727 0.017532 -0.998658
vn -0.006616 -0.031026 -0.999497
vn -0.026159 -0.022000 -0.999416
vn -0.006616 -0.031026 -0.999497
vn -0.006718 0.004140 -0.999969
vn -0.006522 0.004140 -0.999970
vn -0.006616 -0.031026 -0.999497
vn 0.012926 -0.022000 -0.999674
vn -0.006718 0.004140 -0.999969
vn -0.006616 -0.031026 -0.999497
vn -0.006522 0.004140 -0.999970
vn 0.006620 0.000989 0.999978
vn 0.006620 0.003791 0.999971
vn 0.006620 0.000839 0.999978
vn 0.006620 0.000989 0.999978
vn 0.006620 0.003791 0.999971
vn 0.006620 0.003791 0.999971
vn 0.006620 0.000839 0.999978
vn 0.006620 0.003791 0.999971
vn 0.006620 0.000989 0.999978
vn 0.006620 0.000839 0.999978
vn 0.006620 0.000989 0.999978
vn 0.006620 0.000000 0.999978
s off
g tombstone__1_:pCylinder1
usemtl lambert9SG
f 3/1/1 2/2/2 12/3/3
f 4/4/4 3/1/5 12/3/6
f 5/5/7 4/4/8 12/3/9
f 6/6/10 5/5/11 12/3/12
f 7/7/13 6/6/14 12/3/15
f 8/8/16 7/7/17 12/3/18
f 9/9/19 8/8/20 12/3/21
f 10/10/22 9/9/23 12/3/24
f 12/3/25 11/11/26 10/10/27
f 22/12/28 23/13/29 24/14/30 25/15/31
f 18/16/32 19/17/33 16/18/34 14/19/35
f 26/20/36 27/21/37 28/22/38 29/23/39
f 20/24/40 21/25/41 15/26/42 17/27/43
f 1/28/44 31/29/45 30/30/46 65/31/47
f 21/32/48 18/33/49 23/34/50 22/35/51
f 18/16/52 14/19/53 24/36/54 23/37/55
f 15/26/56 21/25/57 22/38/58 25/39/59
f 19/40/60 20/41/61 27/42/62 26/43/63
f 20/24/64 17/27/65 28/44/66 27/45/67
f 16/18/68 19/17/69 26/46/70 29/47/71
f 61/48/72 64/49/73 11/50/74 66/51/75
f 60/52/76 59/53/77 63/54/78 62/55/79
f 59/53/80 58/56/81 64/49/82 63/54/83
f 1/28/84 2/57/85 34/58/86 31/29/87
f 2/57/88 3/59/89 37/60/90 34/58/91
f 3/59/92 4/61/93 40/62/94 37/60/95
f 4/61/96 5/63/97 43/64/98 40/62/99
f 5/63/100 6/65/101 46/66/102 43/64/103
f 6/65/104 7/67/105 49/68/106 46/66/107
f 7/67/108 8/69/109 52/70/110 49/68/111
f 8/69/112 9/71/113 55/72/114 52/70/115
f 9/71/116 10/73/117 58/56/118 55/72/119
f 10/73/120 11/50/121 64/49/122 58/56/123
f 36/74/124 39/75/125 13/76/126
f 39/75/127 42/77/128 13/76/129
f 42/77/130 45/78/131 13/76/132
f 45/78/133 48/79/134 13/76/135
f 48/79/136 51/80/137 13/76/138
f 51/80/139 54/81/140 13/76/141
f 54/81/142 57/82/143 13/76/144
f 57/82/145 60/83/146 13/76/147
f 62/84/148 13/76/149 60/83/150
f 33/85/151 32/86/152 35/87/153 36/88/154
f 32/86/155 31/29/156 34/58/157 35/87/158
f 36/88/159 35/87/160 38/89/161 39/90/162
f 35/87/163 34/58/164 37/60/165 38/89/166
f 39/90/167 38/89/168 41/91/169 42/92/170
f 38/89/171 37/60/172 40/62/173 41/91/174
f 42/92/175 41/91/176 44/93/177 45/94/178
f 41/91/179 40/62/180 43/64/181 44/93/182
f 45/94/183 44/93/184 47/95/185 48/96/186
f 44/93/187 43/64/188 46/66/189 47/95/190
f 48/96/191 47/95/192 50/97/193 51/98/194
f 47/95/195 46/66/196 49/68/197 50/97/198
f 51/98/199 50/97/200 53/99/201 54/100/202
f 50/97/203 49/68/204 52/70/205 53/99/206
f 54/100/207 53/99/208 56/101/209 57/102/210
f 53/99/211 52/70/212 55/72/213 56/101/214
f 57/102/215 56/101/216 59/53/217 60/52/218
f 56/101/219 55/72/220 58/56/221 59/53/222
f 31/29/223 32/86/224 30/30/225
f 61/48/226 62/55/227 63/54/228
f 61/48/229 63/54/230 64/49/231
f 30/30/232 32/86/233 33/85/234
f 65/31/235 30/30/236 20/103/237 19/104/238
f 66/105/239 65/106/240 19/17/241 18/16/242
f 61/48/243 66/51/244 18/107/245 21/108/246
f 30/109/247 61/110/248 21/25/249 20/24/250
f 33/111/251 36/74/252 13/76/253
f 33/111/254 13/76/255 30/109/256
f 61/110/257 13/76/258 62/84/259
f 30/109/260 13/76/261 61/110/262
f 12/3/263 66/105/264 11/11/265
f 12/3/266 65/106/267 66/105/268
f 1/112/269 65/106/270 12/3/271
f 1/112/272 12/3/273 2/2/274
