# This file uses centimeters as units for non-parametric coordinates.

mtllib keyboard.mtl
g default
v 11.778720 -0.579879 34.216996
v 11.447325 -0.579879 34.328547
v 11.952477 -0.579879 33.935390
v 11.444445 0.343471 34.328547
v 11.777905 0.408148 34.216556
v 11.952709 0.433806 33.934093
v -11.009047 -0.579879 34.188066
v -11.106732 -0.579879 33.865687
v -10.677652 -0.579879 34.328547
v -11.106980 0.020266 33.867078
v -11.010179 -0.010042 34.188583
v -10.680722 -0.079664 34.328547
v -11.344319 -0.579879 -30.111666
v -11.012924 -0.579879 -30.255436
v -11.432960 -0.579879 -29.785675
v -11.016781 -0.082210 -30.255436
v -11.345785 -0.011022 -30.112331
v -11.433340 0.020333 -29.787401
v -10.869559 0.601312 -29.817084
v -10.904239 0.457964 -30.125855
v -10.854131 0.116410 -30.255436
v 10.432843 0.951161 -30.255436
v 10.509556 1.275148 -30.132517
v 10.595577 1.408219 -29.833153
v -10.511757 0.120031 34.328547
v -10.567013 0.459171 34.199619
v -10.544717 0.601176 33.891712
v 10.931968 1.408470 33.904946
v 10.856523 1.274767 34.205140
v 10.781606 0.949604 34.328547
v -10.631777 0.041403 34.328547
v -10.882543 0.308671 34.193098
v -10.944162 0.423417 33.877615
v -10.990428 0.052857 -30.255436
v -11.225306 0.311532 -30.117977
v -11.270414 0.423477 -29.800306
v 11.438825 -0.579879 -30.146938
v 11.620127 -0.579879 -29.870583
v 11.107430 -0.579879 -30.255436
v 11.620471 0.433678 -29.868999
v 11.438160 0.407423 -30.146416
v 11.105004 0.340663 -30.255436
v 11.235838 0.776450 34.328547
v 11.501677 1.033376 34.212404
v 11.651813 1.136510 33.923031
v 10.908324 0.796520 -30.255436
v 11.163933 1.039476 -30.141429
v 11.318533 1.136397 -29.855566
vt 0.022018 0.377838
vt 0.014360 0.699820
vt 0.973676 0.372374
vt 0.973879 0.702591
vt 0.027242 0.841240
vt 0.088849 0.841237
vt 0.088856 0.966476
vt 0.027242 0.966472
vt 0.027242 0.840606
vt 0.085738 0.840605
vt 0.130234 0.841217
vt 0.130240 0.966501
vt 0.027242 0.967114
vt 0.085637 0.967115
vt 0.118455 0.840596
vt 0.148482 0.841189
vt 0.148495 0.966534
vt 0.118749 0.967126
vt 0.407377 0.971138
vt 0.407351 0.950960
vt 0.498046 0.950951
vt 0.498015 0.971119
vt 0.407335 0.898823
vt 0.498066 0.898813
vt 0.407334 0.823612
vt 0.498068 0.823612
vt 0.406933 0.823612
vt 0.406934 0.896919
vt 0.498461 0.823612
vt 0.498460 0.896865
vt 0.268831 0.967663
vt 0.154663 0.967663
vt 0.152933 0.840596
vt 0.267077 0.840596
vt 0.152953 0.967387
vt 0.151223 0.840879
vt 0.270541 0.967444
vt 0.268787 0.840810
vt 0.152449 0.966752
vt 0.150765 0.841520
vt 0.271438 0.966890
vt 0.269723 0.841353
vt 0.403350 0.823784
vt 0.404596 0.823792
vt 0.404290 0.897079
vt 0.403057 0.892277
vt 0.403048 0.943396
vt 0.402135 0.924360
vt 0.321267 0.875391
vt 0.405041 0.898988
vt 0.403675 0.951037
vt 0.400617 0.961293
vt 0.400387 0.937181
vt 0.320838 0.869560
vt 0.400899 0.971241
vt 0.320984 0.900561
vt 0.319837 0.889389
vt 0.320685 0.860585
vt 0.321003 0.911090
vt 0.319491 0.897918
vt 0.319424 0.865743
vt 0.320810 0.823504
vt 0.319558 0.823502
vt 0.507514 0.967866
vt 0.506262 0.967862
vt 0.506320 0.925695
vt 0.507556 0.930974
vt 0.506814 0.901766
vt 0.507669 0.920962
vt 0.590041 0.967960
vt 0.508030 0.890902
vt 0.508183 0.916251
vt 0.587898 0.830407
vt 0.587554 0.854432
vt 0.508142 0.880273
vt 0.506561 0.893444
vt 0.588263 0.820507
vt 0.590285 0.847892
vt 0.589324 0.865890
vt 0.590057 0.899672
vt 0.590960 0.840714
vt 0.591310 0.894720
vt 0.591286 0.967957
vt 0.592090 0.892771
vn 0.012711 0.000033 0.999919
vn 0.620141 0.000819 0.784490
vn 0.664723 0.072722 0.743542
vn 0.014000 0.000375 0.999902
vn 0.850671 0.000705 0.525698
vn 0.798399 0.292416 0.526357
vn -0.957304 -0.001600 0.289080
vn -0.748135 -0.001974 0.663544
vn -0.836747 0.054511 0.544869
vn -0.901334 0.311313 0.301135
vn -0.013134 -0.000067 0.999914
vn -0.023637 0.000193 0.999721
vn -0.013460 -0.000086 -0.999909
vn -0.760901 -0.002557 -0.648862
vn -0.854319 0.046103 -0.517699
vn -0.023438 0.000087 -0.999725
vn -0.965284 -0.002055 -0.261193
vn -0.913756 0.308447 -0.264404
vn -0.008159 0.146503 -0.989177
vn -0.027936 0.551669 -0.833595
vn -0.019677 0.798570 -0.601580
vn -0.008803 0.320859 -0.947086
vn -0.035105 0.912400 -0.407792
vn -0.032650 0.912281 -0.408260
vn -0.035033 0.912290 0.408044
vn -0.027908 0.552576 0.832995
vn -0.019304 0.798240 0.602030
vn -0.032590 0.912181 0.408490
vn -0.008290 0.146024 0.989246
vn -0.008334 0.318225 0.947979
vn 0.835894 0.000712 -0.548891
vn 0.606664 0.000782 -0.794958
vn 0.653525 0.070201 -0.753642
vn 0.788783 0.288486 -0.542768
vn 0.012363 0.000030 -0.999924
vn 0.013397 0.000339 -0.999910
vn 0.019942 0.010188 -0.999749
vn -0.030940 0.010208 -0.999469
vn 0.019407 0.010186 0.999760
vn -0.027267 0.011012 0.999568
vn 0.512032 0.381820 0.769439
vn 0.325979 0.826126 0.459623
vn -0.686206 0.403348 -0.605336
vn -0.406736 0.842768 -0.352574
vn 0.503859 0.384421 -0.773529
vn 0.320057 0.828064 -0.460298
vn -0.673991 0.394431 0.624628
vn -0.409725 0.833217 0.371315
vn 0.000000 -1.000000 0.000000
vn 0.000000 -1.000000 0.000000
vn 0.000000 -1.000000 0.000000
vn 0.000000 -1.000000 0.000000
vn 0.000000 -1.000000 0.000000
vn 0.000000 -1.000000 0.000000
vn 0.000000 -1.000000 0.000000
vn 0.000000 -1.000000 0.000000
vn 0.000000 -1.000000 0.000000
vn 0.000000 -1.000000 0.000000
vn 0.000000 -1.000000 0.000000
vn 0.000000 -1.000000 0.000000
vn -0.999987 -0.000520 0.005126
vn -0.999987 -0.000520 0.005126
vn -0.999987 -0.000520 0.005126
vn -0.999987 -0.000520 0.005126
vn -0.927178 0.374592 0.004752
vn -0.927178 0.374592 0.004752
vn -0.927178 0.374591 0.004752
vn -0.927178 0.374592 0.004752
vn -0.406040 0.913853 0.002077
vn -0.406040 0.913853 0.002077
vn -0.406040 0.913853 0.002077
vn -0.406040 0.913853 0.002077
vn -0.037564 0.999294 0.000194
vn -0.037564 0.999294 0.000194
vn -0.037564 0.999294 0.000194
vn -0.037564 0.999294 0.000194
vn 0.352671 0.935746 -0.001855
vn 0.352671 0.935746 -0.001855
vn 0.352671 0.935746 -0.001855
vn 0.352671 0.935746 -0.001855
vn 0.919010 0.394205 -0.004795
vn 0.919010 0.394205 -0.004795
vn 0.919010 0.394205 -0.004795
vn 0.919010 0.394205 -0.004795
vn 0.999986 -0.000285 -0.005208
vn 0.999986 -0.000285 -0.005208
vn 0.999986 -0.000285 -0.005208
vn 0.999986 -0.000285 -0.005208
vn 0.000000 -1.000000 0.000000
vn 0.000000 -1.000000 0.000000
vn 0.000000 -1.000000 0.000000
vn 0.000000 -1.000000 0.000000
vn 0.000000 -1.000000 0.000000
vn 0.000000 -1.000000 0.000000
vn 0.000000 -1.000000 0.000000
vn 0.000000 -1.000000 0.000000
s 1
g pCube2
usemtl lambert4SG
f 2/43/1 1/44/2 5/45/3 4/46/4
f 1/27/2 3/25/5 6/23/6 5/28/3
f 8/5/7 7/9/8 11/10/9 10/6/10
f 7/63/8 9/62/11 12/58/12 11/61/9
s 3
f 14/64/13 13/65/14 17/66/15 16/67/16
f 13/13/14 15/8/17 18/7/18 17/14/15
f 21/72/19 20/71/20 23/73/21 22/74/22
f 20/71/20 19/75/23 24/77/24 23/73/21
s 1
f 27/59/25 26/56/26 29/52/27 28/55/28
f 26/56/26 25/49/29 30/53/30 29/52/27
s 3
f 38/26/31 37/29/32 41/30/33 40/24/34
f 37/83/32 39/70/35 42/80/36 41/82/33
f 22/74/22 46/79/37 21/72/19
f 46/79/37 42/80/36 21/72/19
f 42/80/36 39/70/35 21/72/19
f 21/72/19 39/70/35 34/69/38
f 34/69/38 39/70/35 16/67/16
f 39/70/35 14/64/13 16/67/16
s 1
f 30/53/30 25/49/29 43/48/39
f 43/48/39 25/49/29 4/46/4
f 4/46/4 25/49/29 2/43/1
f 25/49/29 31/54/40 2/43/1
f 31/54/40 12/58/12 2/43/1
f 12/58/12 9/62/11 2/43/1
f 4/46/4 5/45/3 44/47/41 43/48/39
f 5/45/3 6/50/6 45/51/42 44/47/41
s 3
f 16/67/16 17/66/15 35/68/43 34/69/38
f 17/14/15 18/7/18 36/12/44 35/18/43
f 22/74/22 23/73/21 47/78/45 46/79/37
f 23/73/21 24/77/24 48/81/46 47/78/45
s 1
f 25/49/29 26/56/26 32/57/47 31/54/40
f 26/56/26 27/59/25 33/60/48 32/57/47
f 10/6/10 11/10/9 32/15/47 33/11/48
f 11/61/9 12/58/12 31/54/40 32/57/47
s 3
f 19/75/23 20/71/20 35/68/43 36/76/44
f 20/71/20 21/72/19 34/69/38 35/68/43
s 1
f 28/55/28 29/52/27 44/47/41 45/51/42
f 29/52/27 30/53/30 43/48/39 44/47/41
s 3
f 40/84/34 41/82/33 47/78/45 48/81/46
f 41/82/33 42/80/36 46/79/37 47/78/45
s off
f 2/31/49 9/32/50 14/33/51 39/34/52
f 9/32/53 7/35/54 13/36/55 14/33/56
f 7/35/57 8/39/58 15/40/59 13/36/60
f 8/5/61 10/6/62 18/7/63 15/8/64
f 10/6/65 33/11/66 36/12/67 18/7/68
f 33/11/69 27/16/70 19/17/71 36/12/72
f 27/3/73 28/4/74 24/2/75 19/1/76
f 28/19/77 45/20/78 48/21/79 24/22/80
f 45/20/81 6/23/82 40/24/83 48/21/84
f 6/23/85 3/25/86 38/26/87 40/24/88
f 3/41/89 1/37/90 37/38/91 38/42/92
f 1/37/93 2/31/94 39/34/95 37/38/96
