# This file uses centimeters as units for non-parametric coordinates.

mtllib wrench.mtl
g default
v -1.000000 0.000000 10.000000
v 1.000000 0.000000 10.000000
v -1.976072 0.000000 -5.977027
v 1.976072 0.000000 -5.977027
v 0.019661 0.000000 11.000000
v -1.000000 0.000000 -2.815725
v 0.019661 0.000000 -2.815725
v 1.000000 0.000000 -2.815725
v -1.976072 0.000000 -4.000000
v 0.038852 0.000000 -4.000000
v 1.976072 0.000000 -4.000000
v 1.000000 0.000000 -5.977027
v -0.917195 0.000000 -5.977026
v 0.581327 0.000000 -5.207247
v -0.501838 0.000000 -5.207248
v 1.000000 0.000000 -6.792752
v 1.976072 0.000000 -6.792753
v -1.976072 0.000000 -6.792752
v -0.917195 0.000000 -6.792752
v -0.501838 0.838488 -5.207248
v 0.038852 0.838488 -4.000000
v 0.581327 0.838488 -5.207247
v -1.000000 0.838488 10.000000
v 0.019661 0.838488 11.000000
v 0.019661 0.838488 -2.815725
v -1.000000 0.838488 -2.815725
v 1.000000 0.838488 10.000000
v 1.000000 0.838488 -2.815725
v -1.976072 0.838488 -4.000000
v 1.976072 0.838488 -4.000000
v 1.976072 0.838488 -5.977027
v 1.000000 0.838488 -5.977027
v -0.917195 0.838488 -5.977026
v -1.976072 0.838488 -5.977027
v 1.976072 0.838488 -6.792753
v 1.000000 0.838488 -6.792752
v -0.917195 0.838488 -6.792752
v -1.976072 0.838488 -6.792752
vt 0.000000 0.000000
vt 0.100000 0.000000
vt 0.000000 1.000000
vt 0.100000 1.000000
vt 0.050983 0.000000
vt 0.000000 0.681572
vt 0.050983 0.681572
vt 0.100000 0.681572
vt 0.000000 0.729340
vt 0.051124 0.726495
vt 0.100000 0.729340
vt 0.067813 1.000000
vt 0.026792 1.000000
vt 0.059398 0.969086
vt 0.038888 0.969086
vt 0.000000 0.000000
vt 1.000000 0.000000
vt 1.000000 1.000000
vt 0.000000 1.000000
vt 0.000000 0.000000
vt 1.000000 0.000000
vt 1.000000 1.000000
vt 0.000000 1.000000
vt 0.038888 0.969086
vt 0.051124 0.726495
vt 0.059398 0.969086
vt 0.000000 0.000000
vt 0.050983 0.000000
vt 0.050983 0.681572
vt 0.000000 0.681572
vt 0.100000 0.000000
vt 0.100000 0.681572
vt 0.000000 0.729340
vt 0.100000 0.729340
vt 0.100000 1.000000
vt 0.067813 1.000000
vt 0.026792 1.000000
vt 0.000000 1.000000
vt 0.000000 0.000000
vt 1.000000 0.000000
vt 1.000000 1.000000
vt 0.000000 1.000000
vt 0.000000 0.000000
vt 1.000000 0.000000
vt 1.000000 1.000000
vt 0.000000 1.000000
vt 0.059398 0.969086
vt 0.038888 0.969086
vt 0.000000 0.000000
vt 0.050983 0.000000
vt 0.000000 0.681572
vt 0.100000 0.000000
vt 0.100000 0.681572
vt 0.000000 0.729340
vt 0.100000 0.729340
vt 0.100000 1.000000
vt 0.067813 1.000000
vt 0.026792 1.000000
vt 0.000000 1.000000
vt 1.000000 0.000000
vt 1.000000 1.000000
vt 0.000000 1.000000
vt 0.000000 0.000000
vt 1.000000 0.000000
vt 1.000000 1.000000
vt 0.000000 1.000000
vt 0.000000 0.000000
vn 0.000000 1.000000 -0.000000
vn 0.000000 1.000000 -0.000000
vn 0.000000 1.000000 -0.000000
vn 0.000000 1.000000 0.000000
vn 0.000000 1.000000 0.000000
vn 0.000000 1.000000 0.000000
vn 0.000000 1.000000 0.000000
vn 0.000000 1.000000 0.000000
vn 0.000000 1.000000 -0.000000
vn 0.000000 1.000000 -0.000000
vn 0.000000 1.000000 -0.000000
vn 0.000000 1.000000 -0.000000
vn 0.000000 1.000000 -0.000000
vn 0.000000 1.000000 -0.000000
vn 0.000000 1.000000 -0.000000
vn 0.000000 1.000000 0.000000
vn 0.000000 1.000000 0.000000
vn 0.000000 1.000000 0.000000
vn 0.000000 1.000000 0.000000
vn 0.000000 -1.000000 0.000000
vn 0.000000 -1.000000 0.000000
vn 0.000000 -1.000000 0.000000
vn 0.000000 -1.000000 0.000000
vn 0.000000 -1.000000 0.000000
vn 0.000000 -1.000000 0.000000
vn 0.000000 -1.000000 0.000000
vn 0.000000 -1.000000 0.000000
vn 0.000000 -1.000000 0.000000
vn 0.000000 -1.000000 0.000000
vn 0.000000 -1.000000 0.000000
vn 0.000000 -1.000000 0.000000
vn 0.000000 -1.000000 0.000000
vn 0.000000 -1.000000 0.000000
vn 0.000000 -1.000000 0.000000
vn 0.000000 -1.000000 0.000000
vn 0.000000 -1.000000 0.000000
vn 0.000000 -1.000000 0.000000
vn 0.000000 -1.000000 0.000000
vn 0.000001 0.000000 -1.000000
vn 0.000001 0.000000 -1.000000
vn 0.000001 0.000000 -1.000000
vn 0.000001 0.000000 -1.000000
vn -0.700190 0.000000 0.713957
vn -0.700190 0.000000 0.713957
vn -0.700190 0.000000 0.713957
vn -0.700190 0.000000 0.713957
vn -1.000000 0.000000 0.000000
vn -1.000000 0.000000 0.000000
vn -1.000000 0.000000 0.000000
vn -1.000000 0.000000 0.000000
vn 0.714092 0.000000 0.700052
vn 0.714092 0.000000 0.700052
vn 0.714092 0.000000 0.700052
vn 0.714092 0.000000 0.700052
vn 1.000000 0.000000 0.000000
vn 1.000000 0.000000 0.000000
vn 1.000000 0.000000 0.000000
vn 1.000000 0.000000 0.000000
vn -0.771679 0.000000 0.636013
vn -0.771679 0.000000 0.636013
vn -0.771679 0.000000 0.636013
vn -0.771679 0.000000 0.636013
vn 0.771679 0.000000 0.636013
vn 0.771679 0.000000 0.636013
vn 0.771679 0.000000 0.636013
vn 0.771679 0.000000 0.636013
vn 1.000000 0.000000 0.000000
vn 1.000000 0.000000 0.000000
vn 1.000000 0.000000 0.000000
vn 1.000000 0.000000 0.000000
vn -0.966859 0.000000 -0.255312
vn -0.878474 0.000000 -0.477790
vn -0.878474 0.000000 -0.477790
vn -0.966859 0.000000 -0.255312
vn 0.880060 0.000000 -0.474863
vn 0.967356 0.000000 -0.253420
vn 0.967356 0.000000 -0.253420
vn 0.880060 0.000000 -0.474863
vn -1.000000 0.000000 0.000000
vn -1.000000 0.000000 0.000000
vn -1.000000 0.000000 0.000000
vn -1.000000 0.000000 0.000000
vn 1.000000 0.000000 0.000000
vn 1.000000 0.000000 0.000000
vn -0.000001 0.000000 -1.000000
vn -0.000001 0.000000 -1.000000
vn -0.000001 0.000000 -1.000000
vn -0.000001 0.000000 -1.000000
vn -1.000000 0.000000 0.000000
vn -1.000000 0.000000 0.000000
vn 1.000000 0.000000 0.000000
vn 1.000000 0.000000 0.000000
vn -0.000001 0.000000 -1.000000
vn -0.000001 0.000000 -1.000000
vn -0.000001 0.000000 -1.000000
vn -0.000001 0.000000 -1.000000
vn -1.000000 0.000000 0.000000
vn -1.000000 0.000000 0.000000
s 1
g pPlane1
usemtl initialShadingGroup
f 20/48/1 21/10/2 22/47/3
f 23/49/4 24/50/5 25/7/6 26/51/7
f 24/50/5 27/52/8 28/53/9 25/7/6
f 26/51/7 25/7/6 21/10/2 29/54/10
f 25/7/6 28/53/9 30/55/11 21/10/2
f 21/10/2 30/55/11 31/56/12 32/57/13 22/47/3
f 29/54/10 21/10/2 20/48/1 33/58/14 34/59/15
f 32/63/13 31/60/12 35/61/16 36/62/17
f 34/67/15 33/64/14 37/65/18 38/66/19
s 3
f 15/24/20 14/26/21 10/25/22
f 1/27/23 6/30/24 7/29/25 5/28/26
f 5/28/26 7/29/25 8/32/27 2/31/28
f 6/30/24 9/33/29 10/25/22 7/29/25
f 7/29/25 10/25/22 11/34/30 8/32/27
f 10/25/22 14/26/21 12/36/31 4/35/32 11/34/30
f 9/33/29 3/38/33 13/37/34 15/24/20 10/25/22
f 12/39/31 16/42/35 17/41/36 4/40/32
f 3/43/33 18/46/37 19/45/38 13/44/34
s off
f 14/14/39 15/15/40 20/48/41 22/47/42
f 1/1/43 5/5/44 24/50/45 23/49/46
f 6/6/47 1/1/48 23/49/49 26/51/50
f 5/5/51 2/2/52 27/52/53 24/50/54
f 2/2/55 8/8/56 28/53/57 27/52/58
f 9/9/59 6/6/60 26/51/61 29/54/62
f 8/8/63 11/11/64 30/55/65 28/53/66
s 5
f 11/11/67 4/4/68 31/56/69 30/55/70
s 6
f 12/12/71 14/14/72 22/47/73 32/57/74
s 7
f 15/15/75 13/13/76 33/58/77 20/48/78
s 8
f 3/3/79 9/9/80 29/54/81 34/59/82
s 5
f 4/17/68 17/18/83 35/61/84 31/60/69
s off
f 17/18/85 16/19/86 36/62/87 35/61/88
s 6
f 16/19/89 12/16/71 32/63/74 36/62/90
s 7
f 13/21/76 19/22/91 37/65/92 33/64/77
s off
f 19/22/93 18/23/94 38/66/95 37/65/96
s 8
f 18/23/97 3/20/79 34/67/82 38/66/98
